<svg width="95" height="59" viewBox="0 0 95 59" fill="none" xmlns="http://www.w3.org/2000/svg">
<path d="M59.5003 28.8548L53.7096 23.0641M53.7096 23.0641C54.7001 22.0736 55.4858 20.8977 56.0219 19.6035C56.558 18.3093 56.8339 16.9222 56.8339 15.5214C56.8339 14.1206 56.558 12.7335 56.0219 11.4394C55.4858 10.1452 54.7001 8.96928 53.7096 7.97877C52.7191 6.98825 51.5432 6.20253 50.249 5.66646C48.9548 5.1304 47.5677 4.85449 46.1669 4.85449C44.7661 4.85449 43.3791 5.1304 42.0849 5.66646C40.7907 6.20253 39.6148 6.98825 38.6243 7.97877C36.6238 9.97921 35.5 12.6924 35.5 15.5214C35.5 18.3505 36.6238 21.0637 38.6243 23.0641C40.6247 25.0645 43.3379 26.1884 46.1669 26.1884C48.996 26.1884 51.7092 25.0645 53.7096 23.0641Z" stroke="#999A9F" stroke-width="3.33333" stroke-linecap="round" stroke-linejoin="round"/>
<path d="M33.9303 44.3154V46.7764H35.4655V47.6904H33.9303V50.0928H32.8171V44.3154H33.9303ZM25.6921 46.1201V45.2412H28.2702V44.2568H29.3835V45.2412H31.9499V46.1201H25.6921ZM26.2663 48.2412C26.2604 47.1807 27.2799 46.5186 28.821 46.5186C30.362 46.5186 31.3639 47.1807 31.3639 48.2412C31.3639 49.3076 30.362 49.958 28.821 49.9521C27.2799 49.958 26.2604 49.3076 26.2663 48.2412ZM27.1452 51.417V50.585H33.9303V53.0225H28.2585V53.9014H34.2936V54.7451H27.1686V52.2373H32.8288V51.417H27.1452ZM27.3444 48.2412C27.3327 48.8096 27.9128 49.1436 28.821 49.1436C29.7233 49.1436 30.3092 48.8096 30.321 48.2412C30.3092 47.6729 29.7233 47.3213 28.821 47.3154C27.9128 47.3213 27.3327 47.6729 27.3444 48.2412ZM39.028 44.7021C40.61 44.7139 41.776 45.6807 41.7819 47.0576C41.776 48.4404 40.61 49.4014 39.028 49.4014C37.4284 49.4014 36.2682 48.4404 36.2624 47.0576C36.2682 45.6807 37.4284 44.7139 39.028 44.7021ZM37.3522 47.0576C37.3464 47.9248 38.0612 48.499 39.028 48.499C39.9889 48.499 40.7038 47.9248 40.7038 47.0576C40.7038 46.2021 39.9889 45.6279 39.028 45.6396C38.0612 45.6279 37.3464 46.2021 37.3522 47.0576ZM37.8561 51.0654V50.1748H44.7585V52.8232H38.9694V53.8311H45.11V54.7217H37.8913V51.9912H43.6569V51.0654H37.8561ZM43.6452 49.6943V44.3506H44.7585V49.6943H43.6452ZM53.0319 46.5186C53.0319 47.7139 53.9811 48.8389 55.5866 49.2842L55.0827 50.1396C53.8581 49.7939 52.9616 49.0557 52.4928 48.1123C52.0299 49.1553 51.11 49.958 49.8678 50.3389L49.3288 49.46C50.9342 49.0029 51.9303 47.8252 51.9303 46.5186V46.4014H49.6452V45.5107H51.9303V44.3037H53.0436V45.5107H55.3171V46.4014H53.0319V46.5186ZM50.3717 53.9482C52.1354 53.6963 53.4714 52.835 53.6706 51.8271H50.7936V50.9365H57.7663V51.8271H54.8952C55.0885 52.8115 56.4421 53.6963 58.1999 53.96L57.7897 54.8154C56.1901 54.5693 54.8835 53.8369 54.2741 52.8408C53.6706 53.8369 52.3698 54.5518 50.7819 54.8037L50.3717 53.9482ZM56.4889 50.4092V44.3506H57.6022V46.8701H59.1256V47.7959H57.6022V50.4092H56.4889ZM68.4538 44.3506V54.8506H67.3288V44.3506H68.4538ZM59.8288 52.0381C62.6178 50.708 63.9831 48.8154 64.1999 46.3662H60.3327V45.4756H65.3249C65.3249 48.5518 64.0182 51.2119 60.4147 52.9404L59.8288 52.0381Z" fill="#999A9F"/>
</svg>
