<svg width="95" height="59" viewBox="0 0 95 59" fill="none" xmlns="http://www.w3.org/2000/svg">
<path d="M41.8327 7.52148H36.4993C35.763 7.52148 35.166 8.11844 35.166 8.85482V14.1882C35.166 14.9245 35.763 15.5215 36.4993 15.5215H41.8327C42.5691 15.5215 43.166 14.9245 43.166 14.1882V8.85482C43.166 8.11844 42.5691 7.52148 41.8327 7.52148Z" stroke="#040404" stroke-width="2.66667" stroke-linecap="round" stroke-linejoin="round"/>
<path d="M35.166 23.5221L37.8327 26.1888L43.166 20.8555M48.4993 8.85547H59.166M48.4993 16.8555H59.166M48.4993 24.8555H59.166" stroke="#040404" stroke-width="2.66667" stroke-linecap="round" stroke-linejoin="round"/>
<path d="M30.1276 44.9844C32.3717 44.9902 34.0065 46.0977 34.0065 47.7734C34.0065 49.3438 32.6354 50.3926 30.6784 50.5508V52.6133H34.9557V53.5391H25.3464V52.6133H29.5768V50.5508C27.6315 50.3926 26.2546 49.3438 26.2604 47.7734C26.2546 46.0977 27.8952 44.9902 30.1276 44.9844ZM27.3385 47.7734C27.3385 48.9512 28.5104 49.6836 30.1276 49.6953C31.7565 49.6836 32.9225 48.9512 32.9284 47.7734C32.9225 46.6367 31.7565 45.8867 30.1276 45.8984C28.5104 45.8867 27.3385 46.6367 27.3385 47.7734ZM44.1901 46.7422V47.6445H36.9831V44.5039H38.0729V46.7422H44.1901ZM35.7057 49.4609V48.5703H45.3151V49.4609H35.7057ZM36.8776 51.1719V50.3047H44.1081V52.8711H38.0143V53.8438H44.4714V54.7227H36.901V52.0508H43.0065V51.1719H36.8776ZM57.2682 44.3164V46.7773H58.8034V47.6914H57.2682V50.0938H56.1549V44.3164H57.2682ZM49.0299 46.1211V45.2422H51.6081V44.2578H52.7214V45.2422H55.2878V46.1211H49.0299ZM49.6042 48.2422C49.5983 47.1816 50.6178 46.5195 52.1589 46.5195C53.6999 46.5195 54.7018 47.1816 54.7018 48.2422C54.7018 49.3086 53.6999 49.959 52.1589 49.9531C50.6178 49.959 49.5983 49.3086 49.6042 48.2422ZM50.4831 51.418V50.5859H57.2682V53.0234H51.5964V53.9023H57.6315V54.7461H50.5065V52.2383H56.1667V51.418H50.4831ZM50.6823 48.2422C50.6706 48.8105 51.2507 49.1445 52.1589 49.1445C53.0612 49.1445 53.6471 48.8105 53.6589 48.2422C53.6471 47.6738 53.0612 47.3223 52.1589 47.3164C51.2507 47.3223 50.6706 47.6738 50.6823 48.2422ZM62.3659 44.7031C63.9479 44.7148 65.1139 45.6816 65.1198 47.0586C65.1139 48.4414 63.9479 49.4023 62.3659 49.4023C60.7663 49.4023 59.6061 48.4414 59.6003 47.0586C59.6061 45.6816 60.7663 44.7148 62.3659 44.7031ZM60.6901 47.0586C60.6842 47.9258 61.3991 48.5 62.3659 48.5C63.3268 48.5 64.0417 47.9258 64.0417 47.0586C64.0417 46.2031 63.3268 45.6289 62.3659 45.6406C61.3991 45.6289 60.6842 46.2031 60.6901 47.0586ZM61.194 51.0664V50.1758H68.0964V52.8242H62.3073V53.832H68.4479V54.7227H61.2292V51.9922H66.9948V51.0664H61.194ZM66.9831 49.6953V44.3516H68.0964V49.6953H66.9831Z" fill="#040404"/>
</svg>
