<svg width="95" height="59" viewBox="0 0 95 59" fill="none" xmlns="http://www.w3.org/2000/svg">
<path d="M41.8327 7.52051H36.4993C35.763 7.52051 35.166 8.11746 35.166 8.85384V14.1872C35.166 14.9236 35.763 15.5205 36.4993 15.5205H41.8327C42.5691 15.5205 43.166 14.9236 43.166 14.1872V8.85384C43.166 8.11746 42.5691 7.52051 41.8327 7.52051Z" stroke="#999A9F" stroke-width="2.66667" stroke-linecap="round" stroke-linejoin="round"/>
<path d="M35.166 23.5202L37.8327 26.1868L43.166 20.8535M48.4993 8.85352H59.166M48.4993 16.8535H59.166M48.4993 24.8535H59.166" stroke="#999A9F" stroke-width="2.66667" stroke-linecap="round" stroke-linejoin="round"/>
<path d="M30.1276 44.9834C32.3717 44.9893 34.0065 46.0967 34.0065 47.7725C34.0065 49.3428 32.6354 50.3916 30.6784 50.5498V52.6123H34.9557V53.5381H25.3464V52.6123H29.5768V50.5498C27.6315 50.3916 26.2546 49.3428 26.2604 47.7725C26.2546 46.0967 27.8952 44.9893 30.1276 44.9834ZM27.3385 47.7725C27.3385 48.9502 28.5104 49.6826 30.1276 49.6943C31.7565 49.6826 32.9225 48.9502 32.9284 47.7725C32.9225 46.6357 31.7565 45.8857 30.1276 45.8975C28.5104 45.8857 27.3385 46.6357 27.3385 47.7725ZM44.1901 46.7412V47.6436H36.9831V44.5029H38.0729V46.7412H44.1901ZM35.7057 49.46V48.5693H45.3151V49.46H35.7057ZM36.8776 51.1709V50.3037H44.1081V52.8701H38.0143V53.8428H44.4714V54.7217H36.901V52.0498H43.0065V51.1709H36.8776ZM57.2682 44.3154V46.7764H58.8034V47.6904H57.2682V50.0928H56.1549V44.3154H57.2682ZM49.0299 46.1201V45.2412H51.6081V44.2568H52.7214V45.2412H55.2878V46.1201H49.0299ZM49.6042 48.2412C49.5983 47.1807 50.6178 46.5186 52.1589 46.5186C53.6999 46.5186 54.7018 47.1807 54.7018 48.2412C54.7018 49.3076 53.6999 49.958 52.1589 49.9521C50.6178 49.958 49.5983 49.3076 49.6042 48.2412ZM50.4831 51.417V50.585H57.2682V53.0225H51.5964V53.9014H57.6315V54.7451H50.5065V52.2373H56.1667V51.417H50.4831ZM50.6823 48.2412C50.6706 48.8096 51.2507 49.1436 52.1589 49.1436C53.0612 49.1436 53.6471 48.8096 53.6589 48.2412C53.6471 47.6729 53.0612 47.3213 52.1589 47.3154C51.2507 47.3213 50.6706 47.6729 50.6823 48.2412ZM62.3659 44.7021C63.9479 44.7139 65.1139 45.6807 65.1198 47.0576C65.1139 48.4404 63.9479 49.4014 62.3659 49.4014C60.7663 49.4014 59.6061 48.4404 59.6003 47.0576C59.6061 45.6807 60.7663 44.7139 62.3659 44.7021ZM60.6901 47.0576C60.6842 47.9248 61.3991 48.499 62.3659 48.499C63.3268 48.499 64.0417 47.9248 64.0417 47.0576C64.0417 46.2021 63.3268 45.6279 62.3659 45.6396C61.3991 45.6279 60.6842 46.2021 60.6901 47.0576ZM61.194 51.0654V50.1748H68.0964V52.8232H62.3073V53.8311H68.4479V54.7217H61.2292V51.9912H66.9948V51.0654H61.194ZM66.9831 49.6943V44.3506H68.0964V49.6943H66.9831Z" fill="#999A9F"/>
</svg>
