<svg width="95" height="59" viewBox="0 0 95 59" fill="none" xmlns="http://www.w3.org/2000/svg">
<path d="M43.832 23.5221H41.1654V14.1888H43.832V23.5221ZM49.1654 23.5221H46.4987V10.1888H49.1654V23.5221ZM54.4987 23.5221H51.832V18.1888H54.4987V23.5221ZM57.1654 26.1888H38.4987V7.52214H57.1654V26.3221M57.1654 4.85547H38.4987C37.032 4.85547 35.832 6.05547 35.832 7.52214V26.1888C35.832 27.6555 37.032 28.8555 38.4987 28.8555H57.1654C58.632 28.8555 59.832 27.6555 59.832 26.1888V7.52214C59.832 6.05547 58.632 4.85547 57.1654 4.85547Z" fill="#999A9F"/>
<path d="M46.5788 44.3516V54.8516H45.4538V44.3516H46.5788ZM37.9538 52.0391C40.7428 50.709 42.1081 48.8164 42.3249 46.3672H38.4577V45.4766H43.4499C43.4499 48.5527 42.1432 51.2129 38.5397 52.9414L37.9538 52.0391ZM57.8171 50.082V50.9844H48.2077V50.082H52.4616V49.0859H49.4381V46.4141H55.4967V45.4766H49.4147V44.5977H56.61V47.2344H50.5397V48.2188H56.821V49.0859H53.5631V50.082H57.8171ZM49.2858 52.6133V51.7227H56.6686V54.7695H55.5436V52.6133H49.2858Z" fill="#999A9F"/>
</svg>
