<svg width="95" height="59" viewBox="0 0 95 59" fill="none" xmlns="http://www.w3.org/2000/svg">
<path d="M43.832 23.5212H41.1654V14.1878H43.832V23.5212ZM49.1654 23.5212H46.4987V10.1878H49.1654V23.5212ZM54.4987 23.5212H51.832V18.1878H54.4987V23.5212ZM57.1654 26.1878H38.4987V7.52116H57.1654V26.3212M57.1654 4.85449H38.4987C37.032 4.85449 35.832 6.05449 35.832 7.52116V26.1878C35.832 27.6545 37.032 28.8545 38.4987 28.8545H57.1654C58.632 28.8545 59.832 27.6545 59.832 26.1878V7.52116C59.832 6.05449 58.632 4.85449 57.1654 4.85449Z" fill="#040404"/>
<path d="M46.5788 44.3506V54.8506H45.4538V44.3506H46.5788ZM37.9538 52.0381C40.7428 50.708 42.1081 48.8154 42.3249 46.3662H38.4577V45.4756H43.4499C43.4499 48.5518 42.1432 51.2119 38.5397 52.9404L37.9538 52.0381ZM57.8171 50.0811V50.9834H48.2077V50.0811H52.4616V49.085H49.4381V46.4131H55.4967V45.4756H49.4147V44.5967H56.61V47.2334H50.5397V48.2178H56.821V49.085H53.5631V50.0811H57.8171ZM49.2858 52.6123V51.7217H56.6686V54.7686H55.5436V52.6123H49.2858Z" fill="#040404"/>
</svg>
