<svg width="176" height="176" viewBox="0 0 176 176" fill="none" xmlns="http://www.w3.org/2000/svg">
<path d="M86.0549 88.5688C90.0702 86.4739 96.1659 87.6959 98.7118 88.5688L104.386 91.1874C106.568 92.7149 111.151 96.1628 112.023 97.734C113.115 99.698 120.316 113.446 120.971 117.156C121.494 120.123 122.789 136.577 123.371 144.433C115.151 146.252 98.4499 149.976 97.4025 150.325C96.355 150.674 86.7823 146.543 82.1269 144.433L79.9446 128.721C78.4171 122.029 75.3619 108.34 75.3619 107.117C75.3619 105.895 74.9255 102.466 75.3619 99.8472C76.2115 96.4937 78.1147 93.478 81.0025 91.5732C82.5319 90.5644 84.2835 89.493 86.0549 88.5688Z" fill="#95B8D4" stroke="#386A93" stroke-width="1.17634"/>
<path d="M96.5947 90.1853L94.5547 83.4825L103.284 81.3003H109.612C110.485 83.4825 112.231 88.1524 112.231 89.3745C112.231 90.5965 110.485 92.6478 109.612 93.5207H101.096C99.0252 93.5207 97.1977 92.1666 96.5947 90.1853Z" fill="url(#paint0_linear_86_2186)" stroke="#DA864A" stroke-width="1.17634"/>
<path d="M80.3969 67.2516C81.6332 65.7396 79.8818 56.8456 78.8516 52.5877L80.3969 46.9337L103.578 44.4136L106.952 49.1387L117.662 57.0138L124.998 62.3689L126.465 71.8191L120.89 83.3168L106.952 87.4119H86.0787C83.9486 87.4119 81.9108 86.5426 80.4366 85.0052C78.6223 83.1131 77.6094 80.5932 77.6094 77.9719V73.6362C77.6094 72.4392 77.8593 71.2502 78.4443 70.2059C78.9761 69.2568 79.6693 68.1414 80.3969 67.2516Z" fill="url(#paint1_linear_86_2186)" stroke="#F1B97A" stroke-width="1.17634"/>
<path d="M60.5282 83.5487C57.8723 83.2536 54.0941 79.3005 51.8021 76.4587C51.0945 75.5814 50.0417 75.0381 48.9146 75.0381H27.3854C25.7712 75.0381 24.1613 74.8733 22.5806 74.5463C20.0255 74.0177 17.7323 72.6207 16.0906 70.5927L12.3206 65.9357C9.26413 62.1601 8.03043 57.2278 8.94941 52.4579L11.0757 41.4217C11.7278 38.0368 13.5045 34.9714 16.1175 32.723L17.9935 31.1088C20.227 29.187 23.1004 28.1733 26.0454 28.2683L63.446 29.4748C66.7764 29.5822 69.8017 31.4428 71.4 34.3666L76.0208 42.8192C77.1529 44.8901 77.5606 47.2798 77.1791 49.6088L74.147 68.1204C73.8093 70.1819 72.7023 72.0386 71.0493 73.3159C69.6045 74.4324 67.8301 75.0381 66.0041 75.0381H60.5448C58.8715 75.0381 57.733 76.7356 58.3682 78.2837L60.5282 83.5487Z" fill="#D9EEFF" stroke="#6A9DC6" stroke-width="1.17634"/>
<path d="M81.6925 32.5694L82.0715 32.2124C84.5133 29.4903 87.7579 27.6157 91.3357 26.8598L97.9512 25.462C103.681 24.2515 109.614 24.3945 115.279 25.8797L117.948 26.5796C121.539 27.5209 124.77 29.5027 127.237 32.2757L130.63 36.0892C133.695 39.5352 135.389 43.9869 135.389 48.5991V55.4634C135.389 59.2428 134.251 62.9347 132.124 66.0584L127.904 72.2533H123.454C122.308 70.9956 119.813 68.3124 119.004 67.6416C118.65 67.3478 117.661 66.57 116.498 65.6616C113.599 63.3982 110.961 60.8187 108.655 57.9541L107.253 56.2124C105.528 54.0689 103.413 52.271 101.019 50.9136L98.1944 56.1571C98.1452 56.2485 98.1029 56.3435 98.0679 56.4412C97.6255 57.677 97.9223 59.0568 98.8338 60.0014L101.019 62.2659H97.3455H91.1586L87.0984 57.6577L88.8385 62.2659L81.974 63.6786C81.4101 63.7947 80.8236 63.7229 80.3044 63.4741C77.3914 62.0786 75.2791 59.4245 74.573 56.2726L73.9576 53.5254C73.4437 51.2316 73.4308 48.8539 73.9197 46.5547L73.9764 46.2878C75.093 41.0365 77.7848 36.2507 81.6925 32.5694Z" fill="black"/>
<path d="M133.868 86.4287H123.552L114.247 88.6538L109.189 111.309L112.224 124.053L111.01 144.079L121.916 152.17H139.937L144.326 150.221C145.745 149.59 147.008 148.655 148.025 147.482L148.232 147.244C149.079 146.267 149.487 144.985 149.36 143.699L147.421 124.053L144.986 99.1452C144.857 97.8227 144.525 96.5281 144.002 95.3067L143.732 94.6779C142.095 90.8577 138.857 87.9532 134.882 86.7386L133.868 86.4287Z" fill="#95B8D4" stroke="#386A93" stroke-width="1.17634"/>
<rect x="15.0645" y="152.536" width="153.435" height="9.55743" rx="2.35268" fill="#A88A68" stroke="#705435" stroke-width="1.17634"/>
<ellipse cx="30.3088" cy="51.9664" rx="2.68571" ry="2.68568" fill="#0A395F"/>
<ellipse cx="42.1447" cy="51.9664" rx="2.68571" ry="2.68568" fill="#0A395F"/>
<ellipse cx="55.049" cy="51.9664" rx="2.68571" ry="2.68568" fill="#0A395F"/>
<path d="M115.736 67.0474L115.857 65.7419L115.9 65.7248C116.755 65.3849 117.709 65.3926 118.559 65.7462L120.506 66.5565C121.487 66.9649 122.232 67.7937 122.534 68.8127L122.954 70.2322L125.21 71.3258L125.577 70.9211C126.243 70.1855 127.3 69.9473 128.217 70.3257L132.222 71.9773L132.557 81.3779C132.587 82.2263 132.31 83.0571 131.778 83.7181L130.549 85.2426C130.266 85.593 129.889 85.8551 129.462 85.9977L122.89 88.1928L119.927 90.5261C119.121 91.1612 118.819 92.2457 119.182 93.2059L121.395 99.0644C121.635 99.7004 121.514 100.417 121.078 100.938C118.638 103.856 115.186 105.743 111.412 106.221L109.253 106.495C107.57 106.708 105.973 105.693 105.451 104.078L104.02 99.6439L100.502 90.6805C100.001 89.4021 99.962 87.9885 100.393 86.6847L101.57 83.1272L107.906 78.4472C109.553 77.2306 111.517 76.5177 113.561 76.3949L116.208 76.2359L117.468 70.6065L116.715 69.8293C115.998 69.0894 115.64 68.0732 115.736 67.0474Z" fill="url(#paint2_linear_86_2186)" stroke="#EAB37D" stroke-width="1.17634"/>
<path d="M123.996 73.0347L123.457 78.8418" stroke="#EAB37D" stroke-width="1.17634" stroke-linecap="round"/>
<path d="M127.684 74.5151L127.354 78.0635" stroke="#EAB37D" stroke-width="1.17634" stroke-linecap="round"/>
<path d="M115.997 103.852L104.544 106.609L107.258 143.166L110.996 145.753L128.883 144.076L139.716 136.838L139.928 131.785L136.647 123.144L130.286 110.729L124.798 101.59L122.079 98.8434L115.997 103.852Z" fill="#95B8D4"/>
<path d="M139.928 131.785L136.647 123.144L130.286 110.729L124.798 101.59L122.079 98.8434L115.997 103.852L105.515 106.375C104.955 106.51 104.575 107.031 104.618 107.606L107.258 143.166" stroke="#386A93" stroke-width="1.17634"/>
<path d="M78.7357 97.7319H21.8832C21.2122 97.7319 20.573 98.0185 20.1266 98.5196L17.532 101.432C16.9627 102.071 16.7853 102.969 17.0688 103.776L34.0229 152.069H96.2165L80.9958 99.4311C80.7048 98.4247 79.7833 97.7319 78.7357 97.7319Z" fill="#171717"/>
<path d="M73.9492 144.517H121.727C123.027 144.517 124.08 145.57 124.08 146.87V152.068H73.9492V144.517Z" fill="#171717"/>
<path d="M20.6621 102.991H74.2695M75.7474 107.055L87.2005 148.434" stroke="white" stroke-opacity="0.4" stroke-width="1.17634" stroke-linecap="round"/>
<rect x="96.502" y="147.635" width="8.6129" height="1.31948" rx="0.659742" fill="#D9D9D9"/>
<rect x="107.48" y="147.635" width="8.6129" height="1.31948" rx="0.659742" fill="#D9D9D9"/>
<path d="M83.2637 66.9116L89.1409 67.1345" stroke="#452A0A" stroke-width="1.17634" stroke-linecap="round"/>
<path d="M95.7734 67.0205L102.787 67.4769" stroke="#452A0A" stroke-width="1.17634" stroke-linecap="round"/>
<path d="M90.2852 73.6182H92.3816" stroke="#D08E5B" stroke-width="1.17634" stroke-linecap="round"/>
<path d="M89.7598 78.0063L95.0318 79.1606" stroke="#452A0A" stroke-width="1.17634" stroke-linecap="round"/>
<defs>
<linearGradient id="paint0_linear_86_2186" x1="103.393" y1="86.0954" x2="103.393" y2="93.5207" gradientUnits="userSpaceOnUse">
<stop stop-color="#DB9C55"/>
<stop offset="0.505" stop-color="#DDA063"/>
</linearGradient>
<linearGradient id="paint1_linear_86_2186" x1="111.768" y1="56.0973" x2="100.729" y2="86.1842" gradientUnits="userSpaceOnUse">
<stop stop-color="#FFE3CB"/>
<stop offset="1" stop-color="#FBDFB2"/>
</linearGradient>
<linearGradient id="paint2_linear_86_2186" x1="116.982" y1="74.9604" x2="116.704" y2="102.316" gradientUnits="userSpaceOnUse">
<stop stop-color="#FBDCB2"/>
<stop offset="1" stop-color="#FFC17A"/>
</linearGradient>
</defs>
</svg>
