<svg width="176" height="176" viewBox="0 0 176 176" fill="none" xmlns="http://www.w3.org/2000/svg">
<path d="M116.501 116.097C113.909 113.59 113.5 109.58 115.532 106.602L117.802 103.274C119.194 101.235 121.704 100.273 124.102 100.859L131.267 102.611C138.532 104.387 141.786 112.874 137.571 119.052C133.829 124.536 126.051 125.33 121.278 120.716L116.501 116.097Z" fill="url(#paint0_linear_86_2703)" stroke="#148E4B" stroke-width="2.96152"/>
<ellipse cx="93.7246" cy="155.938" rx="40.6093" ry="2.14246" fill="black" fill-opacity="0.34"/>
<path d="M88.9277 135.842C88.9277 132.571 91.5796 129.919 94.8508 129.919H98.2728C102.174 129.919 105.62 132.464 106.766 136.194L110.535 148.462C111.706 152.27 108.858 156.125 104.874 156.125H94.8508C91.5796 156.125 88.9277 153.473 88.9277 150.202V135.842Z" fill="black"/>
<path d="M84.5371 138.431C84.5371 133.524 80.5594 129.546 75.6525 129.546H75.192C71.2904 129.546 67.8453 132.092 66.6993 135.821L62.9296 148.089C61.7593 151.898 64.6072 155.752 68.5913 155.752H78.6141C81.8853 155.752 84.5371 153.1 84.5371 149.829V138.431Z" fill="black"/>
<path d="M58.2596 72.2307L51.8876 87.8975L43.1449 104.086L40.7051 116.49L46.6013 130.786L51.0768 133.214C56.279 136.036 62.1036 137.514 68.0218 137.514H109.346C111.022 137.514 112.694 137.347 114.337 137.015C118.117 136.252 121.489 134.136 123.819 131.064L124.794 129.778C127.107 126.729 128.501 123.083 128.813 119.269L129.018 116.765C129.37 112.457 128.548 108.135 126.641 104.256L123.456 97.7786L118.576 87.8975L115.005 76.7087C112.937 70.228 109.498 64.2687 104.921 59.2358L104.344 58.6007C100.912 54.8265 96.3529 52.2608 91.3456 51.2853L85.0286 50.0547L78.4366 51.9317C73.5818 53.314 69.2287 56.0672 65.8993 59.8612C62.6804 63.5293 60.0982 67.7102 58.2596 72.2307Z" fill="#54E194" stroke="#148E4B" stroke-width="2.96152"/>
<ellipse cx="33.5123" cy="158.08" rx="25.3815" ry="2.14246" fill="black" fill-opacity="0.39"/>
<path d="M38.1934 111.223C41.562 117.357 43.9769 123.19 45.7884 129.919" stroke="#83B99B" stroke-width="0.740381" stroke-linecap="round"/>
<path d="M91.8991 43.2893C96.7945 48.1848 99.8006 59.128 94.9052 64.0234C90.0098 68.9189 79.0666 65.9127 74.1711 61.0173C67.5469 52.9194 67.4249 43.7208 67.7918 39.5638C67.911 38.2123 69.0077 37.2276 70.364 37.1907C75.0934 37.0621 86.062 37.4522 91.8991 43.2893Z" fill="#148E4B"/>
<path d="M84.5371 50.6445C85.8737 52.0859 89.2037 55.3934 89.9674 59.16" stroke="white" stroke-opacity="0.6" stroke-width="4.27886" stroke-linecap="round"/>
<path d="M38.0199 82.6432C38.0199 84.4995 36.1712 85.6222 33.8908 85.6222C31.6104 85.6222 29.7617 84.4995 29.7617 82.6432C29.7617 81.6944 30.8405 80.1376 31.8952 78.8423C32.9375 77.5622 34.8441 77.5622 35.8864 78.8422C36.9411 80.1376 38.0199 81.6944 38.0199 82.6432Z" fill="#2BDA79"/>
<path d="M145.188 78.017C145.188 80.8962 142.321 82.6375 138.783 82.6375C135.246 82.6375 132.379 80.8962 132.379 78.017C132.379 76.2186 134.878 73.012 136.753 70.8579C137.838 69.6131 139.729 69.6131 140.813 70.8579C142.689 73.012 145.188 76.2186 145.188 78.017Z" fill="#2BDA79"/>
<path d="M87.0852 93.9071C85.5602 94.0244 86.0587 95.52 86.4986 96.2532C87.0461 97.0744 88.6493 97.3122 89.3824 97.3284C89.3824 97.3284 92.1001 97.3382 92.8039 95.8132C93.5077 94.2882 92.1848 93.907 91.4353 93.9071C90.6207 93.8582 88.6102 93.7897 87.0852 93.9071Z" fill="black"/>
<path d="M82.7249 90.3903C81.5173 90.3903 80.9126 89.32 80.9126 87.9998C80.9126 86.6796 81.3888 85.6094 82.7249 85.6094C84.0609 85.6094 84.5371 86.6796 84.5371 87.9998C84.5371 89.32 83.9057 90.3903 82.7249 90.3903Z" fill="black"/>
<path d="M94.8167 90.3903C93.6091 90.3903 93.0044 89.32 93.0044 87.9998C93.0044 86.6796 93.4806 85.6094 94.8167 85.6094C96.1527 85.6094 96.6289 86.6796 96.6289 87.9998C96.6289 89.32 95.9975 90.3903 94.8167 90.3903Z" fill="black"/>
<path d="M46.4228 97.9092C51.5566 95.5345 57.6554 97.3039 60.721 102.058C62.0077 104.053 61.8422 106.654 60.3129 108.47L52.3302 117.95C47.6311 123.53 38.8737 122.972 34.9199 116.841C31.3486 111.304 33.5005 103.887 39.4811 101.12L46.4228 97.9092Z" fill="#54E194" stroke="#148E4B" stroke-width="2.96152"/>
<path d="M8.63315 135.859L8.64334 135.794L8.64581 135.728C8.88896 129.27 10.8519 123.84 14.6463 120.028C18.4199 116.236 24.1413 113.907 32.1932 113.892C39.4958 114.946 45.0678 117.311 48.8158 121.104C52.547 124.879 54.5995 130.2 54.6099 137.445C53.938 144.105 51.6322 149.399 47.7646 152.964C43.8962 156.529 38.3296 158.489 30.8892 158.209C24.4327 157.966 18.2897 155.834 14.0685 152.055C9.88805 148.312 7.52679 142.904 8.63315 135.859Z" fill="#EEF2F4" stroke="#B0BFC7" stroke-width="2.22114"/>
<circle cx="38.0203" cy="68.6487" r="5.19803" fill="#FF6422"/>
<circle cx="145.551" cy="64.897" r="3.75197" fill="#FF6422"/>
<circle cx="131.94" cy="66.9317" r="2.38337" fill="#FF6422"/>
<path d="M135.829 131.102C133.32 129.917 130.641 128.962 128.051 127.991" stroke="#2A955A" stroke-width="1.48076" stroke-linecap="round"/>
<path d="M46.2447 149.065L40.9808 150.979L40.1035 152.095L40.9808 152.893H42.1772L44.4103 152.095H46.803L47.2018 153.77L47.6005 157.12V160.39L48.9564 160.789L52.4656 161.188L54.9381 160.39V158.954L53.8215 157.997H51.9074L51.03 157.12V155.046L50.073 149.783L48.9564 149.065H46.2447Z" fill="black"/>
<path d="M51.9074 147.096L50.073 147.858L50.6701 149.783H51.9074H53.8215L54.205 150.631L54.9381 152.893V155.413L55.9378 158.954L56.9775 159.572H59.4034C59.8886 159.618 60.9421 159.683 61.2748 159.572C61.6075 159.461 62.0604 159.114 62.2452 158.954V158.463L60.8589 157.12H59.4034H58.433V155.413L57.8092 152.095L56.9775 149.065L55.9378 147.858L54.205 147.096H51.9074Z" fill="black"/>
<path d="M44.0723 126.43L44.1447 126.414C44.872 126.252 45.5748 125.996 46.2353 125.651V125.651" stroke="black" stroke-width="1.48076" stroke-linecap="round"/>
<path d="M45.2402 120.676L46.2352 122.276" stroke="black" stroke-width="1.48076" stroke-linecap="round"/>
<path d="M37.7559 123.271L38.7076 124.699" stroke="black" stroke-width="1.48076" stroke-linecap="round"/>
<path d="M29.166 150.293V146.197L28.3227 145.595L27.7203 146.558V150.293V152.823V154.871L27.118 156.256L26.8168 156.979L25.853 157.702H23.6243H22.3594V158.485L22.8412 159.328H25.07H27.118L28.3227 158.485L29.166 156.979V154.088V150.293Z" fill="black"/>
<ellipse cx="145.701" cy="158.08" rx="17.2085" ry="2.14246" fill="black" fill-opacity="0.29"/>
<path d="M121.502 134.038L121.512 133.973L121.515 133.908C121.758 127.449 123.721 122.02 127.515 118.207C131.289 114.416 137.01 112.087 145.062 112.072C152.365 113.126 157.937 115.491 161.685 119.283C165.416 123.059 167.469 128.38 167.479 135.625C166.807 142.284 164.501 147.579 160.634 151.144C156.765 154.709 151.199 156.669 143.758 156.389C137.302 156.146 131.159 154.014 126.938 150.235C122.757 146.492 120.396 141.083 121.502 134.038Z" fill="#EEF2F4" stroke="#B0BFC7" stroke-width="2.22114"/>
<path d="M128.371 118.898L127.491 120.371" stroke="black" stroke-width="1.48076" stroke-linecap="round"/>
<path d="M138.867 151.433L138.696 151.062C138.531 150.705 138.117 150.537 137.749 150.678C137.46 150.789 137.27 151.066 137.27 151.376V152.518V154.521V156.961V158.267C136.834 158.442 135.876 158.79 135.527 158.79C135.179 158.79 134.801 159.952 134.656 160.533H135.963H139.971V158.79L139.502 156.368C139.466 156.183 139.448 155.994 139.448 155.806V154.466C139.448 154.271 139.429 154.077 139.39 153.885L138.952 151.696C138.934 151.605 138.905 151.517 138.867 151.433Z" fill="black"/>
<path d="M152.755 149.46L152.316 149.599C152.048 149.685 151.809 149.844 151.628 150.059C151.22 150.541 151.158 151.227 151.475 151.774L151.906 152.518L152.219 153.006C152.526 153.484 152.69 154.039 152.69 154.607V155.393V156.961L151.906 158.268L152.69 158.79H154.693H156.958L157.394 158.268L156.958 156.961L155.826 154.522L154.953 152.573C154.782 152.192 154.693 151.779 154.693 151.362V150.877C154.693 150.584 154.606 150.297 154.444 150.052C154.076 149.5 153.387 149.259 152.755 149.46Z" fill="black"/>
<path d="M128.779 131.165L116.758 125.189" stroke="black" stroke-width="2.96152" stroke-linecap="round"/>
<ellipse cx="36.6231" cy="67.88" rx="2.08408" ry="2.31559" fill="white" fill-opacity="0.6"/>
<ellipse cx="143.846" cy="64.0727" rx="1.34131" ry="1.49161" transform="rotate(28.829 143.846 64.0727)" fill="white" fill-opacity="0.6"/>
<rect x="136.082" y="72.8872" width="2.89442" height="6.69344" rx="1.44721" transform="rotate(23.1209 136.082 72.8872)" fill="white" fill-opacity="0.3"/>
<defs>
<linearGradient id="paint0_linear_86_2703" x1="136.338" y1="113.458" x2="117.664" y2="109.318" gradientUnits="userSpaceOnUse">
<stop stop-color="#54E194"/>
<stop offset="1" stop-color="#06B554"/>
</linearGradient>
</defs>
</svg>
