<svg width="122" height="172" viewBox="0 0 122 172" fill="none" xmlns="http://www.w3.org/2000/svg">
<path d="M88.3274 21.3511C86.1588 14.4114 81.2842 11.4363 77.3037 10.4132C73.7585 9.50201 70.4921 9.25264 66.8321 9.30312C64.963 9.3289 61.6819 9.58102 55.9089 10.2545C35.0218 12.6914 34.1515 42.4559 36.3272 57.0336C37.8937 69.7401 32.0482 84.5208 28.9297 90.3229L32.4109 100.549L86.5868 106.206C93.8393 99.9688 106.386 87.0157 98.5534 85.101C88.7625 82.7077 92.6789 35.2759 88.3274 21.3511Z" fill="black"/>
<path d="M17.9598 99.9625L10.8926 126.352L24.6536 136.384L28.8587 167.057C29.1341 169.066 30.8507 170.563 32.8787 170.563H97.5978C99.687 170.563 101.435 168.977 101.636 166.898L107.331 108.223C107.521 106.256 107.279 104.271 106.62 102.407L99.6269 82.6339L64.8966 79.3262L34.3009 82.6339L30.6997 84.0819L27.4954 86.3297C22.8146 89.6133 19.4389 94.4395 17.9598 99.9625Z" fill="url(#paint0_linear_86_2145)" stroke="#386A93" stroke-width="1.35254"/>
<path d="M47.4228 81.3156C55.0814 80.4454 54.6752 71.8147 53.5148 67.6081C60.8398 60.7908 75.4463 50.7242 75.2722 64.9973C75.0982 79.2703 81.7269 81.8233 85.0631 81.3156L82.2346 91.7592L62.2506 90.3718C54.1279 85.2225 39.7641 82.1859 47.4228 81.3156Z" fill="url(#paint1_linear_86_2145)"/>
<path d="M42.8684 54.7043L41.1758 40.8511C56.6143 35.6593 64.5615 38.0432 66.7478 33.6641L84.5275 44.9418L84.9866 47.7602C85.7866 52.6722 84.8692 57.7099 82.3889 62.0245L81.132 64.2108C80.0522 66.0893 78.7784 67.8494 77.3316 69.4623C75.4112 71.603 72.8866 73.1108 70.0912 73.7863L65.9585 74.7851C64.8608 75.0503 63.7284 75.1421 62.6023 75.0572L60.8737 74.9267C57.339 74.6599 54.0156 73.1398 51.5021 70.6402L49.867 69.014C45.9955 65.1638 43.5307 60.124 42.8684 54.7043Z" fill="url(#paint2_radial_86_2145)"/>
<path d="M52.1543 52.3232L52.1543 53.9494" stroke="#452A0A" stroke-width="2.70509" stroke-linecap="round"/>
<path d="M67.2227 52.3228L67.2227 53.9489" stroke="#452A0A" stroke-width="2.70509" stroke-linecap="round"/>
<path d="M59.916 59.3013H62.3265" stroke="#D08E5B" stroke-width="1.35254" stroke-linecap="round"/>
<path d="M58.498 64.9067H66.2285" stroke="#452A0A" stroke-width="1.35254" stroke-linecap="round"/>
<path d="M37.6332 49.2759C61.4793 46.665 69.6166 30.9269 70.7044 23.3842L70.242 23.1122C68.123 21.8658 65.7093 21.2085 63.2509 21.2085C61.9888 21.2085 60.7326 21.3818 59.5176 21.7235L52.0684 23.8186C49.0214 24.6756 46.2396 26.287 43.9802 28.5038C38.8905 33.4975 36.4569 40.6007 37.4149 47.6664L37.6332 49.2759Z" fill="black"/>
<g filter="url(#filter0_d_86_2145)">
<path d="M63.0775 90.1771L79.1569 77.7233C79.5263 77.4372 80.0174 77.362 80.4555 77.5245L90.1356 81.1155C91.0415 81.4515 91.313 82.6016 90.6531 83.3074L70.9354 104.394C70.29 105.085 69.1536 104.917 68.7349 104.07L62.6931 91.8457C62.408 91.2689 62.5688 90.5711 63.0775 90.1771Z" fill="#D9EEFF"/>
<path d="M63.0775 90.1771L79.1569 77.7233C79.5263 77.4372 80.0174 77.362 80.4555 77.5245L90.1356 81.1155C91.0415 81.4515 91.313 82.6016 90.6531 83.3074L70.9354 104.394C70.29 105.085 69.1536 104.917 68.7349 104.07L62.6931 91.8457C62.408 91.2689 62.5688 90.5711 63.0775 90.1771Z" stroke="#386A93" stroke-width="1.35254"/>
</g>
<g filter="url(#filter1_d_86_2145)">
<path d="M61.6435 89.8534L52.1046 78.256C51.7696 77.8487 51.2284 77.6733 50.7181 77.8066L42.4634 79.9633C41.646 80.1769 41.2223 81.0792 41.58 81.8446L52.4239 105.046C52.9017 106.068 54.3477 106.09 54.8565 105.083L61.8062 91.3224C62.0479 90.8437 61.9841 90.2675 61.6435 89.8534Z" fill="#D9EEFF"/>
<path d="M61.6435 89.8534L52.1046 78.256C51.7696 77.8487 51.2284 77.6733 50.7181 77.8066L42.4634 79.9633C41.646 80.1769 41.2223 81.0792 41.58 81.8446L52.4239 105.046C52.9017 106.068 54.3477 106.09 54.8565 105.083L61.8062 91.3224C62.0479 90.8437 61.9841 90.2675 61.6435 89.8534Z" stroke="#386A93" stroke-width="1.35254"/>
</g>
<path d="M23.908 108.202L28.6459 102.817L32.8727 106.368L50.2925 105.765L50.0667 99.2473L54.5962 105.616L56.2265 111.214L52.4137 119.612L37.9442 128.379C34.1044 134.022 25.8721 145.937 23.6611 148.45C20.8973 151.59 10.5119 150.21 8.41732 148.978C6.32277 147.745 3.11895 144.537 2.74089 139.548C2.43843 135.556 6.5447 129.604 8.41732 128.379L22.4115 112.386L23.908 108.202Z" fill="#FBDCB2" stroke="#E1A365" stroke-width="1.35254"/>
<path d="M22.4293 84.1959L29.1137 106.532L46.8892 108.833L52.0531 105.737L46.5961 81.9944C46.1607 80.1002 44.4434 78.7808 42.501 78.8481L24.9595 79.4559C24.5004 79.4718 24.0808 79.7196 23.8452 80.1139L22.6987 82.0329C22.3095 82.6843 22.2118 83.4691 22.4293 84.1959Z" fill="#171717"/>
<path d="M24.625 83.0752L39.1866 83.2005C41.0539 83.2166 42.6691 84.505 43.0999 86.322L47.6593 105.556" stroke="white" stroke-opacity="0.4" stroke-width="1.35254" stroke-linecap="round"/>
<ellipse cx="62.2032" cy="104.322" rx="2.69933" ry="2.69937" fill="#F4F4F4"/>
<ellipse cx="62.2032" cy="113.718" rx="2.69933" ry="2.69937" fill="#F4F4F4"/>
<ellipse cx="62.2032" cy="123.615" rx="2.69933" ry="2.69937" fill="#F4F4F4"/>
<ellipse cx="61.1992" cy="104.322" rx="0.753908" ry="0.753918" fill="#99BAD4"/>
<ellipse cx="61.3262" cy="113.718" rx="0.753908" ry="0.753918" fill="#99BAD4"/>
<ellipse cx="61.1895" cy="123.614" rx="0.753908" ry="0.753918" fill="#99BAD4"/>
<ellipse cx="62.957" cy="104.321" rx="0.753908" ry="0.753918" fill="#99BAD4"/>
<ellipse cx="63.082" cy="113.718" rx="0.753908" ry="0.753918" fill="#99BAD4"/>
<ellipse cx="62.9473" cy="123.614" rx="0.753908" ry="0.753918" fill="#99BAD4"/>
<path d="M88.1444 111.203C85.8424 101.157 91.2617 70.9656 94.2591 57.1254L110.086 55.9102C111.045 70.628 112.675 102.292 111.524 111.203C110.373 120.115 104.33 123.693 101.453 124.369C97.9759 124.166 90.4464 121.249 88.1444 111.203Z" fill="#FBDCB2" stroke="#EAB37D" stroke-width="1.25907"/>
<g filter="url(#filter2_d_86_2145)">
<path d="M87.9258 49.7549H115.682C115.682 56.1836 110.47 61.3952 104.042 61.3952H99.5661C93.1373 61.3952 87.9258 56.1836 87.9258 49.7549Z" fill="url(#paint3_linear_86_2145)"/>
<path d="M87.9258 49.7549H115.682C115.682 56.1836 110.47 61.3952 104.042 61.3952H99.5661C93.1373 61.3952 87.9258 56.1836 87.9258 49.7549Z" stroke="#EAB37D" stroke-width="1.25907"/>
</g>
<path d="M116.908 52.8822H84.6332C82.8434 52.8822 81.3926 51.4313 81.3926 49.6416V36.1781C81.3926 33.9295 82.3943 31.7977 84.1254 30.3625L95.6281 20.8259C96.2051 20.3475 96.539 19.6369 96.539 18.8874V3.95515C96.539 2.56442 97.6664 1.43701 99.0572 1.43701H103.338C104.728 1.43701 105.856 2.56442 105.856 3.95515V18.7849C105.856 19.5925 106.243 20.3511 106.897 20.8247L117.56 28.5434C119.523 29.9641 120.685 32.2399 120.685 34.6627V49.105C120.685 51.1911 118.994 52.8822 116.908 52.8822Z" fill="#939393" stroke="#4F4F4F" stroke-width="1.25907"/>
<path d="M103.864 28.3975H99.2755C98.2912 28.3975 97.3457 28.7817 96.6404 29.4684L89.5488 36.3735V45.4274H110.743C112.134 45.4274 113.261 44.3 113.261 42.9093V34.8677C113.261 34.46 113.064 34.0775 112.731 33.8414L106.052 29.0956C105.413 28.6414 104.648 28.3975 103.864 28.3975Z" fill="white" stroke="#585858" stroke-width="1.25907"/>
<g filter="url(#filter3_d_86_2145)">
<path d="M103 40.6893C103 38.6032 104.691 36.9121 106.777 36.9121H107.69C109.776 36.9121 111.467 38.6032 111.467 40.6893V46.0343C111.467 47.425 110.34 48.5524 108.949 48.5524H105.518C104.127 48.5524 103 47.425 103 46.0343V40.6893Z" fill="url(#paint4_linear_86_2145)"/>
</g>
<g filter="url(#filter4_d_86_2145)">
<path d="M95.5215 39.4051C95.5215 37.319 97.2126 35.6279 99.2987 35.6279H100.212C102.298 35.6279 103.989 37.319 103.989 39.4051V46.3078C103.989 47.6985 102.862 48.8259 101.471 48.8259H98.0396C96.6489 48.8259 95.5215 47.6985 95.5215 46.3078V39.4051Z" fill="url(#paint5_linear_86_2145)"/>
</g>
<g filter="url(#filter5_d_86_2145)">
<path d="M88.5469 38.1135C88.5469 35.4412 90.7132 33.2749 93.3854 33.2749C95.3896 33.2749 97.0143 34.8996 97.0143 36.9038V46.7574C97.0143 48.1482 95.8869 49.2756 94.4962 49.2756H91.065C89.6743 49.2756 88.5469 48.1482 88.5469 46.7574V38.1135Z" fill="url(#paint6_linear_86_2145)"/>
</g>
<rect x="98.4082" y="7.58154" width="2.35931" height="10.3331" rx="1.17965" fill="#D9D9D9"/>
<rect x="82.6973" y="35.0947" width="2.35931" height="10.3331" rx="1.17965" fill="#D9D9D9"/>
<rect x="82.6973" y="46.874" width="2.48513" height="2.88087" rx="1.24256" fill="#D9D9D9"/>
<rect width="2.48513" height="18.2063" rx="1.24256" transform="matrix(0.994888 0.100986 -0.100983 0.994888 91.3887 85.0825)" fill="#FFF0DA"/>
<rect x="97.3828" y="40.2231" width="2.48513" height="7.63964" rx="1.24256" transform="rotate(0.855949 97.3828 40.2231)" fill="#FFF0DA"/>
<rect x="116.57" y="36.6191" width="2.66963" height="3.09476" rx="1.33481" fill="#D9D9D9"/>
<defs>
<filter id="filter0_d_86_2145" x="59.1719" y="76.7637" width="32.5234" height="32.794" filterUnits="userSpaceOnUse" color-interpolation-filters="sRGB">
<feFlood flood-opacity="0" result="BackgroundImageFix"/>
<feColorMatrix in="SourceAlpha" type="matrix" values="0 0 0 0 0 0 0 0 0 0 0 0 0 0 0 0 0 0 127 0" result="hardAlpha"/>
<feOffset dx="-1.35254" dy="2.70509"/>
<feGaussianBlur stdDeviation="0.676272"/>
<feComposite in2="hardAlpha" operator="out"/>
<feColorMatrix type="matrix" values="0 0 0 0 0.571875 0 0 0 0 0.678496 0 0 0 0 0.7625 0 0 0 0.44 0"/>
<feBlend mode="normal" in2="BackgroundImageFix" result="effect1_dropShadow_86_2145"/>
<feBlend mode="normal" in="SourceGraphic" in2="effect1_dropShadow_86_2145" result="shape"/>
</filter>
<filter id="filter1_d_86_2145" x="38.0703" y="77.0864" width="24.5567" height="33.4732" filterUnits="userSpaceOnUse" color-interpolation-filters="sRGB">
<feFlood flood-opacity="0" result="BackgroundImageFix"/>
<feColorMatrix in="SourceAlpha" type="matrix" values="0 0 0 0 0 0 0 0 0 0 0 0 0 0 0 0 0 0 127 0" result="hardAlpha"/>
<feOffset dx="-1.35254" dy="2.70509"/>
<feGaussianBlur stdDeviation="0.676272"/>
<feComposite in2="hardAlpha" operator="out"/>
<feColorMatrix type="matrix" values="0 0 0 0 0.571875 0 0 0 0 0.678496 0 0 0 0 0.7625 0 0 0 0.44 0"/>
<feBlend mode="normal" in2="BackgroundImageFix" result="effect1_dropShadow_86_2145"/>
<feBlend mode="normal" in="SourceGraphic" in2="effect1_dropShadow_86_2145" result="shape"/>
</filter>
<filter id="filter2_d_86_2145" x="84.7787" y="46.6074" width="34.0519" height="17.9357" filterUnits="userSpaceOnUse" color-interpolation-filters="sRGB">
<feFlood flood-opacity="0" result="BackgroundImageFix"/>
<feColorMatrix in="SourceAlpha" type="matrix" values="0 0 0 0 0 0 0 0 0 0 0 0 0 0 0 0 0 0 127 0" result="hardAlpha"/>
<feOffset/>
<feGaussianBlur stdDeviation="1.25907"/>
<feComposite in2="hardAlpha" operator="out"/>
<feColorMatrix type="matrix" values="0 0 0 0 0.670833 0 0 0 0 0.394674 0 0 0 0 0.245972 0 0 0 0.18 0"/>
<feBlend mode="normal" in2="BackgroundImageFix" result="effect1_dropShadow_86_2145"/>
<feBlend mode="normal" in="SourceGraphic" in2="effect1_dropShadow_86_2145" result="shape"/>
</filter>
<filter id="filter3_d_86_2145" x="103" y="36.9121" width="8.4668" height="12.8992" filterUnits="userSpaceOnUse" color-interpolation-filters="sRGB">
<feFlood flood-opacity="0" result="BackgroundImageFix"/>
<feColorMatrix in="SourceAlpha" type="matrix" values="0 0 0 0 0 0 0 0 0 0 0 0 0 0 0 0 0 0 127 0" result="hardAlpha"/>
<feOffset dy="1.25907"/>
<feComposite in2="hardAlpha" operator="out"/>
<feColorMatrix type="matrix" values="0 0 0 0 0 0 0 0 0 0 0 0 0 0 0 0 0 0 0.2 0"/>
<feBlend mode="normal" in2="BackgroundImageFix" result="effect1_dropShadow_86_2145"/>
<feBlend mode="normal" in="SourceGraphic" in2="effect1_dropShadow_86_2145" result="shape"/>
</filter>
<filter id="filter4_d_86_2145" x="95.5215" y="35.6279" width="8.4668" height="14.4573" filterUnits="userSpaceOnUse" color-interpolation-filters="sRGB">
<feFlood flood-opacity="0" result="BackgroundImageFix"/>
<feColorMatrix in="SourceAlpha" type="matrix" values="0 0 0 0 0 0 0 0 0 0 0 0 0 0 0 0 0 0 127 0" result="hardAlpha"/>
<feOffset dy="1.25907"/>
<feComposite in2="hardAlpha" operator="out"/>
<feColorMatrix type="matrix" values="0 0 0 0 0 0 0 0 0 0 0 0 0 0 0 0 0 0 0.2 0"/>
<feBlend mode="normal" in2="BackgroundImageFix" result="effect1_dropShadow_86_2145"/>
<feBlend mode="normal" in="SourceGraphic" in2="effect1_dropShadow_86_2145" result="shape"/>
</filter>
<filter id="filter5_d_86_2145" x="88.5469" y="33.2749" width="8.4668" height="17.2596" filterUnits="userSpaceOnUse" color-interpolation-filters="sRGB">
<feFlood flood-opacity="0" result="BackgroundImageFix"/>
<feColorMatrix in="SourceAlpha" type="matrix" values="0 0 0 0 0 0 0 0 0 0 0 0 0 0 0 0 0 0 127 0" result="hardAlpha"/>
<feOffset dy="1.25907"/>
<feComposite in2="hardAlpha" operator="out"/>
<feColorMatrix type="matrix" values="0 0 0 0 0 0 0 0 0 0 0 0 0 0 0 0 0 0 0.2 0"/>
<feBlend mode="normal" in2="BackgroundImageFix" result="effect1_dropShadow_86_2145"/>
<feBlend mode="normal" in="SourceGraphic" in2="effect1_dropShadow_86_2145" result="shape"/>
</filter>
<linearGradient id="paint0_linear_86_2145" x1="55.9384" y1="138.161" x2="55.9384" y2="170.563" gradientUnits="userSpaceOnUse">
<stop stop-color="#99BAD5"/>
<stop offset="1" stop-color="#7AABD1"/>
</linearGradient>
<linearGradient id="paint1_linear_86_2145" x1="65.1536" y1="72.9916" x2="65.1536" y2="91.7592" gradientUnits="userSpaceOnUse">
<stop stop-color="#C78A45"/>
<stop offset="0.505" stop-color="#EAC891"/>
</linearGradient>
<radialGradient id="paint2_radial_86_2145" cx="0" cy="0" r="1" gradientUnits="userSpaceOnUse" gradientTransform="translate(62.52 53.5771) rotate(86.7499) scale(20.8065 19.8617)">
<stop stop-color="#FFE9C7"/>
<stop offset="1" stop-color="#FFDBB1"/>
</radialGradient>
<linearGradient id="paint3_linear_86_2145" x1="101.804" y1="49.7549" x2="101.804" y2="61.3952" gradientUnits="userSpaceOnUse">
<stop stop-color="#FFCA96"/>
<stop offset="1" stop-color="#FBDFB2"/>
</linearGradient>
<linearGradient id="paint4_linear_86_2145" x1="103.699" y1="41.2221" x2="111.008" y2="41.2221" gradientUnits="userSpaceOnUse">
<stop stop-color="#FBDFB2"/>
<stop offset="1" stop-color="#F7C498"/>
</linearGradient>
<linearGradient id="paint5_linear_86_2145" x1="96.2203" y1="40.5147" x2="103.529" y2="40.5147" gradientUnits="userSpaceOnUse">
<stop stop-color="#FBDFB2"/>
<stop offset="1" stop-color="#F7C498"/>
</linearGradient>
<linearGradient id="paint6_linear_86_2145" x1="89.2457" y1="39.1994" x2="96.5546" y2="39.1994" gradientUnits="userSpaceOnUse">
<stop stop-color="#FBDFB2"/>
<stop offset="1" stop-color="#F7C498"/>
</linearGradient>
</defs>
</svg>
