<svg width="176" height="176" viewBox="0 0 176 176" fill="none" xmlns="http://www.w3.org/2000/svg">
<path d="M51.2672 89.8103C57.0963 74.4584 54.5798 74.9269 56.2298 69.4307H124.422L126.173 74.1313C131.401 88.1711 141.052 101.787 141.351 116.765C141.452 121.821 141.003 127.066 140.231 131.759C138.665 141.284 132.898 149.493 124.805 154.753C92.8628 175.512 55.0065 161.151 44.9071 139.998C37.6811 124.863 41.2952 110.578 45.8675 101.172C47.7002 97.4017 49.7792 93.7291 51.2672 89.8103Z" fill="#E3F3FF" stroke="#89B2D1" stroke-width="2.48792"/>
<path d="M45.272 125.526L45.2566 125.467L45.2345 125.411C42.7481 119.086 42.346 113.013 44.4044 107.719C46.4529 102.451 51.0029 97.7881 58.7567 94.3826C66.2307 92.3222 72.6092 92.2471 77.8396 94.3307C83.0494 96.4061 87.2778 100.687 90.34 107.666C92.4997 114.366 92.5144 120.455 90.2797 125.542C88.0446 130.63 83.4907 134.87 76.2047 137.734C69.8816 140.22 63.0557 140.758 57.3795 138.89C51.7512 137.037 47.1793 132.8 45.272 125.526Z" fill="#EEF2F4" stroke="#9A9A9A" stroke-width="2.04794"/>
<path d="M70.0472 95.1694C70.2782 94.31 70.0364 93.1598 69.8324 92.2978C69.694 91.7127 69.9432 90.9218 69.9809 90.3224C70.0526 89.1826 70.1699 88.0156 70.574 86.9835" stroke="#2A955A" stroke-width="1.24396" stroke-linecap="round"/>
<path d="M63.667 110.161L63.157 110.762C62.9419 111.015 62.89 111.369 63.0231 111.673C63.1295 111.917 63.3411 112.098 63.5978 112.166L63.7728 112.212C64.2815 112.347 64.8199 112.147 65.1176 111.713L65.4399 111.244C65.5472 111.087 65.6036 110.902 65.6012 110.712C65.5958 110.273 65.2816 109.9 64.8505 109.819L64.7066 109.792C64.319 109.719 63.9222 109.86 63.667 110.161Z" fill="#FF6512"/>
<path d="M69.6543 128.362L70.6803 127.37C70.8931 127.164 71.2171 127.125 71.4723 127.276L72.0106 127.592C72.2497 127.733 72.2286 128.086 71.9744 128.197C71.9532 128.206 71.933 128.217 71.9142 128.231L71.3323 128.643C70.9401 128.921 70.6285 129.297 70.4291 129.735C70.1085 130.438 70.1022 131.245 70.412 131.953L70.4814 132.112C70.6436 132.483 70.8766 132.818 71.1674 133.1L72.0823 133.986C72.1878 134.088 72.2724 134.21 72.3312 134.344C72.5809 134.915 72.3204 135.58 71.7494 135.83L69.4952 136.816C69.191 136.949 68.8354 136.859 68.6303 136.598C68.3582 136.252 68.4533 135.745 68.8324 135.521L69.314 135.236C69.8441 134.923 70.057 134.263 69.8103 133.699L69.7213 133.495L69.0982 132.07C68.8123 131.416 68.7331 130.691 68.8712 129.99L68.9297 129.694C69.0298 129.187 69.2826 128.722 69.6543 128.362Z" fill="black"/>
<path d="M45.3815 120.414L41.93 121.559C41.6792 121.642 41.4795 121.834 41.3864 122.081L41.3192 122.286C41.2509 122.495 41.3298 122.724 41.5124 122.846C41.5634 122.88 41.6203 122.904 41.6803 122.917L41.8115 122.946C42.0079 122.988 42.212 122.981 42.4048 122.924L43.1902 122.693L44.6081 122.226L45.4757 121.978C46.449 121.698 47.4636 121.591 48.4738 121.661L48.6543 121.673C49.0736 121.754 49.9848 121.883 50.2749 121.757L50.746 121.551C51.0113 121.435 51.1843 121.174 51.1885 120.885C51.1915 120.679 51.109 120.482 50.9609 120.341L50.8546 120.239C50.6731 120.065 50.4365 119.96 50.1858 119.942L49.298 119.88C49.1087 119.867 48.9187 119.869 48.7297 119.886L47.2894 120.016C46.6403 120.075 46.0002 120.208 45.3815 120.414Z" fill="black"/>
<path d="M69.1002 90.3649L70.0481 86.8541C70.117 86.599 70.2974 86.3887 70.539 86.2818L70.7398 86.2031C70.9443 86.123 71.1771 86.1889 71.3093 86.3643C71.3462 86.4133 71.3736 86.4688 71.39 86.5279L71.426 86.6572C71.4798 86.8509 71.484 87.0551 71.4381 87.2508L71.2514 88.048L70.8661 89.4901L70.7068 90.1938C70.4568 91.2982 70.4013 92.4377 70.5429 93.5611C70.6472 93.9752 70.8282 94.8775 70.718 95.1743L70.539 95.6563C70.4382 95.9278 70.188 96.1152 69.8991 96.1358C69.6946 96.1504 69.4931 96.0792 69.3431 95.9394L69.2355 95.839C69.0516 95.6677 68.9336 95.4374 68.9017 95.1881L68.789 94.3053C68.765 94.117 68.7562 93.9272 68.7626 93.7375L68.8114 92.2922C68.8334 91.6409 68.9303 90.9942 69.1002 90.3649Z" fill="black"/>
<path d="M52.5781 96.0874C52.6617 96.2756 52.3835 96.7714 52.9851 98.1265" stroke="#7F8998" stroke-width="1.86594" stroke-linecap="round"/>
<path d="M55.9746 95.8164C55.9424 95.9539 55.8201 96.4762 55.5882 97.466" stroke="#7F8998" stroke-width="1.86594" stroke-linecap="round"/>
<path d="M49.9043 99.2827C50.0352 99.3161 50.5326 99.4428 51.475 99.683" stroke="#7F8998" stroke-width="1.86595" stroke-linecap="round"/>
<path d="M63.9043 104.698L64.7109 105.347" stroke="#060606" stroke-width="1.24396" stroke-linecap="round"/>
<path d="M87.4141 99.5962C87.238 99.703 86.7109 99.4902 85.4433 100.26" stroke="#7F8998" stroke-width="1.86594" stroke-linecap="round"/>
<path d="M88.1191 102.933C87.9787 102.918 87.445 102.863 86.4338 102.759" stroke="#7F8998" stroke-width="1.86594" stroke-linecap="round"/>
<path d="M83.9043 97.3521C83.8879 97.4861 83.8255 97.9956 83.7073 98.9609" stroke="#7F8998" stroke-width="1.86594" stroke-linecap="round"/>
<path d="M58.2637 110.749L59.0329 111.442" stroke="#060606" stroke-width="1.24396" stroke-linecap="round"/>
<ellipse cx="5.49748" cy="5.49754" rx="5.49748" ry="5.49754" transform="matrix(0.249681 0.968327 0.968332 -0.249675 52.3203 119.293)" fill="white" fill-opacity="0.8"/>
<path d="M85.3899 110.486L84.7796 111.575C84.5931 111.909 84.1729 112.029 83.8381 111.845C83.4629 111.64 83.3607 111.147 83.6232 110.809L84.2124 110.05L84.6269 109.417C84.897 109.005 85.2461 108.65 85.654 108.374L85.7887 108.283C86.1717 108.023 86.5996 107.837 87.0506 107.733L87.7554 107.572C87.9401 107.53 88.1292 107.51 88.3187 107.512L88.7996 107.519C89.3108 107.526 89.7903 107.272 90.072 106.846L90.0904 106.818C90.2391 106.593 90.4502 106.416 90.6979 106.309L91.0298 106.165C91.2418 106.073 91.4854 106.092 91.681 106.215C91.8897 106.346 92.0143 106.577 92.0094 106.823L91.9797 108.304C91.975 108.537 91.9141 108.765 91.802 108.97L91.6714 109.208C91.556 109.418 91.3563 109.569 91.1224 109.623C90.9395 109.665 90.7479 109.644 90.5781 109.564L89.9491 109.269C89.8091 109.203 89.6639 109.149 89.515 109.106L89.0288 108.968C88.5648 108.837 88.0751 108.824 87.605 108.932C87.2204 109.02 86.858 109.186 86.5406 109.42L85.9347 109.868C85.7113 110.033 85.5256 110.243 85.3899 110.486Z" fill="black"/>
<rect x="54.6426" y="64.5679" width="72.0644" height="4.92585" rx="2.46293" fill="black"/>
<path d="M43.002 64.7271H57.8483C58.484 64.7271 58.9993 65.2424 58.9993 65.878C58.9993 67.785 57.4534 69.331 55.5463 69.331H43.002V64.7271Z" fill="#939393" stroke="#4F4F4F" stroke-width="1.25971"/>
<path d="M14.4043 65.2302C14.4043 63.7995 15.608 62.6636 17.0363 62.7464L43.8169 64.2997C45.1327 64.376 46.1607 65.4654 46.1607 66.7835V67.4852C46.1607 68.8101 45.1224 69.9026 43.7992 69.9699L17.0186 71.3323C15.5968 71.4046 14.4043 70.2713 14.4043 68.8476V65.2302Z" fill="#A88A68" stroke="#705435" stroke-width="1.24396"/>
<rect x="95.8789" y="75.1685" width="27.0186" height="2.41745" rx="1.20872" fill="#7CB4E1"/>
<rect x="95.8789" y="87.8267" width="32.777" height="2.41745" rx="1.20872" fill="#7CB4E1"/>
<rect x="102.74" y="97.1562" width="23.8704" height="2.41748" rx="1.20874" transform="rotate(-90 102.74 97.1562)" fill="#7CB4E1"/>
<rect x="118.385" y="97.1558" width="23.8704" height="2.41748" rx="1.20874" transform="rotate(-90 118.385 97.1558)" fill="#7CB4E1"/>
<rect x="110.25" y="107.301" width="34.0163" height="2.41748" rx="1.20874" transform="rotate(-90 110.25 107.301)" fill="#7CB4E1"/>
<rect x="85.9414" y="81.498" width="39.8891" height="2.41745" rx="1.20872" fill="#7CB4E1"/>
<rect x="18.957" y="64.064" width="5.52421" height="3.05807" rx="1.52903" transform="rotate(91.735 18.957 64.064)" fill="white" fill-opacity="0.7"/>
<path d="M87.0813 32.9005L87.0921 32.8317L87.0947 32.7622C87.3634 25.6248 89.5331 19.6183 93.7325 15.399C97.9098 11.2019 104.24 8.62795 113.14 8.61195C121.208 9.77636 127.371 12.3899 131.519 16.587C135.65 20.7661 137.918 26.6542 137.929 34.662C137.187 42.022 134.638 47.8798 130.358 51.8253C126.076 55.7717 119.917 57.9374 111.695 57.6279C104.559 57.3592 97.7667 55.0035 93.0968 50.8226C88.4701 46.6803 85.8575 40.6936 87.0813 32.9005Z" fill="#EEF2F4" stroke="#9A9A9A" stroke-width="2.35258"/>
<path d="M69.7452 21.8508C71.5699 20.6389 74.0236 21.8456 74.1775 24.0306L74.3571 26.5796L76.3594 28.167C78.0759 29.5278 77.6864 32.2343 75.6559 33.0559L73.2872 34.0144L72.3962 36.4092C71.6324 38.4622 68.9379 38.9281 67.5291 37.2509L65.8855 35.2943L63.3325 35.187C61.144 35.095 59.8682 32.6764 61.028 30.8183L62.381 28.6506L61.6942 26.1894C61.1054 24.0796 63.0114 22.1189 65.137 22.6477L67.6167 23.2646L69.7452 21.8508Z" fill="#FF6512"/>
<path d="M75.0843 11.3596C75.3792 10.2757 76.7338 9.9127 77.5312 10.704L78.4614 11.6271L79.7703 11.5635C80.8924 11.509 81.6562 12.6852 81.15 13.688L80.5595 14.8579L81.0245 16.0831C81.4231 17.1334 80.5406 18.2233 79.4303 18.0518L78.1352 17.8517L77.1136 18.6725C76.2379 19.3762 74.9286 18.8736 74.7487 17.7647L74.5387 16.4712L73.4424 15.7533C72.5026 15.1378 72.576 13.7374 73.575 13.2236L74.7403 12.6242L75.0843 11.3596Z" fill="#FFC812"/>
<path d="M99.2679 46.9951C94.6857 46.9951 90.185 48.8706 88.5996 53.6266" stroke="#2A955A" stroke-width="1.42901" stroke-linecap="round"/>
<path d="M112.823 50.1665C110.451 50.1665 109.069 52.1728 107.12 53.274C105.348 54.2755 103.02 55.3794 103.02 57.663" stroke="#2A955A" stroke-width="1.42901" stroke-linecap="round"/>
<path d="M128.683 30.5609C127.077 28.7942 127.241 26.5763 127.241 24.3459C127.241 22.175 126.953 20.0434 126.953 17.8745" stroke="#2A955A" stroke-width="1.42901" stroke-linecap="round"/>
<path d="M87.4478 26.5248C87.4189 23.2084 86.8711 20.0372 86.8711 16.7217" stroke="#2A955A" stroke-width="1.42901" stroke-linecap="round"/>
<path d="M106.33 25.7952L106.289 25.8754C106.125 26.1959 106.085 26.5661 106.178 26.9141C106.383 27.6784 107.161 28.1388 107.929 27.95L108.23 27.876C108.554 27.7964 108.849 27.627 109.081 27.3873L109.238 27.2239C109.611 26.8389 109.733 26.2767 109.556 25.7717C109.335 25.1443 108.707 24.7556 108.047 24.838L107.622 24.891C107.069 24.9601 106.585 25.2986 106.33 25.7952Z" fill="#FF6512"/>
<path d="M104.387 21.4751L104.329 22.6633" stroke="#060606" stroke-width="1.42901" stroke-linecap="round"/>
<path d="M112.449 21.874L112.457 23.0636" stroke="#060606" stroke-width="1.42901" stroke-linecap="round"/>
<path d="M95.447 46.7568L98.3496 46.3564C98.8699 46.2847 99.3337 46.6889 99.3337 47.2142C99.3337 47.4967 99.1958 47.7614 98.9644 47.9235L98.9053 47.9648C98.7365 48.083 98.5354 48.1464 98.3294 48.1464H96.7775C96.6483 48.1464 96.5196 48.1639 96.3951 48.1985L94.1069 48.8341L92.627 49.437C92.3806 49.5374 92.167 49.7046 92.0105 49.9199L90.7464 51.658C90.6491 51.7917 90.5758 51.9413 90.5297 52.1001L90.193 53.2599C90.0602 53.7175 89.708 54.0787 89.2539 54.2232L88.8116 54.3639C88.587 54.4354 88.3465 54.4396 88.1195 54.3761L87.6078 54.2328C87.1575 54.1067 86.9279 53.6068 87.1256 53.183C87.1931 53.0384 87.3046 52.9187 87.4442 52.8412L88.0404 52.51C88.3172 52.3562 88.5351 52.1148 88.6598 51.8237L89.0173 50.9896C89.0632 50.8826 89.1219 50.7816 89.1923 50.6889L90.4664 49.0094C90.5546 48.8932 90.6599 48.7912 90.7789 48.7069L92.0528 47.8046C92.1833 47.7122 92.3285 47.6423 92.4821 47.5979L95.2457 46.7995C95.3117 46.7805 95.379 46.7662 95.447 46.7568Z" fill="black"/>
<path d="M110.355 49.9716L112.361 49.6587C112.623 49.6178 112.883 49.745 113.011 49.9771L113.02 49.9937C113.157 50.2404 113.106 50.5485 112.897 50.7379C112.831 50.7976 112.753 50.8421 112.669 50.8684L111.683 51.1744L110.456 51.5306C110.23 51.596 110.025 51.7158 109.857 51.8795L108.222 53.4723C108.166 53.5273 108.105 53.5775 108.04 53.6225L106.314 54.8212L104.865 55.9896C104.784 56.0546 104.711 56.1283 104.646 56.2092L104.231 56.728C104.038 56.9691 103.933 57.2687 103.933 57.5774V57.7535C103.933 57.9535 103.864 58.1474 103.737 58.3022C103.573 58.5033 103.327 58.62 103.067 58.62H102.842C102.693 58.62 102.545 58.5937 102.404 58.5423L101.828 58.331C101.435 58.187 101.251 57.7368 101.43 57.3588C101.509 57.193 101.648 57.064 101.82 56.9987L102.08 56.8996C102.424 56.7686 102.702 56.508 102.856 56.1738L103.306 55.1948C103.418 54.9507 103.597 54.7431 103.821 54.5959L104.744 53.9921L105.959 52.9605L107.226 51.8601L108.506 50.894C108.564 50.8504 108.625 50.8113 108.689 50.7769L109.897 50.1257C110.04 50.0487 110.195 49.9966 110.355 49.9716Z" fill="black"/>
<path d="M86.748 15.9595L87.2295 23.2494L87.6421 27.1695" stroke="black" stroke-width="1.42901" stroke-linecap="round" stroke-linejoin="round"/>
<path d="M126.637 17.1987L127.187 24.0072L127.668 29.3715L129.181 31.0909" stroke="black" stroke-width="1.42901" stroke-linecap="round" stroke-linejoin="round"/>
<path d="M111.463 5.7251C111.464 5.96166 110.943 6.35543 110.953 8.05868" stroke="#7F8998" stroke-width="2.14351" stroke-linecap="round"/>
<path d="M115.168 7.00439C115.071 7.13426 114.702 7.62777 114.002 8.56283" stroke="#7F8998" stroke-width="2.14351" stroke-linecap="round"/>
<path d="M107.182 7.85986C107.304 7.95521 107.769 8.31753 108.651 9.00404" stroke="#7F8998" stroke-width="2.14351" stroke-linecap="round"/>
<path d="M141.281 41.0669C140.985 41.0155 140.641 40.4198 138.508 40.0494" stroke="#7F8998" stroke-width="2.14351" stroke-linecap="round"/>
<path d="M138.619 44.3916C138.484 44.2679 137.973 43.798 137.003 42.9077" stroke="#7F8998" stroke-width="2.14351" stroke-linecap="round"/>
<path d="M139.836 36.417C139.682 36.5151 139.095 36.8878 137.984 37.594" stroke="#7F8998" stroke-width="2.14351" stroke-linecap="round"/>
<rect width="2.72964" height="3.51293" rx="1.36482" transform="matrix(0.87901 0.476803 -0.476814 0.879004 63.7539 28.5654)" fill="white" fill-opacity="0.7"/>
<rect width="2.72964" height="2.22162" rx="1.11081" transform="matrix(0.8849 -0.465781 0.465791 0.884895 62.3906 26.3091)" fill="white" fill-opacity="0.7"/>
<rect width="2.72964" height="2.22162" rx="1.11081" transform="matrix(0.8849 -0.465781 0.465791 0.884895 74.4824 13.5669)" fill="white" fill-opacity="0.7"/>
<rect x="61.2148" y="66.4482" width="59.3067" height="1.16421" rx="0.582103" fill="#BFE2FF"/>
<rect x="47.1582" y="65.8652" width="10.3271" height="1.16421" rx="0.582103" fill="white" fill-opacity="0.4"/>
<g filter="url(#filter0_d_109_928)">
<path d="M129.214 138.034C127.782 152.436 119.207 161.498 103.154 160.894C89.2129 160.369 76.2868 151.689 78.7297 136.134C79.2546 122.193 87.2325 112.136 104.646 112.136C120.319 114.375 129.214 122.335 129.214 138.034Z" fill="#EEF2F4"/>
<path d="M79.7413 136.293L79.7507 136.233L79.753 136.172C80.0086 129.381 82.0736 123.655 86.0804 119.629C90.068 115.623 96.1048 113.174 104.574 113.16C112.247 114.266 118.121 116.753 122.079 120.757C126.021 124.746 128.18 130.362 128.19 137.984C127.484 144.987 125.058 150.573 120.973 154.338C116.887 158.104 111.015 160.165 103.192 159.87C96.4029 159.615 89.933 157.373 85.4808 153.387C81.0662 149.435 78.5747 143.721 79.7413 136.293Z" stroke="#9A9A9A" stroke-width="2.04794"/>
</g>
<path d="M130.637 128.201C132.225 127.146 134.361 128.196 134.495 130.098L134.652 132.317L136.395 133.699C137.889 134.884 137.55 137.24 135.782 137.955L133.72 138.789L132.945 140.874C132.28 142.661 129.934 143.067 128.708 141.607L127.277 139.904L125.055 139.81C123.15 139.73 122.039 137.625 123.049 136.007L124.227 134.12L123.629 131.978C123.116 130.141 124.775 128.434 126.626 128.895L128.784 129.432L130.637 128.201Z" fill="#EB5200"/>
<path d="M87.8965 153.585C84.8905 153.836 82.1479 154.744 79.0938 154.744" stroke="#2A955A" stroke-width="1.24396" stroke-linecap="round"/>
<path d="M93.4594 156.366C93.1208 157.974 88.5401 158.609 87.1276 158.901C86.142 159.105 85.2007 159.609 84.1934 159.609" stroke="#2A955A" stroke-width="1.24396" stroke-linecap="round"/>
<path d="M101.107 128.026C102.436 128.781 105.094 130.31 105.094 130.382C105.094 130.473 107.631 131.062 107.994 131.243C108.284 131.388 111.014 132.028 112.343 132.33L114.065 132.874" stroke="black" stroke-width="1.24396" stroke-linecap="round"/>
<path d="M114.566 125.489L115.744 126.712L117.375 127.709" stroke="black" stroke-width="1.24396" stroke-linecap="round"/>
<path d="M101.107 121.593C101.878 121.714 103.472 121.955 103.69 121.955C103.907 121.955 104.717 121.714 105.094 121.593" stroke="black" stroke-width="1.24396" stroke-linecap="round"/>
<path d="M86.1113 153.441L87.4832 153.064C87.547 153.047 87.6129 153.038 87.6791 153.038H87.7224C88.011 153.038 88.268 153.22 88.3633 153.493L88.4072 153.618C88.4732 153.807 88.4168 154.016 88.2651 154.146C88.2248 154.181 88.1793 154.208 88.13 154.228C87.6615 154.417 86.8112 154.767 86.642 154.868C86.4635 154.975 85.4965 155.121 85.0353 155.18H81.7324H81.5192C80.9747 155.18 80.4573 155.418 80.103 155.832L79.9717 155.985C79.8966 156.073 79.8047 156.144 79.7014 156.196C79.4134 156.34 79.0693 156.312 78.808 156.124L78.689 156.038C78.34 155.787 78.1678 155.357 78.247 154.934L78.3253 154.517C78.3642 154.309 78.4648 154.119 78.614 153.97C78.8103 153.773 79.0765 153.663 79.3542 153.663H80.6613H82.8036H84.4649C85.0211 153.663 85.5749 153.588 86.1113 153.441Z" fill="black"/>
<path d="M83.8272 160.464L83.6071 160.06C83.4928 159.851 83.4671 159.604 83.5357 159.376C83.6339 159.048 83.9105 158.805 84.248 158.75L85.3153 158.577C85.5148 158.544 85.7098 158.489 85.8966 158.412L86.0926 158.33C86.6321 158.107 87.2104 157.992 87.7943 157.992H88.3861C88.7403 157.992 89.0936 157.961 89.4433 157.905C89.8589 157.837 90.3148 157.769 90.4358 157.769C90.5477 157.769 90.8993 157.664 91.2376 157.552C91.5614 157.446 91.7748 157.14 91.7748 156.799C91.7748 156.565 91.8766 156.342 92.0538 156.188L92.0948 156.153C92.3149 155.962 92.6118 155.886 92.8965 155.947L93.5574 156.088C93.647 156.108 93.7302 156.149 93.7991 156.21C93.9534 156.345 94.0176 156.556 93.9648 156.754L93.8129 157.323C93.7355 157.614 93.5719 157.874 93.3438 158.069L92.9552 158.402C92.6184 158.691 92.2243 158.905 91.7988 159.03L91.5364 159.107C91.1321 159.226 90.7128 159.287 90.2914 159.287H89.703C89.182 159.287 88.6629 159.352 88.1582 159.481L87.3887 159.679C87.2486 159.715 87.1044 159.733 86.9597 159.733C86.4731 159.733 86.0091 159.938 85.6818 160.298L85.3519 160.661C85.3195 160.697 85.2921 160.737 85.2706 160.78C85.1406 161.04 84.8246 161.145 84.5646 161.015L84.2198 160.843C84.0533 160.759 83.9163 160.627 83.8272 160.464Z" fill="black"/>
<path d="M118.172 138.581H114.973C114.769 138.581 114.577 138.68 114.457 138.846L114.402 138.923C114.236 139.154 114.279 139.474 114.501 139.653C114.596 139.729 114.714 139.771 114.836 139.771H116.341H118.172L119.393 139.605C119.921 139.533 120.443 139.423 120.956 139.277L120.988 139.267C121.733 139.055 122.453 138.765 123.138 138.404L123.756 138.078C124.198 137.849 125.083 137.364 125.083 137.254C125.083 137.178 125.299 136.97 125.508 136.787C125.671 136.644 125.77 136.442 125.77 136.226V136.057C125.77 135.758 125.527 135.515 125.227 135.515C125.133 135.515 125.04 135.539 124.958 135.586L124.122 136.064L122.52 137.025L121.744 137.401C121.255 137.638 120.75 137.84 120.23 138C119.352 138.271 118.31 138.581 118.172 138.581Z" fill="black"/>
<path d="M125.083 144.038L123.422 145.101C123.356 145.143 123.297 145.195 123.246 145.255L123.074 145.46C122.917 145.647 122.927 145.922 123.096 146.098C123.232 146.24 123.442 146.283 123.624 146.208L124.022 146.041C124.089 146.013 124.152 145.979 124.212 145.939L125.367 145.165L126.494 144.581L127.83 143.704L128.631 143.109C129.07 142.783 129.487 142.427 129.865 142.032C130.129 141.755 130.39 141.473 130.501 141.325C130.63 141.153 130.869 140.891 131.079 140.671C131.272 140.469 131.412 140.222 131.477 139.951L131.543 139.673C131.571 139.558 131.563 139.437 131.521 139.327C131.434 139.098 131.216 138.947 130.971 138.947H130.958C130.824 138.947 130.693 138.992 130.587 139.074L130.418 139.205C130.307 139.291 130.211 139.395 130.135 139.514L129.749 140.115C129.445 140.558 129.075 140.951 128.651 141.28L128.577 141.338C128.302 141.552 128.048 141.791 127.81 142.044C127.429 142.449 126.959 142.921 126.786 142.995C126.553 143.095 125.554 143.732 125.083 144.038Z" fill="black"/>
<path d="M114.045 113.283C113.937 113.458 113.371 113.509 112.593 114.771" stroke="#7F8998" stroke-width="1.86594" stroke-linecap="round"/>
<path d="M116.189 115.933C116.058 115.984 115.558 116.178 114.61 116.547" stroke="#7F8998" stroke-width="1.86594" stroke-linecap="round"/>
<path d="M109.896 112.885C109.943 113.012 110.12 113.494 110.454 114.407" stroke="#7F8998" stroke-width="1.86594" stroke-linecap="round"/>
<path d="M77.9961 141.81C78.2019 141.803 78.5569 142.247 80.0388 142.198" stroke="#7F8998" stroke-width="1.86594" stroke-linecap="round"/>
<path d="M79.0234 138.557C79.1387 138.638 79.5769 138.948 80.4072 139.534" stroke="#7F8998" stroke-width="1.86594" stroke-linecap="round"/>
<path d="M79.9531 145.486C80.0332 145.377 80.3375 144.964 80.914 144.18" stroke="#7F8998" stroke-width="1.86594" stroke-linecap="round"/>
<rect width="2.37618" height="3.05803" rx="1.18809" transform="matrix(0.947249 -0.320498 0.320506 0.947246 123.742 131.148)" fill="white" fill-opacity="0.7"/>
<rect width="2.37617" height="1.93394" rx="0.966971" transform="matrix(0.8849 -0.465781 0.465791 0.884895 129.695 129.132)" fill="white" fill-opacity="0.7"/>
<ellipse cx="5.49747" cy="5.49755" rx="5.49747" ry="5.49755" transform="matrix(-0.159173 0.987251 0.987251 0.159169 85.0918 124.242)" fill="white" fill-opacity="0.8"/>
<ellipse cx="2.65741" cy="2.65745" rx="2.65741" ry="2.65745" transform="matrix(-0.159173 0.987251 0.987251 0.159169 117.41 128.737)" fill="white" fill-opacity="0.8"/>
<defs>
<filter id="filter0_d_109_928" x="76.3837" y="110.088" width="52.8292" height="50.8346" filterUnits="userSpaceOnUse" color-interpolation-filters="sRGB">
<feFlood flood-opacity="0" result="BackgroundImageFix"/>
<feColorMatrix in="SourceAlpha" type="matrix" values="0 0 0 0 0 0 0 0 0 0 0 0 0 0 0 0 0 0 127 0" result="hardAlpha"/>
<feOffset dx="-1.02397" dy="-1.02397"/>
<feGaussianBlur stdDeviation="0.511985"/>
<feComposite in2="hardAlpha" operator="out"/>
<feColorMatrix type="matrix" values="0 0 0 0 0.704375 0 0 0 0 0.766074 0 0 0 0 0.816667 0 0 0 0.2 0"/>
<feBlend mode="multiply" in2="BackgroundImageFix" result="effect1_dropShadow_109_928"/>
<feBlend mode="normal" in="SourceGraphic" in2="effect1_dropShadow_109_928" result="shape"/>
</filter>
</defs>
</svg>
