<svg width="24" height="24" viewBox="0 0 24 24" fill="none" xmlns="http://www.w3.org/2000/svg">
<path fill-rule="evenodd" clip-rule="evenodd" d="M18.25 9.5C18.0014 9.5 17.7629 9.40123 17.5871 9.22541C17.4113 9.0496 17.3125 8.81114 17.3125 8.5625V6.6875H15.4375C15.1889 6.6875 14.9504 6.58873 14.7746 6.41291C14.5988 6.2371 14.5 5.99864 14.5 5.75C14.5 5.50136 14.5988 5.2629 14.7746 5.08709C14.9504 4.91127 15.1889 4.8125 15.4375 4.8125H17.3125V2.9375C17.3125 2.68886 17.4113 2.4504 17.5871 2.27459C17.7629 2.09877 18.0014 2 18.25 2C18.4986 2 18.7371 2.09877 18.9129 2.27459C19.0887 2.4504 19.1875 2.68886 19.1875 2.9375V4.8125H21.0625C21.3111 4.8125 21.5496 4.91127 21.7254 5.08709C21.9012 5.2629 22 5.50136 22 5.75C22 5.99864 21.9012 6.2371 21.7254 6.41291C21.5496 6.58873 21.3111 6.6875 21.0625 6.6875H19.1875V8.5625C19.1875 8.81114 19.0887 9.0496 18.9129 9.22541C18.7371 9.40123 18.4986 9.5 18.25 9.5ZM5.75 18.875C5.58424 18.875 5.42527 18.8092 5.30806 18.6919C5.19085 18.5747 5.125 18.4158 5.125 18.25V5.75C5.125 5.58424 5.19085 5.42527 5.30806 5.30806C5.42527 5.19085 5.58424 5.125 5.75 5.125H11.0625C11.3111 5.125 11.5496 5.02623 11.7254 4.85041C11.9012 4.6746 12 4.43614 12 4.1875C12 3.93886 11.9012 3.7004 11.7254 3.52459C11.5496 3.34877 11.3111 3.25 11.0625 3.25H5.75C5.08696 3.25 4.45107 3.51339 3.98223 3.98223C3.51339 4.45107 3.25 5.08696 3.25 5.75V18.25C3.25 18.913 3.51339 19.5489 3.98223 20.0178C4.45107 20.4866 5.08696 20.75 5.75 20.75H18.25C18.913 20.75 19.5489 20.4866 20.0178 20.0178C20.4866 19.5489 20.75 18.913 20.75 18.25V12.9375C20.75 12.6889 20.6512 12.4504 20.4754 12.2746C20.2996 12.0988 20.0611 12 19.8125 12C19.5639 12 19.3254 12.0988 19.1496 12.2746C18.9738 12.4504 18.875 12.6889 18.875 12.9375V18.25C18.875 18.4158 18.8092 18.5747 18.6919 18.6919C18.5747 18.8092 18.4158 18.875 18.25 18.875H5.75Z" fill="#044637"/>
</svg>
