<svg width="25" height="24" viewBox="0 0 25 24" fill="none" xmlns="http://www.w3.org/2000/svg">
<circle cx="11.7523" cy="6.04333" r="3.73865" fill="#FFD95C" stroke="black"/>
<path d="M5.80469 15.0169V12.5743C5.80469 11.4332 6.29198 10.3465 7.14396 9.58754L7.56951 9.20843C8.30212 8.55579 9.24903 8.19517 10.2302 8.19516L15.9625 8.19507L19.5903 6.92969L19.3112 10.1952L20.69 11.838C20.88 12.0644 21.1604 12.1952 21.4559 12.1952H21.9897C22.542 12.1952 22.9897 12.6429 22.9897 13.1952V15.1952C22.9897 15.7475 22.542 16.1952 21.9897 16.1952H20.8946C20.6311 16.1952 20.3782 16.2992 20.191 16.4846L17.286 19.3614C17.0964 19.5492 16.9897 19.805 16.9897 20.0719V21.1952C16.9897 21.7475 16.542 22.1952 15.9897 22.1952C15.4374 22.1952 14.9897 21.7475 14.9897 21.1952V20.6548C14.9897 20.1026 14.542 19.6548 13.9897 19.6548H11.9897C11.4374 19.6548 10.9897 20.1026 10.9897 20.6548V21.1952C10.9897 21.7475 10.542 22.1952 9.98969 22.1952H9.70691C9.15462 22.1952 8.70691 21.7475 8.70691 21.1952V19.7127C8.70691 19.4603 8.61143 19.2172 8.43963 19.0322L6.60653 17.0585C6.09113 16.5036 5.80469 15.7743 5.80469 15.0169Z" fill="#FF7BAC" stroke="black"/>
<path d="M16.9902 12.6846H18.73" stroke="black" stroke-linecap="round"/>
<path d="M5.70155 13.4601H5.29809C4.74581 13.4601 4.29809 13.0123 4.29809 12.4601V12.1719C4.29809 11.6196 3.85038 11.1719 3.29809 11.1719H2.98999V11.1719C2.44862 11.1719 2.00977 11.6107 2.00977 12.1521V12.7903" stroke="black" stroke-linecap="round"/>
</svg>
