<svg width="36" height="36" viewBox="0 0 36 36" fill="none" xmlns="http://www.w3.org/2000/svg">
<circle cx="18" cy="18" r="14" fill="#009951"/>
<g clip-path="url(#clip0_150_626)">
<path fill-rule="evenodd" clip-rule="evenodd" d="M24.2122 11.4532C24.3968 11.3422 24.6173 11.3069 24.8274 11.3549C25.0374 11.4029 25.2207 11.5305 25.3388 11.7107L26.1638 12.9691C26.2714 13.1334 26.3174 13.3305 26.2937 13.5256C26.2701 13.7206 26.1784 13.901 26.0347 14.0349L26.0322 14.0382L26.0205 14.0491L25.973 14.0932L25.7855 14.2724C24.748 15.2788 23.742 16.3171 22.7688 17.3857C20.938 19.3991 18.7638 22.0341 17.3005 24.5907C16.8922 25.3041 15.8947 25.4574 15.303 24.8416L9.89882 19.2266C9.82137 19.1461 9.7609 19.0508 9.721 18.9465C9.6811 18.8421 9.66258 18.7309 9.66654 18.6192C9.67051 18.5076 9.69687 18.3979 9.74408 18.2967C9.79128 18.1954 9.85836 18.1047 9.94132 18.0299L11.5747 16.5566C11.7182 16.4272 11.9022 16.3517 12.0953 16.343C12.2884 16.3343 12.4784 16.393 12.633 16.5091L15.3905 18.5766C19.698 14.3291 22.1405 12.6991 24.2122 11.4532Z" fill="white"/>
</g>
<defs>
<clipPath id="clip0_150_626">
<rect width="20" height="20" fill="white" transform="translate(8 8)"/>
</clipPath>
</defs>
</svg>
