<svg width="152" height="84" viewBox="0 0 152 84" fill="none" xmlns="http://www.w3.org/2000/svg">
<path d="M28.9805 6.5V7.53906H25.248C25.3232 8.87207 27.0869 10.0479 29.3633 10.3281L28.8711 11.3535C26.7725 11.0801 25.0498 10.1025 24.3936 8.72852C23.7236 10.1025 22.0078 11.0801 19.916 11.3535L19.4238 10.3281C21.7139 10.0479 23.4639 8.86523 23.5254 7.53906H19.834V6.5H28.9805ZM18.7949 13.1992V12.1465H30.0059V13.1992H25.1387V15.5781H23.8535V13.1992H18.7949ZM20.1895 17.9023V14.4023H21.4883V16.8496H28.7617V17.9023H20.1895ZM41.0527 5.91211V18.1895H39.7539V5.91211H41.0527ZM31.5918 15.25V6.9375H32.8906V10.082H36.1855V6.9375H37.4707V15.25H31.5918ZM32.8906 14.1836H36.1855V11.1074H32.8906V14.1836ZM54.1777 11.5859V12.6387H49.2285V13.8145C51.4707 13.9375 52.8037 14.6895 52.8105 15.9746C52.8037 17.3623 51.2178 18.1416 48.5859 18.1348C45.9199 18.1416 44.334 17.3623 44.334 15.9746C44.334 14.6895 45.667 13.9307 47.9434 13.8145V12.6387H43.0078V11.5859H54.1777ZM43.5957 9.91797C45.7969 9.69238 47.5332 8.69434 47.7109 7.51172H44.0332V6.47266H53.1797V7.51172H49.4609C49.6387 8.70117 51.3613 9.69238 53.6035 9.91797L53.1387 10.9434C51.0127 10.6973 49.2559 9.80176 48.5928 8.50293C47.916 9.80176 46.1729 10.6973 44.0469 10.9434L43.5957 9.91797ZM45.6465 15.9746C45.6396 16.7197 46.7129 17.1504 48.5859 17.1367C50.4316 17.1504 51.5117 16.7197 51.5117 15.9746C51.5117 15.2158 50.4316 14.8057 48.5859 14.7988C46.7129 14.8057 45.6396 15.2158 45.6465 15.9746ZM65.2656 5.92578V14.8262H63.9668V5.92578H65.2656ZM55.3535 9.78125C55.3604 8.01074 56.7686 6.75293 58.6211 6.74609C60.4668 6.75293 61.875 8.01074 61.875 9.78125C61.875 11.5791 60.4668 12.8301 58.6211 12.8301C56.7686 12.8301 55.3604 11.5791 55.3535 9.78125ZM56.625 9.78125C56.6182 10.9365 57.4795 11.6953 58.6211 11.6953C59.7422 11.6953 60.6035 10.9365 60.6035 9.78125C60.6035 8.65332 59.7422 7.88086 58.6211 7.88086C57.4795 7.88086 56.6182 8.65332 56.625 9.78125ZM57.2539 17.9023V13.9238H58.5664V16.8496H65.6348V17.9023H57.2539ZM80.8105 5.91211V18.1621H79.498V5.91211H80.8105ZM70.748 14.8809C74.002 13.3291 75.5947 11.1211 75.8477 8.26367H71.3359V7.22461H77.1602C77.1602 10.8135 75.6357 13.917 71.4316 15.9336L70.748 14.8809ZM92.623 9.2207V10.2734H84.2148V6.13086H85.5V9.2207H92.623ZM82.7246 12.6387V11.5723H93.9082V12.6387H82.7246ZM84.0508 15.8652C84.0508 14.4365 85.6436 13.6299 88.3027 13.6367C90.9414 13.6299 92.5205 14.4365 92.5273 15.8652C92.5205 17.3008 90.9414 18.1074 88.3027 18.1074C85.6436 18.1074 84.0508 17.3008 84.0508 15.8652ZM85.3633 15.8652C85.3564 16.6514 86.4297 17.1025 88.3027 17.1094C90.1484 17.1025 91.2285 16.6514 91.2285 15.8652C91.2285 15.0723 90.1484 14.6553 88.3027 14.6484C86.4297 14.6553 85.3564 15.0723 85.3633 15.8652ZM104.982 5.91211V12.4883H103.684V5.91211H104.982ZM95.0703 9.31641C95.0771 7.63477 96.458 6.46582 98.3379 6.47266C100.211 6.46582 101.592 7.63477 101.592 9.31641C101.592 10.9912 100.211 12.1602 98.3379 12.1465C96.458 12.1602 95.0771 10.9912 95.0703 9.31641ZM96.3418 9.31641C96.335 10.376 97.1758 11.0801 98.3379 11.0801C99.4863 11.0801 100.32 10.376 100.32 9.31641C100.32 8.27051 99.4863 7.55957 98.3379 7.56641C97.1758 7.55957 96.335 8.27051 96.3418 9.31641ZM96.9707 18.0117V13.0762H98.2422V14.457H103.697V13.0762H104.982V18.0117H96.9707ZM98.2422 16.9453H103.697V15.4824H98.2422V16.9453ZM117.096 5.91211V18.1621H115.797V5.91211H117.096ZM107.676 15.0449V7.10156H108.961V13.9238C110.752 13.917 112.632 13.7598 114.594 13.3633L114.771 14.457C112.604 14.9014 110.636 15.0518 108.701 15.0449H107.676ZM128.566 5.91211V10.6562H130.535V11.7227H128.566V18.1895H127.268V5.91211H128.566ZM119.543 15.1406V7.08789H125.271V8.14062H120.842V14.0605C122.899 14.0537 124.438 13.9648 126.188 13.6504L126.352 14.7441C124.431 15.0859 122.804 15.1475 120.527 15.1406H119.543ZM133.379 7.10156L133.256 14.1426H131.902L131.779 7.10156H133.379ZM131.615 16.125C131.608 15.5918 132.053 15.1543 132.586 15.1543C133.112 15.1543 133.55 15.5918 133.557 16.125C133.55 16.6582 133.112 17.0889 132.586 17.0957C132.053 17.0889 131.608 16.6582 131.615 16.125Z" fill="black"/>
<ellipse cx="68.5043" cy="72.6739" rx="10.8461" ry="1.22293" fill="black" fill-opacity="0.09"/>
<path d="M72.059 70.1128C72.1209 69.989 71.002 68.2224 70.4349 67.3545H72.3283L74.4761 70.6417C74.5746 70.7925 74.5737 70.9875 74.4738 71.1374L74.3521 71.32C74.2686 71.4452 74.1281 71.5204 73.9777 71.5204H69.8781L69.423 72.0104C69.2619 72.4771 68.7213 73.5016 67.8479 73.8656C67.1257 74.1666 66.7773 72.2219 66.6478 70.6883C66.6087 70.2259 67.0131 69.8588 67.4732 69.9194L68.9397 70.1128C69.9537 70.1644 71.9971 70.2366 72.059 70.1128Z" fill="black"/>
<path d="M76.1638 69.3828L75.3648 67.5905L76.7091 67.4443L78.5794 70.8051L78.4069 71.2882C78.3367 71.4846 78.1407 71.6071 77.9334 71.5841L76.4461 71.4188L76.6875 72.1699C76.7018 72.2144 76.7091 72.2609 76.7091 72.3076V73.5229H75.657C75.3648 72.8605 74.7277 71.4773 74.5173 71.2435C74.3386 71.0449 74.6531 70.5232 74.9131 70.1795C74.9931 70.0737 75.1198 70.0161 75.2524 70.0161H75.7528C76.0786 70.0161 76.2965 69.6805 76.1638 69.3828Z" fill="black"/>
<path d="M61.8848 66.2917C61.9344 66.2139 62.123 65.9182 62.4804 65.3578" stroke="#ABB3C0" stroke-linecap="round"/>
<path d="M57.3731 53.2843L57.3799 53.2411L57.3815 53.1973C57.5438 48.8875 58.8537 45.264 61.386 42.7197C63.9043 40.1894 67.7225 38.6352 73.0957 38.6251C77.9689 39.3287 81.6873 40.9069 84.1886 43.4379C86.6786 45.9574 88.0483 49.5086 88.0552 54.3433C87.6069 58.7872 86.0681 62.3206 83.4871 64.6995C80.9054 67.079 77.1906 68.3868 72.2255 68.1998C67.9169 68.0376 63.8174 66.6152 61.0004 64.0931C58.2106 61.5953 56.6348 57.9858 57.3731 53.2843Z" fill="#EEF2F4" stroke="url(#paint0_linear_13_12157)" stroke-width="1.48002"/>
<path d="M84.9453 56.5552C84.9508 56.5345 84.9718 56.4561 85.0117 56.3076" stroke="black" stroke-linecap="round"/>
<path d="M81.7109 55.6865C81.7147 55.6726 81.7638 55.4894 81.7907 55.3888" stroke="black" stroke-linecap="round"/>
<path d="M56.625 51.6892C56.7111 51.7859 57.0385 52.1532 57.6587 52.8491" stroke="#ABB3C0" stroke-linecap="round"/>
<path d="M55.9336 55.1357C56.0473 55.0738 56.4793 54.8384 57.2979 54.3925" stroke="#ABB3C0" stroke-linecap="round"/>
<path d="M58.8633 44.3528C58.9319 44.3914 59.1925 44.5381 59.6863 44.8162" stroke="#ABB3C0" stroke-linecap="round"/>
<path d="M89.2266 50.1995C89.0971 50.202 88.6052 50.2115 87.6732 50.2296" stroke="#ABB3C0" stroke-linecap="round"/>
<path d="M87.9375 48.5854C87.8803 48.6395 87.663 48.845 87.2513 49.2344" stroke="#ABB3C0" stroke-linecap="round"/>
<path d="M80.2637 66.0557C80.3318 66.095 80.5909 66.2446 81.0816 66.5279" stroke="#ABB3C0" stroke-width="0.370006" stroke-linecap="round"/>
<path d="M81.293 58.5154C81.3283 58.5616 81.3649 58.6181 81.4786 58.7199C81.6207 58.8471 81.6602 58.8751 81.722 58.908" stroke="black" stroke-linecap="round"/>
<path d="M90.3066 63.313L90.3066 64.2631" stroke="#FF7023" stroke-width="1.5" stroke-linecap="round"/>
<path d="M93.0215 64.7053L91.8915 65.3577" stroke="#FF7023" stroke-width="1.5" stroke-linecap="round"/>
<path d="M75.4918 35.5509C73.7419 35.7837 71.8913 38.8158 71.1394 40.3905C71.1101 40.452 71.0963 40.5183 71.0973 40.5864L71.0975 40.5991C71.099 40.6945 71.1313 40.7881 71.1895 40.8638C76.3064 47.5085 85.4086 47.6911 85.7244 46.9673C85.9785 46.3849 85.1849 44.6305 84.7563 43.8261C85.0996 42.1904 84.5427 39.8625 84.2213 38.9031C82.054 34.7281 77.7227 35.2541 75.4918 35.5509Z" fill="#FFA600"/>
<path d="M85.5954 63.7593L79.2148 67.7964L80.0093 68.8245L86.3219 64.8211L85.5954 63.7593Z" fill="#6F482C"/>
<path d="M89.1679 66.099C89.4551 65.9082 89.8415 66.0982 89.8657 66.4422L89.9868 68.1607L91.3367 69.2309C91.6069 69.4451 91.5456 69.8713 91.2259 70.0006L89.629 70.6468L89.0283 72.2613C88.9081 72.5846 88.4838 72.6579 88.262 72.3938L87.154 71.0748L85.4329 71.0024C85.0883 70.9879 84.8874 70.6071 85.07 70.3145L85.9822 68.8532L85.5191 67.1939C85.4264 66.8617 85.7265 66.553 86.0612 66.6363L87.7329 67.0521L89.1679 66.099Z" fill="#FF6512"/>
<path d="M88.2489 67.9115C88.5362 67.7207 88.9226 67.9107 88.9468 68.2547L88.9784 68.7025L89.3301 68.9814C89.6004 69.1957 89.5391 69.6218 89.2194 69.7512L88.8032 69.9196L88.6467 70.3403C88.5264 70.6635 88.1022 70.7369 87.8804 70.4728L87.5916 70.1291L87.1431 70.1102C86.7985 70.0957 86.5976 69.7149 86.7802 69.4224L87.0179 69.0415L86.8973 68.6091C86.8046 68.2769 87.1047 67.9682 87.4393 68.0515L87.875 68.1599L88.2489 67.9115Z" fill="#FFEA00"/>
<path d="M84.8828 62.806V61.0715C84.8828 60.9347 84.945 60.8054 85.0518 60.72L85.6188 60.2667C85.7636 60.1509 85.9645 60.1358 86.125 60.2285L87.6141 61.0892L90.0157 64.3016C90.1725 64.5114 90.1178 64.8102 89.8968 64.9508L87.7516 66.3153C87.5451 66.4466 87.2714 66.3888 87.1356 66.1852L84.8828 62.806Z" fill="#303030"/>
<rect x="74.4609" y="37.3828" width="1.9043" height="3.51562" rx="0.952148" transform="rotate(36.067 74.4609 37.3828)" fill="white" fill-opacity="0.5"/>
<path fill-rule="evenodd" clip-rule="evenodd" d="M83.4083 44.5838C83.412 44.998 83.0789 45.339 82.6653 45.3178C79.4214 45.152 76.5509 43.7699 75.0271 42.778C74.68 42.552 74.6189 42.0808 74.8717 41.7527C75.1244 41.4245 75.5948 41.3626 75.9442 41.585C77.306 42.4514 79.8359 43.6483 82.6518 43.8148C83.0653 43.8392 83.4046 44.1696 83.4083 44.5838Z" fill="white" fill-opacity="0.5"/>
<path d="M76.9941 62.1941C77.4161 63.2068 78.9082 65.5259 81.5008 66.7007" stroke="black" stroke-width="1.5" stroke-linecap="round"/>
<defs>
<linearGradient id="paint0_linear_13_12157" x1="60.6808" y1="45.4788" x2="84.7256" y2="65.9683" gradientUnits="userSpaceOnUse">
<stop stop-color="#EEF2F4"/>
<stop offset="1" stop-color="#DAE3EA"/>
</linearGradient>
</defs>
</svg>
