<svg width="40" height="40" viewBox="0 0 40 40" fill="none" xmlns="http://www.w3.org/2000/svg">
<path fill-rule="evenodd" clip-rule="evenodd" d="M19.9996 34.3996C23.8187 34.3996 27.4814 32.8825 30.1819 30.1819C32.8825 27.4814 34.3996 23.8187 34.3996 19.9996C34.3996 16.1805 32.8825 12.5178 30.1819 9.81727C27.4814 7.11675 23.8187 5.59961 19.9996 5.59961C16.1805 5.59961 12.5178 7.11675 9.81727 9.81727C7.11675 12.5178 5.59961 16.1805 5.59961 19.9996C5.59961 23.8187 7.11675 27.4814 9.81727 30.1819C12.5178 32.8825 16.1805 34.3996 19.9996 34.3996ZM19.1986 14.902C18.9275 14.7211 18.6124 14.6173 18.2869 14.6015C17.9614 14.5856 17.6378 14.6585 17.3504 14.8122C17.0631 14.966 16.8229 15.1948 16.6554 15.4744C16.488 15.754 16.3996 16.0737 16.3996 16.3996V23.5996C16.3996 23.9255 16.488 24.2453 16.6554 24.5248C16.8229 24.8044 17.0631 25.0332 17.3504 25.187C17.6378 25.3407 17.9614 25.4136 18.2869 25.3978C18.6124 25.3819 18.9275 25.2781 19.1986 25.0972L24.5986 21.4972C24.8451 21.3328 25.0473 21.1101 25.1871 20.8489C25.3269 20.5876 25.4 20.2959 25.4 19.9996C25.4 19.7033 25.3269 19.4116 25.1871 19.1503C25.0473 18.8891 24.8451 18.6664 24.5986 18.502L19.1986 14.902Z" fill="#040404"/>
</svg>
