<svg width="24" height="24" viewBox="0 0 24 24" fill="none" xmlns="http://www.w3.org/2000/svg">
<path d="M4.7276 11.8152L8.89573 6.46289H14.769L18.274 11.4837L20.1657 12.7148C20.8074 13.1325 21.0821 13.9336 20.8317 14.6571L20.3935 14.9701C19.6706 15.4864 18.6939 15.4641 17.9954 14.9153L16.5215 13.7572L14.769 11.4837V14.6571L12.4007 17.4517H11.4061L8.89573 14.6571V11.2134L4.7276 16.0781L3.25767 15.6307C2.8366 15.5025 2.54883 15.1142 2.54883 14.674V14.4344C2.54883 13.7999 2.84984 13.2031 3.36002 12.826L4.7276 11.8152Z" fill="#70A7FC" stroke="black"/>
<rect x="5.41406" y="11.957" width="13.5365" height="4.44948" rx="2" transform="rotate(26.2452 5.41406 11.957)" fill="#70A7FC" stroke="black"/>
<rect width="13.5365" height="4.44948" rx="2" transform="matrix(-0.89691 0.442214 0.442214 0.89691 17.5547 11.957)" fill="#70A7FC" stroke="black"/>
<rect x="4.80469" y="3.10547" width="1.008" height="3.35767" fill="#FFCF11"/>
<rect x="19.2695" y="6.46289" width="1.008" height="3.35767" fill="#FFCF11"/>
<rect x="17.5918" y="4.78516" width="1.008" height="1.20142" fill="#FFCF11"/>
<rect x="3.62891" y="5.28906" width="1.008" height="3.35767" transform="rotate(-90 3.62891 5.28906)" fill="#FFCF11"/>
<rect x="18.0957" y="8.64648" width="1.008" height="3.35767" transform="rotate(-90 18.0957 8.64648)" fill="#FFCF11"/>
<rect x="8.70312" y="2.06445" width="6.22073" height="5.4397" rx="2.71985" fill="#70A7FC" stroke="black"/>
</svg>
