<svg width="24" height="24" viewBox="0 0 24 24" fill="none" xmlns="http://www.w3.org/2000/svg">
<path fill-rule="evenodd" clip-rule="evenodd" d="M9 6H15V4.5H16.5V6H17.25C17.6478 6 18.0294 6.15804 18.3107 6.43934C18.592 6.72064 18.75 7.10218 18.75 7.5V18C18.75 18.3978 18.592 18.7794 18.3107 19.0607C18.0294 19.342 17.6478 19.5 17.25 19.5H6.75C6.35218 19.5 5.97064 19.342 5.68934 19.0607C5.40804 18.7794 5.25 18.3978 5.25 18V7.5C5.25 7.10218 5.40804 6.72064 5.68934 6.43934C5.97064 6.15804 6.35218 6 6.75 6H7.5V4.5H9V6ZM6.75 9V18H17.25V9H6.75ZM8.25 11.25H9.75V12.75H8.25V11.25ZM11.25 11.25H12.75V12.75H11.25V11.25ZM14.25 11.25H15.75V12.75H14.25V11.25ZM14.25 14.25H15.75V15.75H14.25V14.25ZM11.25 14.25H12.75V15.75H11.25V14.25ZM8.25 14.25H9.75V15.75H8.25V14.25Z" fill="#040404"/>
</svg>
