<svg width="92" height="22" viewBox="0 0 92 22" fill="none" xmlns="http://www.w3.org/2000/svg">
<path d="M6.74023 5.32812C6.7334 8.55469 5.09277 10.9541 1.16211 12.2598L0.628906 11.2344C2.53613 10.6191 3.79395 9.75781 4.53906 8.69141L0.792969 8.97852L0.587891 7.93945L5.05176 7.74805C5.21582 7.32422 5.3252 6.87305 5.37305 6.39453H1.20312V5.32812H6.74023ZM2.29688 16.4023V12.6562H3.60938V15.3496H10.582V16.4023H2.29688ZM8.76367 13.5312V4.41211H10.0762V8.13086H11.8535V9.21094H10.0762V13.5312H8.76367ZM19.7148 6.72266C19.7148 8.10352 20.5625 9.47754 22.1484 10.0996L21.4512 11.0977C20.3301 10.6465 19.5303 9.79883 19.0928 8.7666C18.6416 9.91504 17.8076 10.8994 16.625 11.4121L15.9141 10.4141C17.5684 9.68945 18.457 8.11035 18.457 6.72266V5.15039H19.7148V6.72266ZM18.0879 13.5176V12.4648H26.4141V16.6621H25.1289V13.5176H18.0879ZM22.5449 11.7539V4.63086H23.748V7.54297H25.1836V4.42578H26.4141V11.8223H25.1836V8.62305H23.748V11.7539H22.5449ZM32.293 6.36719C32.2861 7.97363 33.4209 9.4707 35.2461 10.0723L34.5488 11.0977C33.209 10.626 32.2041 9.66895 31.6709 8.45898C31.1377 9.83301 30.0986 10.9131 28.6699 11.4395L27.9727 10.4004C29.8867 9.72363 30.9941 8.08984 31.0078 6.25781V5.05469H32.293V6.36719ZM29.627 14.3652C29.627 12.9297 31.1924 12.0889 33.7422 12.0957C36.2578 12.0889 37.8027 12.9297 37.8027 14.3652C37.8027 15.8145 36.2578 16.6416 33.7422 16.6348C31.1924 16.6416 29.627 15.8145 29.627 14.3652ZM30.9258 14.3652C30.9189 15.1719 31.9717 15.6094 33.7422 15.623C35.499 15.6094 36.5381 15.1719 36.5312 14.3652C36.5381 13.5859 35.499 13.1211 33.7422 13.1211C31.9717 13.1211 30.9189 13.5859 30.9258 14.3652ZM36.3945 11.8086V4.41211H37.6934V7.48828H39.4707V8.58203H37.6934V11.8086H36.3945ZM53.7715 4.41211V16.6621H52.459V4.41211H53.7715ZM43.709 13.3809C46.9629 11.8291 48.5557 9.62109 48.8086 6.76367H44.2969V5.72461H50.1211C50.1211 9.31348 48.5967 12.417 44.3926 14.4336L43.709 13.3809ZM65.8574 5V6.03906H62.125C62.2002 7.37207 63.9639 8.54785 66.2402 8.82812L65.748 9.85352C63.6494 9.58008 61.9268 8.60254 61.2705 7.22852C60.6006 8.60254 58.8848 9.58008 56.793 9.85352L56.3008 8.82812C58.5908 8.54785 60.3408 7.36523 60.4023 6.03906H56.7109V5H65.8574ZM55.6719 11.6992V10.6465H66.8828V11.6992H62.0156V14.0781H60.7305V11.6992H55.6719ZM57.0664 16.4023V12.9023H58.3652V15.3496H65.6387V16.4023H57.0664Z" fill="#232327"/>
<g clip-path="url(#clip0_13_11579)">
<path d="M83.9994 4.99935C82.4081 4.99935 80.8819 5.63149 79.7567 6.75671C78.6315 7.88193 77.9994 9.40805 77.9994 10.9993C77.9994 12.5973 78.6227 14.048 79.6414 15.1234L79.9774 15.478L79.1327 16.9993H83.9994C84.7873 16.9993 85.5675 16.8442 86.2955 16.5426C87.0234 16.2411 87.6848 15.7991 88.242 15.242C88.7991 14.6848 89.2411 14.0234 89.5426 13.2955C89.8442 12.5675 89.9994 11.7873 89.9994 10.9993C89.9994 10.2114 89.8442 9.4312 89.5426 8.70325C89.2411 7.9753 88.7991 7.31386 88.242 6.75671C87.6848 6.19956 87.0234 5.7576 86.2955 5.45607C85.5675 5.15454 84.7873 4.99935 83.9994 4.99935ZM76.666 10.9993C76.666 6.94935 79.9494 3.66602 83.9994 3.66602C88.0494 3.66602 91.3327 6.94935 91.3327 10.9993C91.3327 15.0493 88.0494 18.3327 83.9994 18.3327H76.866L78.346 15.67C77.2582 14.3569 76.6638 12.7046 76.666 10.9993ZM83.9994 7.99935C83.7236 7.99928 83.4546 8.0847 83.2295 8.24386C83.0043 8.40301 82.834 8.62806 82.742 8.88802L82.5194 9.51668L81.2627 9.07268L81.4847 8.44402C81.6223 8.05371 81.8489 7.70079 82.1465 7.41317C82.4441 7.12555 82.8045 6.91112 83.1992 6.78684C83.594 6.66257 84.0123 6.63186 84.4209 6.69714C84.8296 6.76242 85.2175 6.9219 85.5539 7.16298C85.8903 7.40405 86.166 7.72009 86.3592 8.0861C86.5523 8.45211 86.6577 8.85806 86.6669 9.27181C86.6761 9.68557 86.5889 10.0958 86.4121 10.47C86.2354 10.8443 85.974 11.1722 85.6487 11.428C85.3614 11.6547 85.104 11.872 84.918 12.1007C84.7354 12.326 84.666 12.5073 84.666 12.666V13.4993H83.3327V12.666C83.3327 12.088 83.5927 11.6173 83.8834 11.2593C84.1714 10.906 84.5327 10.61 84.8234 10.3807C85.0412 10.2093 85.2003 9.97429 85.2784 9.70832C85.3565 9.44234 85.3497 9.15864 85.2591 8.89668C85.1684 8.63472 84.9984 8.40752 84.7726 8.2467C84.5468 8.08587 84.2766 7.99941 83.9994 7.99935ZM83.3327 14.166H84.6687V15.502H83.3327V14.166Z" fill="#3F3F44"/>
</g>
<defs>
<clipPath id="clip0_13_11579">
<rect width="16" height="16" fill="white" transform="translate(76 3)"/>
</clipPath>
</defs>
</svg>
