<svg width="134" height="166" viewBox="0 0 134 166" fill="none" xmlns="http://www.w3.org/2000/svg">
<mask id="path-1-inside-1_77_4971" fill="white">
<path fill-rule="evenodd" clip-rule="evenodd" d="M56.7535 53.4376L66.6915 61.5L76.6295 53.4376L134 53.4376L134 0.49987L5.3328e-06 0.499859L7.04838e-07 53.4376L56.7535 53.4376Z"/>
</mask>
<path fill-rule="evenodd" clip-rule="evenodd" d="M56.7535 53.4376L66.6915 61.5L76.6295 53.4376L134 53.4376L134 0.49987L5.3328e-06 0.499859L7.04838e-07 53.4376L56.7535 53.4376Z" fill="white"/>
<path d="M66.6915 61.5L66.0615 62.2766L66.6915 62.7877L67.3215 62.2766L66.6915 61.5ZM56.7535 53.4376L57.3835 52.661L57.1081 52.4376L56.7535 52.4376L56.7535 53.4376ZM76.6295 53.4376L76.6295 52.4376L76.2749 52.4376L75.9995 52.661L76.6295 53.4376ZM134 53.4376L134 54.4376L135 54.4376L135 53.4376L134 53.4376ZM134 0.49987L135 0.49987L135 -0.50013L134 -0.50013L134 0.49987ZM5.3328e-06 0.499859L5.42022e-06 -0.500141L-0.999995 -0.500142L-0.999995 0.499858L5.3328e-06 0.499859ZM7.04838e-07 53.4376L-0.999999 53.4376L-0.999999 54.4376L6.17415e-07 54.4376L7.04838e-07 53.4376ZM67.3215 60.7234L57.3835 52.661L56.1235 54.2142L66.0615 62.2766L67.3215 60.7234ZM75.9995 52.661L66.0615 60.7234L67.3215 62.2766L77.2595 54.2142L75.9995 52.661ZM134 52.4376L76.6295 52.4376L76.6295 54.4376L134 54.4376L134 52.4376ZM133 0.49987L133 53.4376L135 53.4376L135 0.49987L133 0.49987ZM5.24538e-06 1.49986L134 1.49987L134 -0.50013L5.42022e-06 -0.500141L5.24538e-06 1.49986ZM1 53.4376L1.00001 0.499859L-0.999995 0.499858L-0.999999 53.4376L1 53.4376ZM56.7535 52.4376L7.9226e-07 52.4376L6.17415e-07 54.4376L56.7535 54.4376L56.7535 52.4376Z" fill="#D9DAE2" mask="url(#path-1-inside-1_77_4971)"/>
<path d="M42.9109 14.06H39.3589C39.5149 15.14 41.3389 15.74 43.0189 15.872V16.976C41.2789 16.856 39.5749 16.292 38.7109 15.356C37.8349 16.292 36.1189 16.868 34.3789 16.976V15.872C36.0589 15.764 37.8829 15.14 38.0389 14.06H34.5349V12.956H42.9109V14.06ZM33.8149 19.004V17.888H38.0509V16.472H39.3469V17.888H43.6189V19.004H33.8149ZM42.9109 23.816H34.5349V20.048H42.9109V23.816ZM41.6029 22.724V21.152H35.8309V22.724H41.6029ZM53.4706 22.976H49.2706V13.016H54.4786V14.168H50.5666V21.836H53.5306C54.3346 21.836 55.0906 21.776 55.6306 21.584V22.664C55.0906 22.88 54.3106 22.976 53.4706 22.976ZM53.5186 18.296V17.168H56.6506V12.824H57.9586V23.708H56.6506V18.296H53.5186ZM73.0063 13.016V19.112H69.4183V22.1H73.5703V23.228H63.9103V22.1H68.1223V19.112H64.4743V13.016H73.0063ZM65.7823 17.96H71.6983V14.168H65.7823V17.96ZM75.7539 16.232C75.7539 15.164 76.2099 14.264 76.9779 13.712C77.7699 13.136 78.9099 12.896 80.2659 12.896C81.6339 12.896 82.7619 13.136 83.5659 13.712C84.3219 14.264 84.7899 15.164 84.7899 16.232C84.7899 17.288 84.3219 18.176 83.5659 18.728C82.7619 19.316 81.6339 19.556 80.2659 19.556C78.9099 19.556 77.7699 19.316 76.9779 18.728C76.2099 18.176 75.7539 17.288 75.7539 16.232ZM77.0619 16.232C77.0619 16.868 77.3139 17.408 77.7579 17.756C78.3099 18.176 79.1739 18.416 80.2659 18.416C81.3699 18.416 82.2339 18.176 82.7859 17.756C83.2299 17.408 83.4819 16.868 83.4819 16.232C83.4819 15.572 83.2299 15.032 82.7859 14.684C82.2339 14.264 81.3699 14.036 80.2659 14.036C79.1739 14.036 78.3099 14.264 77.7579 14.684C77.3139 15.032 77.0619 15.572 77.0619 16.232ZM75.4299 23.228V22.1H85.0899V23.228H75.4299ZM92.5054 18.848H87.2374V12.956H92.5054V14H94.7254V12.824H96.0334V20.444H94.7254V17.744H92.5054V18.848ZM92.5054 15.128V16.628H94.7254V15.128H92.5054ZM91.2214 17.744V14.084H88.5094V17.744H91.2214ZM96.2254 23.756H87.8974V20.06H89.2054V22.628H96.2254V23.756ZM23.7382 40.976H20.7982V31.016H24.7342V32.168H22.0702V35.372H24.5782V36.512H22.0702V39.848H23.9902C24.8782 39.848 25.5742 39.668 25.9822 39.32V30.896H27.2302V35.156H28.4542V30.824H29.7262V41.708H28.4542V36.296H27.2302V41.576H25.9822V40.388C25.5622 40.796 24.7822 40.976 23.7382 40.976ZM35.5098 30.896V32.756C35.5098 34.64 36.5418 35.6 37.9338 36.032V37.184C36.5658 36.884 35.4258 36.128 34.8618 35.216C34.3458 36.152 33.1938 36.98 31.7778 37.316V36.152C33.2058 35.708 34.2138 34.592 34.2138 32.756V30.896H35.5098ZM40.8138 30.824V33.788H42.3978V34.94H40.8138V38.444H39.5058V30.824H40.8138ZM34.0818 38.06V40.628H41.0178V41.756H32.7858V38.06H34.0818ZM48.1093 35.972C48.1093 34.244 47.9893 32.984 47.5333 32.408C47.3173 32.108 46.9813 31.952 46.5853 31.952C46.2013 31.952 45.8653 32.108 45.6373 32.408C45.2053 32.984 45.0733 34.244 45.0733 35.972C45.0733 37.7 45.2053 38.96 45.6373 39.548C45.8653 39.824 46.2013 39.98 46.5853 39.98C46.9813 39.98 47.3173 39.824 47.5333 39.548C47.9893 38.96 48.1093 37.7 48.1093 35.972ZM43.7773 35.972C43.7773 34.004 43.9693 32.528 44.6653 31.676C45.1093 31.124 45.7813 30.824 46.5853 30.824C47.4013 30.824 48.0613 31.124 48.5173 31.676C49.2133 32.528 49.4053 34.004 49.4053 35.972C49.4053 37.94 49.2133 39.416 48.5173 40.268C48.0613 40.82 47.4013 41.096 46.5853 41.096C45.7813 41.096 45.1093 40.82 44.6653 40.268C43.9693 39.416 43.7773 37.94 43.7773 35.972ZM52.5973 30.824V41.708H51.2893V30.824H52.5973ZM64.669 32.036H60.337V33.284H64.729V34.364H62.545V35.372H64.249C65.209 35.372 65.941 35.18 66.325 34.904V30.824H67.633V36.764H66.325V35.936C65.881 36.296 65.137 36.464 63.913 36.464H58.453V35.372H61.237V34.364H59.053V30.956H64.669V32.036ZM60.805 40.856H67.765V41.816H59.497V39.104H66.325V38.3H59.497V37.328H67.633V40.064H60.805V40.856ZM78.3847 33.764C77.6527 34.988 75.9967 35.924 73.7407 36.272V35.12C76.1407 34.676 77.7247 33.464 77.7247 31.352V30.896H79.0207V31.352C79.0207 33.464 80.6287 34.664 83.0287 35.12V36.272C80.7847 35.924 79.1167 34.988 78.3847 33.764ZM73.5607 38.96V37.808H83.2207V38.96H79.0207V41.888H77.7247V38.96H73.5607ZM88.7164 33.632C88.7164 32.624 89.0404 31.856 89.6284 31.364C90.1204 30.968 90.7924 30.752 91.5724 30.752C92.3644 30.752 93.0244 30.968 93.5164 31.364C94.1044 31.856 94.4284 32.624 94.4284 33.632C94.4284 34.628 94.1044 35.396 93.5164 35.888C93.0244 36.296 92.3644 36.5 91.5724 36.5C90.7924 36.5 90.1204 36.296 89.6284 35.888C89.0404 35.396 88.7164 34.628 88.7164 33.632ZM89.9884 33.632C89.9884 34.232 90.1684 34.7 90.4924 35C90.7684 35.24 91.1284 35.384 91.5724 35.384C92.0164 35.384 92.3884 35.24 92.6524 35C92.9764 34.7 93.1564 34.232 93.1564 33.632C93.1564 33.032 92.9764 32.564 92.6524 32.264C92.3884 32.012 92.0164 31.88 91.5724 31.88C91.1284 31.88 90.7684 32.012 90.4924 32.264C90.1684 32.564 89.9884 33.032 89.9884 33.632ZM97.6564 36.896H96.3484V30.824H97.6564V36.896ZM93.6244 41.828C92.8564 41.54 92.0404 40.868 91.6444 40.172C91.1884 40.892 90.1324 41.576 89.0404 41.828V40.688C90.1564 40.304 90.9724 39.392 90.9724 37.928V37.544H92.2804V37.928C92.2804 39.188 92.8684 40.1 93.6244 40.604C94.3684 40.1 94.9924 39.188 94.9924 37.928V37.544H96.2884V37.928C96.2884 39.392 97.0804 40.292 98.2204 40.688V41.828C97.1164 41.576 96.0604 40.904 95.6044 40.172C95.2204 40.868 94.4404 41.516 93.6244 41.828ZM104.664 35.972C104.664 34.244 104.544 32.984 104.088 32.408C103.872 32.108 103.536 31.952 103.14 31.952C102.756 31.952 102.42 32.108 102.192 32.408C101.76 32.984 101.628 34.244 101.628 35.972C101.628 37.7 101.76 38.96 102.192 39.548C102.42 39.824 102.756 39.98 103.14 39.98C103.536 39.98 103.872 39.824 104.088 39.548C104.544 38.96 104.664 37.7 104.664 35.972ZM100.332 35.972C100.332 34.004 100.524 32.528 101.22 31.676C101.664 31.124 102.336 30.824 103.14 30.824C103.956 30.824 104.616 31.124 105.072 31.676C105.672 32.408 105.9 33.596 105.948 35.156H107.844V30.824H109.152V41.708H107.844V36.284H105.96C105.936 38.096 105.732 39.464 105.072 40.268C104.616 40.82 103.956 41.096 103.14 41.096C102.336 41.096 101.664 40.82 101.22 40.268C100.524 39.416 100.332 37.94 100.332 35.972ZM113.232 31.58V33.224L113.1 38.384H112.02L111.888 33.224V31.58H113.232ZM113.244 39.584V40.988H111.876V39.584H113.244Z" fill="#040404"/>
<ellipse cx="68.1351" cy="160.085" rx="25.1585" ry="2.12364" fill="black" fill-opacity="0.16"/>
<path d="M39.1208 133.967L39.1317 133.897L39.1344 133.827C39.395 126.903 41.4994 121.082 45.5673 116.995C49.6128 112.93 55.7466 110.434 64.3784 110.417C72.2068 111.548 78.1803 114.083 82.1985 118.149C86.1987 122.196 88.399 127.901 88.4101 135.668C87.6899 142.807 85.218 148.483 81.0716 152.305C76.9243 156.127 70.9566 158.228 62.9804 157.928C56.0589 157.667 49.4733 155.382 44.9479 151.33C40.4661 147.318 37.9347 141.519 39.1208 133.967Z" fill="#EEF2F4" stroke="#CAD2D7" stroke-width="2.37758"/>
<path d="M51.9551 129.698C51.9562 129.656 51.9602 129.496 51.968 129.192" stroke="black" stroke-width="1.46278" stroke-linecap="round"/>
<path d="M58.748 130.712C58.748 130.683 58.748 130.308 58.748 130.103" stroke="black" stroke-width="1.46278" stroke-linecap="round"/>
<path d="M53.043 133.651C53.3714 133.923 53.7373 134.353 54.6527 134.431C55.7969 134.529 56.0928 134.431 56.5233 134.091" stroke="black" stroke-width="0.836183" stroke-linecap="round"/>
<path d="M53.6639 109.718L53.6724 109.665L53.6744 109.61C53.8768 104.235 55.5105 99.7162 58.6684 96.5432C61.8091 93.3877 66.5708 91.4493 73.2719 91.4368C79.3492 92.3142 83.9865 94.2824 87.1059 97.4388C90.2113 100.581 91.9195 105.01 91.9281 111.039C91.369 116.581 89.45 120.988 86.2311 123.955C83.0115 126.922 78.3786 128.553 72.1865 128.32C66.8132 128.118 61.7008 126.344 58.1876 123.198C54.7083 120.083 52.7431 115.582 53.6639 109.718Z" fill="#EEF2F4" stroke="#C2CBCF" stroke-width="1.84576"/>
<path d="M45.3025 89.6532L45.3108 89.6006L45.3128 89.5474C45.4775 85.1723 46.8064 81.5113 49.3593 78.9462C51.8954 76.398 55.75 74.8204 61.2024 74.8082C66.1548 75.5247 69.9136 77.1271 72.4358 79.6791C74.9442 82.2172 76.3335 85.8009 76.3419 90.7048C75.8857 95.2142 74.3253 98.7823 71.7244 101.179C69.1228 103.577 65.3703 104.905 60.3296 104.715C55.956 104.551 51.8053 103.107 48.9596 100.559C46.1471 98.0408 44.5564 94.4042 45.3025 89.6532Z" fill="#EEF2F4" stroke="#CDD8DD" stroke-width="1.80071"/>
<path d="M45.0897 102.386L47.8076 99.5881L48.761 100.514C47.8555 101.762 45.9602 104.321 45.6227 104.569C45.2008 104.88 42.7657 102.195 43.3723 102.024C43.8577 101.887 44.7194 102.208 45.0897 102.386Z" fill="black"/>
<path d="M49.998 104.037L51.5366 100.453L52.7579 100.977C52.3582 102.466 51.5023 105.533 51.2759 105.886C50.9929 106.327 47.759 104.689 48.2644 104.312C48.6687 104.011 49.5886 104.003 49.998 104.037Z" fill="black"/>
<path d="M86.6462 131.037L81.3989 126.064L79.7047 127.852C81.4771 130.094 85.1829 134.686 85.8268 135.12C86.6318 135.663 90.9344 130.504 89.798 130.233C88.8889 130.017 87.318 130.679 86.6462 131.037Z" fill="black"/>
<path d="M93.234 125.612L87.9868 120.64L86.2926 122.427C88.065 124.669 91.7707 129.261 92.4147 129.695C93.2197 130.238 97.5223 125.079 96.3859 124.809C95.4768 124.592 93.9059 125.254 93.234 125.612Z" fill="black"/>
<path d="M87.3691 101.808C87.3557 101.768 87.3048 101.615 87.2082 101.327" stroke="black" stroke-width="1.46278" stroke-linecap="round"/>
<path d="M50.6602 86.1904C50.6686 86.156 50.7009 86.0253 50.7619 85.7776" stroke="black" stroke-width="1.46278" stroke-linecap="round"/>
<path d="M84.7617 102.15C84.7533 102.123 84.6434 101.765 84.583 101.568" stroke="black" stroke-width="1.46278" stroke-linecap="round"/>
<path d="M47.5781 86.4375C47.5845 86.4144 47.6675 86.1109 47.7131 85.9443" stroke="black" stroke-width="1.46278" stroke-linecap="round"/>
</svg>
