<svg width="134" height="166" viewBox="0 0 134 166" fill="none" xmlns="http://www.w3.org/2000/svg">
<mask id="path-1-inside-1_25_2286" fill="white">
<path fill-rule="evenodd" clip-rule="evenodd" d="M56.7535 53.4376L66.6915 61.5L76.6295 53.4376L134 53.4376L134 0.499878L5.3328e-06 0.499866L7.04837e-07 53.4376L56.7535 53.4376Z"/>
</mask>
<path fill-rule="evenodd" clip-rule="evenodd" d="M56.7535 53.4376L66.6915 61.5L76.6295 53.4376L134 53.4376L134 0.499878L5.3328e-06 0.499866L7.04837e-07 53.4376L56.7535 53.4376Z" fill="white"/>
<path d="M66.6915 61.5L66.0615 62.2766L66.6915 62.7877L67.3215 62.2766L66.6915 61.5ZM56.7535 53.4376L57.3835 52.661L57.1081 52.4376L56.7535 52.4376L56.7535 53.4376ZM76.6295 53.4376L76.6295 52.4376L76.2749 52.4376L75.9995 52.661L76.6295 53.4376ZM134 53.4376L134 54.4376L135 54.4376L135 53.4376L134 53.4376ZM134 0.499878L135 0.499878L135 -0.500122L134 -0.500122L134 0.499878ZM5.3328e-06 0.499866L5.42022e-06 -0.500134L-0.999995 -0.500134L-0.999995 0.499866L5.3328e-06 0.499866ZM7.04837e-07 53.4376L-0.999999 53.4376L-0.999999 54.4376L6.17414e-07 54.4376L7.04837e-07 53.4376ZM67.3215 60.7234L57.3835 52.661L56.1235 54.2142L66.0615 62.2766L67.3215 60.7234ZM75.9995 52.661L66.0615 60.7234L67.3215 62.2766L77.2595 54.2142L75.9995 52.661ZM134 52.4376L76.6295 52.4376L76.6295 54.4376L134 54.4376L134 52.4376ZM133 0.499878L133 53.4376L135 53.4376L135 0.499878L133 0.499878ZM5.24538e-06 1.49987L134 1.49988L134 -0.500122L5.42022e-06 -0.500134L5.24538e-06 1.49987ZM1 53.4376L1.00001 0.499866L-0.999995 0.499866L-0.999999 53.4376L1 53.4376ZM56.7535 52.4376L7.9226e-07 52.4376L6.17414e-07 54.4376L56.7535 54.4376L56.7535 52.4376Z" fill="#D9DAE2" mask="url(#path-1-inside-1_25_2286)"/>
<path d="M37.6561 21.596H33.7321V20.456H38.9641V21.236C38.9641 24.632 36.9241 26.204 33.4801 26.552V25.424C36.0961 25.148 37.6561 23.864 37.6561 21.596ZM42.3841 20.324V22.964H43.9681V24.104H42.3841V27.14H41.0761V20.324H42.3841ZM38.4121 29.444C37.5721 30.392 36.0961 31.148 34.0561 31.328V30.212C36.2881 29.924 37.7641 28.904 37.7641 27.452V26.948H39.0721V27.452C39.0721 28.904 40.5241 29.924 42.7801 30.212V31.328C40.7401 31.148 39.2641 30.392 38.4121 29.444ZM47.3996 24.368C46.9796 25.22 45.9716 26.036 44.9156 26.456V25.244C45.9236 24.716 46.7396 23.756 46.7396 21.956V20.396H48.0236V21.92C48.0236 23.72 48.8396 24.5 49.8356 24.992V26.192C48.8156 25.856 47.8676 25.172 47.3996 24.368ZM50.5196 26.312V20.396H51.7556V22.604H53.0876V20.324H54.3476V26.504H53.0876V23.744H51.7556V26.312H50.5196ZM45.9116 29.204C45.9116 28.52 46.2356 28.028 46.7396 27.68C47.5436 27.128 48.8396 26.924 50.2436 26.924C51.6476 26.924 52.9316 27.128 53.7476 27.68C54.2636 28.028 54.5636 28.52 54.5636 29.204C54.5636 29.876 54.2636 30.368 53.7476 30.728C52.9316 31.268 51.6476 31.46 50.2436 31.46C48.8396 31.46 47.5436 31.268 46.7396 30.728C46.2356 30.368 45.9116 29.876 45.9116 29.204ZM47.2076 29.204C47.2076 29.492 47.3636 29.708 47.6276 29.876C48.1436 30.224 49.1036 30.356 50.2436 30.356C51.3836 30.356 52.3316 30.224 52.8476 29.876C53.1116 29.708 53.2676 29.492 53.2676 29.204C53.2676 28.916 53.1116 28.688 52.8476 28.52C52.3316 28.184 51.3836 28.04 50.2436 28.04C49.1036 28.04 48.1436 28.184 47.6276 28.52C47.3636 28.688 47.2076 28.916 47.2076 29.204ZM60.1191 20.396V21.212C60.1191 23.084 61.1751 23.948 62.5431 24.332V25.472C61.2111 25.22 60.0351 24.488 59.4711 23.588C58.9431 24.524 57.7671 25.304 56.3871 25.604V24.464C57.7911 24.056 58.8231 23.036 58.8231 21.212V20.396H60.1191ZM65.4231 20.324V22.364H67.0071V23.516H65.4231V25.616H64.1151V20.324H65.4231ZM58.6911 29.312V30.26H65.5551V31.316H57.3951V28.28H64.1151V27.308H57.3951V26.264H65.4231V29.312H58.6911ZM68.1707 23.132C68.1707 22.124 68.4947 21.356 69.0827 20.864C69.5627 20.468 70.2347 20.252 71.0147 20.252C71.8187 20.252 72.4667 20.468 72.9587 20.864C73.5467 21.356 73.8707 22.124 73.8707 23.132C73.8707 24.128 73.5467 24.896 72.9587 25.388C72.4667 25.796 71.8187 26 71.0147 26C70.2347 26 69.5627 25.796 69.0827 25.388C68.4947 24.896 68.1707 24.128 68.1707 23.132ZM69.4427 23.132C69.4427 23.732 69.6227 24.2 69.9347 24.5C70.2107 24.74 70.5707 24.884 71.0147 24.884C71.4707 24.884 71.8427 24.74 72.0947 24.5C72.4187 24.2 72.5987 23.732 72.5987 23.132C72.5987 22.532 72.4187 22.064 72.0947 21.764C71.8427 21.512 71.4707 21.38 71.0147 21.38C70.5707 21.38 70.2107 21.512 69.9347 21.764C69.6227 22.064 69.4427 22.532 69.4427 23.132ZM76.9427 20.324V22.772H78.5267V23.912H76.9427V26.396H75.6347V20.324H76.9427ZM72.9707 31.328C72.1907 31.04 71.3987 30.368 71.0147 29.672C70.5707 30.392 69.5387 31.064 68.4227 31.328V30.188C69.5507 29.804 70.3427 28.892 70.3427 27.428V27.044H71.6507V27.428C71.6507 28.688 72.2147 29.6 72.9587 30.104C73.7147 29.6 74.2787 28.688 74.2787 27.428V27.044H75.5867V27.428C75.5867 28.892 76.3547 29.792 77.5067 30.188V31.328C76.3907 31.064 75.3707 30.404 74.9147 29.672C74.5307 30.356 73.7627 31.016 72.9707 31.328ZM84.6702 30.476H79.9542V20.516H85.1982V21.668H81.2502V29.336H84.9102C85.9062 29.336 86.6982 29.12 87.1542 28.712V20.324H88.4622V24.764H90.1662V25.904H88.4622V31.208H87.1542V29.792C86.7102 30.224 85.7742 30.476 84.6702 30.476ZM92.8537 28.892V30.488H91.3657V28.892H92.8537ZM96.5451 28.892V30.488H95.0571V28.892H96.5451ZM100.237 28.892V30.488H98.7485V28.892H100.237Z" fill="#040404"/>
<path d="M87.7977 125.002C86.0412 126.701 85.7639 129.418 87.141 131.436L88.6793 133.69C89.622 135.072 91.3227 135.724 92.9474 135.327L97.8023 134.14C102.725 132.936 104.93 127.186 102.074 123C99.5382 119.284 94.2679 118.746 91.034 121.873L87.7977 125.002Z" fill="url(#paint0_linear_25_2286)" stroke="#148E4B" stroke-width="2.00662"/>
<ellipse cx="64.7383" cy="159.981" rx="33.8086" ry="1.45165" fill="black" fill-opacity="0.34"/>
<path d="M67.7812 146.365C67.7812 144.148 69.578 142.352 71.7945 142.352H74.1132C76.7567 142.352 79.091 144.076 79.8675 146.603L82.4217 154.916C83.2146 157.496 81.285 160.108 78.5855 160.108H71.7945C69.578 160.108 67.7812 158.311 67.7812 156.094V146.365Z" fill="black"/>
<path d="M64.8047 148.119C64.8047 144.795 62.1095 142.1 58.7848 142.1H58.4728C55.8292 142.1 53.495 143.824 52.7185 146.351L50.1642 154.664C49.3713 157.244 51.3009 159.856 54.0004 159.856H60.7915C63.0079 159.856 64.8047 158.059 64.8047 155.842V148.119Z" fill="black"/>
<path d="M47.0017 103.265L42.6843 113.88L36.7605 124.849L36.292 127.231C35.5194 131.159 35.9214 135.227 37.4475 138.927C38.5181 141.523 40.4498 143.671 42.9178 145.009L43.1861 145.155C46.021 146.693 49.1952 147.498 52.4204 147.498H81.6162C82.7518 147.498 83.8846 147.385 84.9979 147.16C87.5589 146.644 89.8433 145.21 91.4222 143.128L92.083 142.257C93.6501 140.191 94.5948 137.721 94.806 135.136L94.9446 133.44C95.1832 130.521 94.6267 127.592 93.3345 124.964L91.1763 120.575L87.87 113.88L85.4506 106.299C84.0492 101.908 81.7188 97.8701 78.6178 94.46L78.2265 94.0297C75.9011 91.4724 72.8123 89.7341 69.4195 89.0731L65.1394 88.2393L60.6729 89.511C57.3834 90.4476 54.434 92.3131 52.1781 94.8838C49.9971 97.3691 48.2475 100.202 47.0017 103.265Z" fill="#54E194" stroke="#148E4B" stroke-width="2.00662"/>
<path d="M69.7927 83.6548C73.1096 86.9717 75.1465 94.3864 71.8295 97.7034C68.5125 101.02 61.0978 98.9836 57.7808 95.6666C53.2925 90.1798 53.2099 83.9471 53.4584 81.1305C53.5393 80.2147 54.2823 79.5476 55.2013 79.5226C58.4057 79.4355 65.8377 79.6998 69.7927 83.6548Z" fill="#148E4B"/>
<path d="M64.8047 88.6387C65.7103 89.6153 67.9666 91.8563 68.4841 94.4084" stroke="white" stroke-opacity="0.6" stroke-width="2.89919" stroke-linecap="round"/>
<path d="M38.4997 110.32C38.4997 111.578 37.2471 112.338 35.702 112.338C34.1569 112.338 32.9043 111.578 32.9043 110.32C32.9043 109.677 33.6352 108.622 34.3499 107.744C35.0561 106.877 36.3479 106.877 37.0541 107.744C37.7688 108.622 38.4997 109.677 38.4997 110.32Z" fill="#2BDA79"/>
<path d="M66.5322 117.951C65.4989 118.031 65.8367 119.044 66.1348 119.541C66.5057 120.097 67.592 120.258 68.0887 120.269C68.0887 120.269 69.9301 120.276 70.407 119.243C70.8839 118.209 69.9875 117.951 69.4797 117.951C68.9277 117.918 67.5655 117.872 66.5322 117.951Z" fill="black"/>
<path d="M36.399 133.524C39.8775 135.133 44.0099 133.934 46.087 130.713C46.9588 129.361 46.8467 127.599 45.8105 126.368L40.4017 119.945C37.2177 116.164 31.284 116.542 28.6051 120.696C26.1854 124.448 27.6434 129.474 31.6956 131.348L36.399 133.524Z" fill="#54E194" stroke="#148E4B" stroke-width="2.00662"/>
<circle cx="90.234" cy="102.549" r="1.61488" fill="#FF6422"/>
<circle cx="38.5005" cy="100.837" r="3.52199" fill="#FF6422"/>
<ellipse cx="37.5547" cy="100.317" rx="1.4121" ry="1.56896" fill="white" fill-opacity="0.6"/>
<circle cx="99.4563" cy="101.171" r="2.5422" fill="#FF6422"/>
<ellipse cx="98.301" cy="100.613" rx="0.90882" ry="1.01066" transform="rotate(28.829 98.301 100.613)" fill="white" fill-opacity="0.6"/>
<path d="M99.2102 110.06C99.2102 112.011 97.2673 113.191 94.8707 113.191C92.4741 113.191 90.5312 112.011 90.5312 110.06C90.5312 108.842 92.2242 106.669 93.4953 105.21C94.2299 104.366 95.5116 104.366 96.2461 105.21C97.5172 106.669 99.2102 108.842 99.2102 110.06Z" fill="#2BDA79"/>
<rect x="93.0391" y="106.585" width="1.96115" height="4.53522" rx="0.980575" transform="rotate(23.1209 93.0391 106.585)" fill="white" fill-opacity="0.3"/>
<rect x="60.0918" y="112.694" width="4.52163" height="1.35513" rx="0.677563" transform="rotate(-4.51476 60.0918 112.694)" fill="black"/>
<rect x="60.1914" y="113.836" width="4.52163" height="1.35513" rx="0.677563" transform="rotate(-4.51476 60.1914 113.836)" fill="black"/>
<rect width="4.52163" height="1.35513" rx="0.677563" transform="matrix(-0.996897 -0.0787159 -0.0787159 0.996897 75.2559 112.694)" fill="black"/>
<rect width="4.52163" height="1.35513" rx="0.677563" transform="matrix(-0.996897 -0.0787159 -0.0787159 0.996897 75.1562 113.836)" fill="black"/>
<defs>
<linearGradient id="paint0_linear_25_2286" x1="101.238" y1="126.79" x2="88.5851" y2="129.595" gradientUnits="userSpaceOnUse">
<stop stop-color="#54E194"/>
<stop offset="1" stop-color="#06B554"/>
</linearGradient>
</defs>
</svg>
