<svg width="134" height="166" viewBox="0 0 134 166" fill="none" xmlns="http://www.w3.org/2000/svg">
<ellipse cx="68.8337" cy="159.97" rx="30.4548" ry="2.5707" fill="black" fill-opacity="0.16"/>
<path d="M41.1777 154.945C41.2965 154.759 41.7479 154.051 42.6031 152.711" stroke="#ABB3C0" stroke-width="1.77072" stroke-linecap="round"/>
<path d="M30.3812 123.821L30.3974 123.718L30.4014 123.613C30.7896 113.3 33.9241 104.63 39.9833 98.5419C46.0092 92.4873 55.1456 88.7683 68.0028 88.7442C79.6634 90.4277 88.561 94.2042 94.5462 100.26C100.504 106.289 103.782 114.787 103.798 126.355C102.726 136.989 99.0437 145.444 92.8676 151.136C86.6902 156.83 77.8011 159.959 65.9204 159.512C55.6107 159.123 45.8014 155.72 39.0607 149.685C32.3851 143.708 28.6145 135.071 30.3812 123.821Z" fill="#EEF2F4" stroke="#DCDFE0" stroke-width="3.54145"/>
<path d="M62.1602 121.501C62.1615 121.45 62.1664 121.256 62.1758 120.888" stroke="black" stroke-width="1.77072" stroke-linecap="round"/>
<path d="M70.3867 122.729C70.3867 122.694 70.3867 122.24 70.3867 121.991" stroke="black" stroke-width="1.77072" stroke-linecap="round"/>
<path d="M104.953 139.417C104.678 139.274 103.634 138.731 101.654 137.703" stroke="#7F8998" stroke-width="1.77072" stroke-linecap="round"/>
<path d="M100.4 103.558C100.111 103.668 99.0117 104.09 96.9287 104.887" stroke="#7F8998" stroke-width="1.77072" stroke-linecap="round"/>
<path d="M77.7422 87.6621C77.5115 87.8689 76.6351 88.6549 74.9744 90.1441" stroke="#7F8998" stroke-width="1.77072" stroke-linecap="round"/>
<path d="M69.4902 86.0322C69.6393 86.3038 70.2057 87.3359 71.2788 89.2913" stroke="#7F8998" stroke-width="1.77072" stroke-linecap="round"/>
<path d="M100.412 142.002C100.318 141.839 99.9624 141.218 99.2878 140.041" stroke="#7F8998" stroke-width="1.77072" stroke-linecap="round"/>
<path d="M33.9473 102.45C34.1114 102.543 34.735 102.894 35.9166 103.559" stroke="#7F8998" stroke-width="2" stroke-linecap="round"/>
<path d="M104.092 134.551C103.91 134.599 103.218 134.782 101.907 135.129" stroke="#7F8998" stroke-width="2" stroke-linecap="round"/>
<path d="M80.4727 155.772C80.4727 155.961 80.4727 156.676 80.4727 158.033" stroke="#7F8998" stroke-width="2" stroke-linecap="round"/>
<path d="M82.9688 155.923C83.0629 156.086 83.4208 156.706 84.0988 157.88" stroke="#7F8998" stroke-width="1.77072" stroke-linecap="round"/>
<path d="M85.1562 154.381C85.3194 154.475 85.9392 154.833 87.1135 155.511" stroke="#7F8998" stroke-width="2" stroke-linecap="round"/>
<path d="M99.4336 108.271C99.3054 108.196 98.8183 107.915 97.8953 107.382" stroke="#7F8998" stroke-width="2" stroke-linecap="round"/>
<path d="M96.4316 100.178C96.3375 100.341 95.9796 100.961 95.3016 102.135" stroke="#7F8998" stroke-width="2" stroke-linecap="round"/>
<path d="M63.4805 126.287C63.878 126.616 64.321 127.136 65.429 127.231C66.8142 127.349 67.1724 127.231 67.6934 126.82" stroke="black" stroke-width="1.01222" stroke-linecap="round"/>
<path d="M55.8886 156.324L67 156.324L67 160.109C62.6527 160.736 53.6636 161.941 52.4859 161.745C51.0139 161.5 51.6681 151.195 53.222 152.095C54.4651 152.814 55.5176 155.214 55.8886 156.324Z" fill="black"/>
<path d="M37.7362 154.931L48.8477 154.931L48.8477 158.717C44.5003 159.344 35.5113 160.549 34.3336 160.352C32.8615 160.107 33.5158 149.803 35.0696 150.702C36.3127 151.422 37.3653 153.821 37.7362 154.931Z" fill="black"/>
</svg>
