<svg xmlns="http://www.w3.org/2000/svg" version="1.1" xmlns:xlink="http://www.w3.org/1999/xlink" xmlns:svgjs="http://svgjs.dev/svgjs" width="118" height="124"><svg width="118" height="124" viewBox="0 0 118 124" fill="none" xmlns="http://www.w3.org/2000/svg">
<ellipse cx="61.4311" cy="119.487" rx="46.7651" ry="3.94746" fill="black" fill-opacity="0.09"></ellipse>
<path d="M28.3086 94.2769C28.4688 94.0256 29.0777 93.071 30.2313 91.2622" stroke="#ABB3C0" stroke-width="2.38865" stroke-linecap="round"></path>
<path d="M3.87938 70.0986C3.47659 70.4927 3.27496 71.2684 3.51782 71.9822C1.14741 72.1929 1.41847 75.6516 3.47046 75.3732C5.11204 75.1504 14.0732 72.9884 18.3487 71.9352L18.8964 70.1687C19.1617 69.3132 18.4265 68.4833 17.5472 68.6543C15.9294 68.9691 13.9548 69.3791 12.7712 69.7034L6.10634 71.5295C5.90416 71.3957 5.39637 70.9579 4.98271 70.2767C4.46564 69.4252 4.38287 69.6058 3.87938 70.0986Z" fill="black"></path>
<path d="M51.4244 113.784V98.7954H56.5311C57.3769 104.66 59.0023 116.786 58.7376 118.374C58.4066 120.36 44.506 119.478 45.7196 117.382C46.6904 115.705 49.9273 114.285 51.4244 113.784Z" fill="black"></path>
<path d="M70.2916 113.784V98.7954H75.3983C76.2441 104.66 77.8695 116.786 77.6047 118.374C77.2738 120.36 63.3732 119.478 64.5868 117.382C65.5576 115.705 68.7945 114.285 70.2916 113.784Z" fill="black"></path>
<path d="M13.7453 52.2914L13.7672 52.1518L13.7725 52.0107C14.2962 38.099 18.5246 26.4029 26.6982 18.1905C34.827 10.0231 47.1517 5.00618 64.4957 4.97371C80.2254 7.24472 92.228 12.339 100.302 20.5085C108.339 28.6414 112.761 40.1041 112.783 55.7097C111.336 70.0541 106.369 81.4594 98.0376 89.1381C89.7043 96.8187 77.7133 101.04 61.6866 100.437C47.7791 99.9131 34.5467 95.3216 25.4537 87.1806C16.4485 79.1181 11.3621 67.4671 13.7453 52.2914Z" fill="#EEF2F4" stroke="url(#paint0_linear_86_950)" stroke-width="4.77731"></path>
<path d="M52.0508 49.4639C52.0525 49.3949 52.0592 49.133 52.0718 48.6367" stroke="black" stroke-width="2.38865" stroke-linecap="round"></path>
<path d="M63.1426 51.1191C63.1426 51.0725 63.1426 50.4603 63.1426 50.1242" stroke="black" stroke-width="2.38865" stroke-linecap="round"></path>
<path d="M114.34 73.3301C113.969 73.1374 112.56 72.4051 109.89 71.0177" stroke="#ABB3C0" stroke-width="2.38865" stroke-linecap="round"></path>
<path d="M108.197 24.957C107.807 25.1065 106.324 25.6746 103.514 26.7509" stroke="#ABB3C0" stroke-width="2.38865" stroke-linecap="round"></path>
<path d="M77.6328 3.51367C77.3217 3.79269 76.1394 4.85294 73.8992 6.86184" stroke="#ABB3C0" stroke-width="2.38865" stroke-linecap="round"></path>
<path d="M66.502 1.31543C66.703 1.6818 67.4671 3.074 68.9147 5.71185" stroke="#ABB3C0" stroke-width="2.38865" stroke-linecap="round"></path>
<path d="M108.217 76.8164C108.09 76.596 107.61 75.7585 106.7 74.1717" stroke="#ABB3C0" stroke-width="2.38865" stroke-linecap="round"></path>
<path d="M18.5547 23.4614C18.7761 23.5861 19.6173 24.0597 21.2113 24.9571" stroke="#ABB3C0" stroke-width="2.38865" stroke-linecap="round"></path>
<path d="M113.178 66.7646C112.932 66.8297 111.999 67.0768 110.231 67.5451" stroke="#ABB3C0" stroke-width="1.19433" stroke-linecap="round"></path>
<path d="M81.3164 95.3926C81.3164 95.6466 81.3164 96.6121 81.3164 98.4413" stroke="#ABB3C0" stroke-width="1.19433" stroke-linecap="round"></path>
<path d="M84.6855 95.5972C84.8126 95.8172 85.2953 96.6533 86.2099 98.2374" stroke="#ABB3C0" stroke-width="2.38865" stroke-linecap="round"></path>
<path d="M87.6328 93.5146C87.8528 93.6417 88.6889 94.1244 90.2731 95.039" stroke="#ABB3C0" stroke-width="1.19433" stroke-linecap="round"></path>
<path d="M106.893 31.314C106.72 31.2141 106.063 30.8347 104.817 30.1159" stroke="#ABB3C0" stroke-width="1.19433" stroke-linecap="round"></path>
<path d="M102.842 20.396C102.715 20.616 102.232 21.4521 101.317 23.0363" stroke="#ABB3C0" stroke-width="1.19433" stroke-linecap="round"></path>
<path d="M44.2715 58.3574C46.6642 59.2171 49.3619 60.5422 55.8647 60.9917C63.9933 61.5535 66.0653 61.346 69.0305 60.4771" stroke="black" stroke-width="2.38865" stroke-linecap="round"></path>
<defs>
<linearGradient id="SvgjsLinearGradient1001" x1="24.422" y1="27.0963" x2="102.035" y2="93.2336" gradientUnits="userSpaceOnUse">
<stop stop-color="#EEF2F4"></stop>
<stop offset="1" stop-color="#DAE3EA"></stop>
</linearGradient>
</defs>
</svg><style>@media (prefers-color-scheme: light) { :root { filter: none; } }
@media (prefers-color-scheme: dark) { :root { filter: none; } }
</style></svg>