<svg width="198" height="73" viewBox="0 0 198 73" fill="none" xmlns="http://www.w3.org/2000/svg">
<mask id="path-1-inside-1_11_9305" fill="white">
<path fill-rule="evenodd" clip-rule="evenodd" d="M89.1076 64L100.053 73L110.998 64L198 64L198 0L6.38186e-06 -1.73097e-05L7.86805e-07 64L89.1076 64Z"/>
</mask>
<path fill-rule="evenodd" clip-rule="evenodd" d="M89.1076 64L100.053 73L110.998 64L198 64L198 0L6.38186e-06 -1.73097e-05L7.86805e-07 64L89.1076 64Z" fill="white"/>
<path d="M100.053 73L99.4175 73.7724L100.053 74.2947L100.688 73.7724L100.053 73ZM89.1076 64L89.7427 63.2276L89.4659 63L89.1076 63L89.1076 64ZM110.998 64L110.998 63L110.639 63L110.363 63.2276L110.998 64ZM198 64L198 65L199 65L199 64L198 64ZM198 0L199 8.74228e-08L199 -1L198 -1L198 0ZM6.38186e-06 -1.73097e-05L6.46929e-06 -1.00002L-0.999994 -1.00002L-0.999994 -1.73971e-05L6.38186e-06 -1.73097e-05ZM7.86805e-07 64L-0.999999 64L-0.999999 65L6.99382e-07 65L7.86805e-07 64ZM100.688 72.2276L89.7427 63.2276L88.4725 64.7724L99.4175 73.7724L100.688 72.2276ZM110.363 63.2276L99.4175 72.2276L100.688 73.7724L111.633 64.7724L110.363 63.2276ZM198 63L110.998 63L110.998 65L198 65L198 63ZM197 -8.74228e-08L197 64L199 64L199 8.74228e-08L197 -8.74228e-08ZM6.29444e-06 0.999983L198 1L198 -1L6.46929e-06 -1.00002L6.29444e-06 0.999983ZM1 64L1.00001 -1.72223e-05L-0.999994 -1.73971e-05L-0.999999 64L1 64ZM89.1076 63L8.74228e-07 63L6.99382e-07 65L89.1076 65L89.1076 63Z" fill="#D9DAE2" mask="url(#path-1-inside-1_11_9305)"/>
<path d="M70.2771 16.432V17.488H79.7971V18.864H68.5491V12.608H79.7171V14H70.2771V15.072H79.5251V16.432H70.2771ZM67.5891 21.392V19.968H80.6611V21.392H67.5891ZM79.7171 27.088H68.5491V22.56H79.7171V27.088ZM77.9731 25.68V23.968H70.2771V25.68H77.9731ZM85.9885 22.848C85.4125 24.128 84.1965 25.296 82.7245 25.968V24.352C84.1805 23.472 85.1245 22 85.1245 18.784V12.608H86.8365V18.784C86.8365 22.016 87.7805 23.456 89.2525 24.368V25.968C87.7805 25.312 86.5805 24.112 85.9885 22.848ZM95.3485 26.944H93.6525V19.728H91.8605V26.768H90.1805V12.528H91.8605V18.208H93.6525V12.432H95.3485V26.944ZM102.452 22.352C101.812 24.016 100.116 25.36 98.2599 25.968V24.368C100.004 23.568 101.588 22.096 101.588 18.048V12.608H103.316V18.048C103.316 22.096 104.9 23.552 106.628 24.368V25.968C104.804 25.344 103.108 24 102.452 22.352ZM110.484 12.432V26.944H108.74V12.432H110.484ZM119.187 14.128H113.955V12.608H120.931V13.648C120.931 18.352 118.291 20.704 113.619 21.248V19.744C117.235 19.264 119.187 17.296 119.187 14.128ZM125.491 12.432V16.384H127.603V17.92H125.491V22.592H123.747V12.432H125.491ZM116.515 22.08V25.504H125.763V27.008H114.787V22.08H116.515ZM65.4653 38.784H57.2093V37.392H60.5213V36.016H62.2493V37.392H65.4653V38.784ZM59.3213 41.808C59.3213 42.096 59.4813 42.32 59.7533 42.496C60.1213 42.72 60.6973 42.832 61.3533 42.832C61.9613 42.832 62.5053 42.752 62.8893 42.544C63.1933 42.384 63.3853 42.144 63.3853 41.808C63.3853 41.504 63.2093 41.28 62.9213 41.104C62.5373 40.912 61.9933 40.8 61.3533 40.8C60.7293 40.8 60.1533 40.912 59.7853 41.104C59.4973 41.28 59.3213 41.504 59.3213 41.808ZM57.6413 41.808C57.6413 41.056 58.0093 40.464 58.6653 40.048C59.3053 39.68 60.2013 39.472 61.3533 39.472C62.4413 39.472 63.3373 39.68 63.9933 40.048C64.6653 40.448 65.0493 41.04 65.0493 41.808C65.0493 42.576 64.6973 43.168 64.0573 43.552C63.4333 43.952 62.5053 44.176 61.3533 44.176C60.2493 44.176 59.3213 43.968 58.6653 43.568C58.0253 43.184 57.6413 42.576 57.6413 41.808ZM69.2413 39.648H71.3533V41.168H69.2413V44.096H67.4973V36.432H69.2413V39.648ZM60.2653 49.776H69.4173V51.088H58.5373V47.392H67.4973V46.288H58.5373V44.96H69.2413V48.672H60.2653V49.776ZM73.0646 39.824C73.0646 38.64 73.5606 37.728 74.3766 37.104C75.0166 36.608 75.8966 36.336 76.8726 36.336C77.8646 36.336 78.7286 36.608 79.3846 37.104C80.1846 37.728 80.6806 38.64 80.6806 39.824C80.6806 41.008 80.1846 41.952 79.3846 42.544C78.7286 43.04 77.8646 43.312 76.8726 43.312C75.8966 43.312 75.0166 43.04 74.3766 42.544C73.5606 41.952 73.0646 41.008 73.0646 39.824ZM74.7606 39.824C74.7606 40.496 75.0166 41.024 75.4326 41.392C75.8006 41.696 76.2966 41.888 76.8726 41.888C77.4486 41.888 77.9606 41.696 78.3286 41.392C78.7286 41.024 78.9846 40.496 78.9846 39.824C78.9846 39.168 78.7286 38.64 78.3286 38.288C77.9606 37.968 77.4486 37.792 76.8726 37.792C76.2966 37.792 75.8006 37.968 75.4326 38.288C75.0166 38.64 74.7606 39.168 74.7606 39.824ZM84.9846 43.44H83.2406V36.432H84.9846V43.44ZM75.8806 48.416V49.68H85.1606V51.088H74.1366V47.04H83.2406V45.744H74.1366V44.352H84.9846V48.416H75.8806ZM92.9203 39.824C92.9203 38.64 93.4163 37.728 94.2163 37.104C94.8723 36.608 95.7363 36.336 96.7123 36.336C97.7043 36.336 98.5683 36.608 99.2403 37.104C100.024 37.728 100.52 38.64 100.52 39.824C100.52 41.008 100.024 41.952 99.2403 42.544C98.5683 43.04 97.7043 43.312 96.7123 43.312C95.7363 43.312 94.8723 43.04 94.2163 42.544C93.4163 41.952 92.9203 41.008 92.9203 39.824ZM94.6163 39.824C94.6163 40.496 94.8723 41.024 95.2723 41.392C95.6403 41.696 96.1363 41.888 96.7123 41.888C97.3043 41.888 97.8163 41.696 98.1683 41.392C98.5683 41.024 98.8243 40.496 98.8243 39.824C98.8243 39.168 98.5683 38.64 98.1683 38.288C97.8163 37.968 97.3043 37.792 96.7123 37.792C96.1363 37.792 95.6403 37.968 95.2723 38.288C94.8723 38.64 94.6163 39.168 94.6163 39.824ZM104.616 36.432V39.152H106.728V40.688H104.616V43.488H102.872V36.432H104.616ZM95.6403 48.416V49.68H104.792V51.088H93.9123V47.04H102.872V45.744H93.9123V44.352H104.616V48.416H95.6403ZM114.04 49.968H108.744V42.496H113.384V38.224H108.744V36.688H115.096V44.016H110.472V48.448H114.136C115.208 48.448 116.2 48.368 116.936 48.112V49.552C116.216 49.84 115.16 49.968 114.04 49.968ZM120.328 36.432V50.944H118.584V45.904H115.928V44.384H118.584V41.264H115.928V39.744H118.584V36.432H120.328ZM135.639 38.08H130.903C131.111 39.52 133.543 40.32 135.783 40.496V41.968C133.463 41.808 131.191 41.056 130.039 39.808C128.871 41.056 126.583 41.824 124.263 41.968V40.496C126.503 40.352 128.935 39.52 129.143 38.08H124.471V36.608H135.639V38.08ZM123.511 44.512V43.024H136.583V44.512H130.887V46.064H135.639V51.088H124.471V46.064H129.175V44.512H123.511ZM133.895 49.632V47.536H126.199V49.632H133.895ZM141.126 37.44V39.632L140.95 46.512H139.51L139.334 39.632V37.44H141.126ZM141.142 48.112V49.984H139.318V48.112H141.142Z" fill="#040404"/>
</svg>
