<svg width="161" height="160" viewBox="0 0 161 160" fill="none" xmlns="http://www.w3.org/2000/svg">
<ellipse cx="90.6168" cy="144.011" rx="45.6793" ry="4.06152" fill="#919191" fill-opacity="0.29"/>
<path d="M75.2021 113.943C70.7521 114.442 67.3164 118.087 67.0819 122.558L66.4927 133.795C66.1647 140.051 71.3616 145.196 77.6141 144.805C83.8905 144.413 88.4109 138.621 87.2667 132.437L85.2194 121.373C84.3459 116.652 79.973 113.409 75.2021 113.943Z" fill="black" stroke="white" stroke-width="1.66667"/>
<path d="M134.311 78.5132C131.282 108.976 113.145 128.145 79.1877 126.867C49.6999 125.757 22.3583 107.397 27.5257 74.493C28.6358 45.0051 45.5109 23.7315 82.3449 23.7315C115.496 28.4673 134.311 45.3057 134.311 78.5132Z" fill="#EEF2F4"/>
<path d="M83.9942 96.2381C83.3135 91.8446 86.1031 87.6594 90.4203 86.5971C94.8331 85.5113 99.3268 88.0561 100.665 92.3989L103.838 102.693C105.456 107.943 102.359 113.481 97.0388 114.851C91.8047 116.198 86.5502 112.736 85.7228 107.395L83.9942 96.2381Z" fill="black"/>
<path d="M73.2506 60.69C72.2493 61.1132 73.1355 63.8896 73.7037 65.2249C74.3777 66.7134 75.562 66.9549 76.0699 66.8895C76.0699 66.8895 77.9342 66.5514 77.8605 63.5613C77.7868 60.5712 76.7422 60.0205 76.229 60.119C75.6535 60.133 74.252 60.2668 73.2506 60.69Z" fill="black"/>
<rect width="4.66143" height="1.63743" rx="0.818717" transform="matrix(-0.992899 0.118956 0.086297 0.99627 81.7988 53.1182)" fill="black"/>
<rect width="4.66143" height="1.63743" rx="0.818717" transform="matrix(-0.992899 0.118956 0.086297 0.99627 81.9082 54.5)" fill="black"/>
<rect width="4.70453" height="1.60278" rx="0.80139" transform="matrix(0.955883 -0.293749 0.222895 0.974843 65.2871 56.207)" fill="black"/>
<rect width="4.70453" height="1.60278" rx="0.80139" transform="matrix(0.955883 -0.293749 0.222895 0.974843 65.5996 57.5273)" fill="black"/>
<path d="M18.2056 43.0099C19.8398 41.9245 22.0375 43.0053 22.1754 44.9623L22.3362 47.2453L24.1297 48.6671C25.667 49.8859 25.3182 52.3101 23.4995 53.046L21.378 53.9044L20.5799 56.0494C19.8958 57.8881 17.4825 58.3055 16.2207 56.8032L14.7486 55.0508L12.4619 54.9547C10.5018 54.8722 9.35914 52.7061 10.3979 51.0418L11.6097 49.1003L10.9945 46.8959C10.4672 45.0062 12.1743 43.2501 14.0782 43.7237L16.2991 44.2762L18.2056 43.0099Z" fill="#54E194"/>
<path d="M146.197 99.2012L145.739 98.4432L144.871 98.2692L142.627 97.8195C142.213 97.7365 142.043 97.2378 142.319 96.9186L143.818 95.1887L144.397 94.5195L144.294 93.6402L144.029 91.3671C143.98 90.9477 144.401 90.6313 144.79 90.7956L146.899 91.686L147.714 92.0304L148.519 91.6609L150.598 90.7058C150.982 90.5295 151.413 90.8327 151.377 91.2534L151.182 93.5337L151.106 94.4158L151.706 95.0667L153.257 96.7495C153.544 97.06 153.388 97.5637 152.977 97.6595L150.748 98.1784L149.886 98.3791L149.452 99.1508L148.331 101.146C148.124 101.514 147.597 101.522 147.379 101.161L146.197 99.2012Z" stroke="#FF6512" stroke-width="4.01777"/>
<path d="M22.9884 33.6133C23.2526 32.6424 24.4658 32.3173 25.18 33.0261L26.0131 33.8529L27.1855 33.7959C28.1905 33.7471 28.8746 34.8005 28.4212 35.6988L27.8923 36.7466L28.3088 37.844C28.6658 38.7847 27.8753 39.7608 26.881 39.6072L25.7209 39.428L24.8059 40.1632C24.0216 40.7934 22.849 40.3433 22.6878 39.3501L22.4997 38.1915L21.5178 37.5485C20.676 36.9973 20.7418 35.743 21.6365 35.2827L22.6803 34.7459L22.9884 33.6133Z" fill="#FFC812"/>
<path d="M150.102 112.672C150.308 113.656 149.376 114.498 148.418 114.192L147.299 113.835L146.281 114.419C145.409 114.92 144.32 114.294 144.315 113.287L144.309 112.114L143.439 111.326C142.693 110.651 142.952 109.422 143.908 109.106L145.022 108.738L145.502 107.667C145.914 106.749 147.163 106.616 147.758 107.427L148.453 108.373L149.62 108.498C150.62 108.606 151.133 109.753 150.546 110.57L149.861 111.523L150.102 112.672Z" fill="#54E194"/>
<mask id="path-14-inside-1_86_3077" fill="white">
<path fill-rule="evenodd" clip-rule="evenodd" d="M35.4091 79.5105C35.1303 79.4897 34.8503 79.4737 34.5689 79.4625C33.7656 76.9651 31.8682 75.2327 29.7124 75.3018C27.1962 75.3825 25.1884 77.8899 24.9097 81.0941C24.2329 81.3615 23.5713 81.6592 22.9267 81.9855C22.1156 81.7217 21.2215 81.5756 20.2823 81.5756C16.5883 81.5756 13.5938 83.8357 13.5938 86.6236C13.5938 87.5428 13.9192 88.4046 14.488 89.1469C14.3089 89.3913 14.1343 89.6392 13.9644 89.8905C10.6676 90.2028 8.11719 92.3261 8.11719 94.899C8.11719 96.3912 8.97501 97.7321 10.3388 98.6563C10.2364 99.19 10.152 99.7301 10.0861 100.276C7.56605 101 5.77539 102.84 5.77539 104.996C5.77539 107.09 7.4653 108.887 9.87214 109.651C9.02468 110.677 8.40429 112.044 8.16913 113.597C7.61621 117.25 9.40258 120.549 12.1591 120.966C12.5896 121.031 13.0182 121.022 13.4373 120.947C13.3695 121.217 13.3137 121.495 13.2707 121.779C12.7178 125.431 14.5041 128.73 17.2607 129.148C18.554 129.343 19.8311 128.87 20.8796 127.935C21.2909 130.398 22.8056 132.307 24.8583 132.617C27.4873 133.015 30.0493 130.648 30.7604 127.26C31.2375 128.2 31.944 129.102 32.8581 129.869C35.6871 132.245 39.4338 132.439 41.2265 130.304C42.0263 129.352 42.3021 128.097 42.1111 126.787C44.7487 128.389 47.8154 128.305 49.3847 126.436C50.631 124.952 50.6049 122.732 49.5228 120.719C49.5847 120.663 49.6463 120.607 49.7076 120.55C53.2809 121.411 56.7056 119.931 57.3682 117.234C57.6844 115.947 57.3148 114.614 56.4546 113.475C58.4463 113.037 59.9925 111.812 60.4151 110.091C60.7795 108.608 60.2329 107.063 59.074 105.826C60.7941 104.743 61.8325 103.074 61.6529 101.316C61.4234 99.0704 59.2753 97.3683 56.5149 97.0016C56.4567 96.7843 56.3955 96.5682 56.3314 96.3534C58.2307 93.8473 58.4455 90.7222 56.6961 88.971C55.7793 88.0532 54.4846 87.6744 53.0988 87.7949C54.1442 85.6141 54.0279 83.2613 52.5965 81.8284C50.7973 80.0272 47.5424 80.3022 45.0007 82.3515C44.8509 82.2694 44.7002 82.1888 44.5485 82.1098C44.5907 79.4612 43.3312 77.191 41.2476 76.574C39.1362 75.9489 36.8103 77.2084 35.4091 79.5105Z"/>
</mask>
<path fill-rule="evenodd" clip-rule="evenodd" d="M35.4091 79.5105C35.1303 79.4897 34.8503 79.4737 34.5689 79.4625C33.7656 76.9651 31.8682 75.2327 29.7124 75.3018C27.1962 75.3825 25.1884 77.8899 24.9097 81.0941C24.2329 81.3615 23.5713 81.6592 22.9267 81.9855C22.1156 81.7217 21.2215 81.5756 20.2823 81.5756C16.5883 81.5756 13.5938 83.8357 13.5938 86.6236C13.5938 87.5428 13.9192 88.4046 14.488 89.1469C14.3089 89.3913 14.1343 89.6392 13.9644 89.8905C10.6676 90.2028 8.11719 92.3261 8.11719 94.899C8.11719 96.3912 8.97501 97.7321 10.3388 98.6563C10.2364 99.19 10.152 99.7301 10.0861 100.276C7.56605 101 5.77539 102.84 5.77539 104.996C5.77539 107.09 7.4653 108.887 9.87214 109.651C9.02468 110.677 8.40429 112.044 8.16913 113.597C7.61621 117.25 9.40258 120.549 12.1591 120.966C12.5896 121.031 13.0182 121.022 13.4373 120.947C13.3695 121.217 13.3137 121.495 13.2707 121.779C12.7178 125.431 14.5041 128.73 17.2607 129.148C18.554 129.343 19.8311 128.87 20.8796 127.935C21.2909 130.398 22.8056 132.307 24.8583 132.617C27.4873 133.015 30.0493 130.648 30.7604 127.26C31.2375 128.2 31.944 129.102 32.8581 129.869C35.6871 132.245 39.4338 132.439 41.2265 130.304C42.0263 129.352 42.3021 128.097 42.1111 126.787C44.7487 128.389 47.8154 128.305 49.3847 126.436C50.631 124.952 50.6049 122.732 49.5228 120.719C49.5847 120.663 49.6463 120.607 49.7076 120.55C53.2809 121.411 56.7056 119.931 57.3682 117.234C57.6844 115.947 57.3148 114.614 56.4546 113.475C58.4463 113.037 59.9925 111.812 60.4151 110.091C60.7795 108.608 60.2329 107.063 59.074 105.826C60.7941 104.743 61.8325 103.074 61.6529 101.316C61.4234 99.0704 59.2753 97.3683 56.5149 97.0016C56.4567 96.7843 56.3955 96.5682 56.3314 96.3534C58.2307 93.8473 58.4455 90.7222 56.6961 88.971C55.7793 88.0532 54.4846 87.6744 53.0988 87.7949C54.1442 85.6141 54.0279 83.2613 52.5965 81.8284C50.7973 80.0272 47.5424 80.3022 45.0007 82.3515C44.8509 82.2694 44.7002 82.1888 44.5485 82.1098C44.5907 79.4612 43.3312 77.191 41.2476 76.574C39.1362 75.9489 36.8103 77.2084 35.4091 79.5105Z" fill="#FF6422"/>
<path d="M34.5689 79.4625L32.61 80.0927L33.0504 81.4619L34.4877 81.5187L34.5689 79.4625ZM35.4091 79.5105L35.2556 81.5626L36.5119 81.6565L37.1669 80.5804L35.4091 79.5105ZM29.7124 75.3018L29.6464 73.2451V73.2451L29.7124 75.3018ZM24.9097 81.0941L25.666 83.0079L26.8495 82.5402L26.9598 81.2724L24.9097 81.0941ZM22.9267 81.9855L22.2903 83.9424L23.0981 84.2051L23.856 83.8215L22.9267 81.9855ZM14.488 89.1469L16.1476 90.3635L17.0595 89.1197L16.1215 87.8954L14.488 89.1469ZM13.9644 89.8905L14.1584 91.9392L15.1254 91.8476L15.6693 91.0428L13.9644 89.8905ZM10.3388 98.6563L12.3597 99.0438L12.6149 97.713L11.4931 96.9528L10.3388 98.6563ZM10.0861 100.276L10.654 102.254L11.9655 101.877L12.1291 100.523L10.0861 100.276ZM9.87214 109.651L11.4588 110.961L13.3991 108.612L10.4949 107.689L9.87214 109.651ZM8.16913 113.597L6.13453 113.289H6.13453L8.16913 113.597ZM12.1591 120.966L11.8511 123.001H11.8511L12.1591 120.966ZM13.4373 120.947L15.4334 121.447L16.2072 118.357L13.0727 118.922L13.4373 120.947ZM13.2707 121.779L15.3053 122.087L13.2707 121.779ZM17.2607 129.148L16.9527 131.182L17.2607 129.148ZM20.8796 127.935L22.9092 127.596L22.2946 123.916L19.5101 126.399L20.8796 127.935ZM24.8583 132.617L24.5503 134.652H24.5503L24.8583 132.617ZM30.7604 127.26L32.5957 126.329L29.9485 121.11L28.7465 126.837L30.7604 127.26ZM32.8581 129.869L34.1814 128.293L32.8581 129.869ZM41.2265 130.304L39.6506 128.981H39.6506L41.2265 130.304ZM42.1111 126.787L43.1791 125.028L39.4439 122.76L40.0748 127.084L42.1111 126.787ZM49.3847 126.436L47.8088 125.113H47.8088L49.3847 126.436ZM49.5228 120.719L48.1414 119.194L46.9479 120.275L47.7103 121.694L49.5228 120.719ZM49.7076 120.55L50.1896 118.55L49.1188 118.292L48.3102 119.04L49.7076 120.55ZM57.3682 117.234L55.3698 116.743L57.3682 117.234ZM56.4546 113.475L56.0123 111.466L52.8786 112.155L54.8127 114.716L56.4546 113.475ZM60.4151 110.091L62.4135 110.582L60.4151 110.091ZM59.074 105.826L57.978 104.084L55.8677 105.412L57.5718 107.232L59.074 105.826ZM61.6529 101.316L59.6057 101.526L61.6529 101.316ZM56.5149 97.0016L54.5271 97.5337L54.8822 98.8606L56.2439 99.0415L56.5149 97.0016ZM56.3314 96.3534L54.6914 95.1104L54.061 95.9422L54.3596 96.9422L56.3314 96.3534ZM56.6961 88.971L55.2402 90.4253L55.2402 90.4253L56.6961 88.971ZM53.0988 87.7949L51.2432 86.9053L49.6844 90.1571L53.2769 89.8449L53.0988 87.7949ZM52.5965 81.8284L51.1406 83.2827V83.2827L52.5965 81.8284ZM45.0007 82.3515L44.0109 84.1556L45.2193 84.8186L46.2923 83.9535L45.0007 82.3515ZM44.5485 82.1098L42.4909 82.0769L42.4707 83.3479L43.5981 83.9349L44.5485 82.1098ZM41.2476 76.574L41.8318 74.6009V74.6009L41.2476 76.574ZM34.4877 81.5187C34.7449 81.5289 35.0009 81.5435 35.2556 81.5626L35.5625 77.4585C35.2598 77.4358 34.9556 77.4184 34.6502 77.4064L34.4877 81.5187ZM29.7783 77.3585C30.6856 77.3294 31.9714 78.1075 32.61 80.0927L36.5279 78.8324C35.5598 75.8227 33.0508 73.1359 29.6464 73.2451L29.7783 77.3585ZM26.9598 81.2724C27.1908 78.6161 28.7305 77.3921 29.7783 77.3585L29.6464 73.2451C25.6618 73.3728 23.186 77.1636 22.8597 80.9158L26.9598 81.2724ZM23.856 83.8215C24.4445 83.5236 25.0483 83.2519 25.666 83.0079L24.1535 79.1803C23.4175 79.4711 22.6982 79.7948 21.9974 80.1495L23.856 83.8215ZM20.2823 83.6334C21.0092 83.6334 21.6883 83.7466 22.2903 83.9424L23.5631 80.0286C22.543 79.6968 21.4339 79.5178 20.2823 79.5178V83.6334ZM15.6515 86.6236C15.6515 86.017 15.9724 85.3155 16.7924 84.6966C17.6135 84.0769 18.8405 83.6334 20.2823 83.6334V79.5178C18.03 79.5178 15.9128 80.2043 14.3131 81.4116C12.7123 82.6198 11.536 84.4423 11.536 86.6236H15.6515ZM16.1215 87.8954C15.7936 87.4674 15.6515 87.0369 15.6515 86.6236H11.536C11.536 88.0487 12.0449 89.3417 12.8545 90.3984L16.1215 87.8954ZM15.6693 91.0428C15.8245 90.8132 15.984 90.5868 16.1476 90.3635L12.8284 87.9303C12.6338 88.1958 12.4441 88.4651 12.2595 88.7383L15.6693 91.0428ZM10.175 94.899C10.175 93.8293 11.4113 92.1994 14.1584 91.9392L13.7704 87.8419C9.92382 88.2062 6.0594 90.8229 6.0594 94.899H10.175ZM11.4931 96.9528C10.5436 96.3093 10.175 95.5447 10.175 94.899H6.0594C6.0594 97.2376 7.40642 99.1549 9.18438 100.36L11.4931 96.9528ZM12.1291 100.523C12.1892 100.024 12.2663 99.531 12.3597 99.0438L8.31779 98.2688C8.20651 98.8491 8.11473 99.4362 8.04313 100.029L12.1291 100.523ZM7.83318 104.996C7.83318 104.088 8.65113 102.829 10.654 102.254L9.51817 98.2981C6.48097 99.1702 3.7176 101.591 3.7176 104.996H7.83318ZM10.4949 107.689C8.59897 107.087 7.83318 105.879 7.83318 104.996H3.7176C3.7176 108.301 6.33163 110.686 9.24938 111.612L10.4949 107.689ZM10.2037 113.905C10.3866 112.697 10.8631 111.682 11.4588 110.961L8.28548 108.34C7.18627 109.671 6.42198 111.39 6.13453 113.289L10.2037 113.905ZM12.4671 118.931C11.8674 118.841 11.2218 118.418 10.7326 117.515C10.2428 116.61 9.98793 115.331 10.2037 113.905L6.13453 113.289C5.79741 115.516 6.15924 117.712 7.11353 119.475C8.06846 121.238 9.69434 122.674 11.8511 123.001L12.4671 118.931ZM13.0727 118.922C12.8687 118.958 12.6674 118.962 12.4671 118.931L11.8511 123.001C12.5118 123.101 13.1678 123.086 13.8019 122.972L13.0727 118.922ZM15.3053 122.087C15.3385 121.867 15.3815 121.654 15.4334 121.447L11.4411 120.447C11.3575 120.781 11.2888 121.122 11.2361 121.471L15.3053 122.087ZM17.5687 127.113C16.9689 127.022 16.3233 126.6 15.8342 125.697C15.3444 124.792 15.0895 123.512 15.3053 122.087L11.2361 121.471C10.899 123.698 11.2608 125.894 12.2151 127.656C13.17 129.42 14.7959 130.856 16.9527 131.182L17.5687 127.113ZM19.5101 126.399C18.8178 127.016 18.1345 127.199 17.5687 127.113L16.9527 131.182C18.9735 131.488 20.8443 130.724 22.2491 129.471L19.5101 126.399ZM25.1664 130.583C24.3002 130.452 23.2324 129.531 22.9092 127.596L18.8499 128.274C19.3495 131.265 21.3111 134.162 24.5503 134.652L25.1664 130.583ZM28.7465 126.837C28.1496 129.682 26.2567 130.748 25.1664 130.583L24.5503 134.652C28.718 135.283 31.9491 131.615 32.7744 127.683L28.7465 126.837ZM34.1814 128.293C33.4729 127.699 32.9434 127.015 32.5957 126.329L28.9252 128.191C29.5316 129.386 30.415 130.505 31.5349 131.445L34.1814 128.293ZM39.6506 128.981C39.2605 129.446 38.5637 129.777 37.5377 129.723C36.5105 129.67 35.2855 129.221 34.1814 128.293L31.5349 131.445C33.2598 132.894 35.3226 133.729 37.3241 133.833C39.3269 133.937 41.3998 133.298 42.8024 131.628L39.6506 128.981ZM40.0748 127.084C40.1984 127.931 40.0019 128.563 39.6506 128.981L42.8024 131.628C44.0506 130.141 44.4058 128.262 44.1473 126.49L40.0748 127.084ZM47.8088 125.113C47.1538 125.893 45.349 126.346 43.1791 125.028L41.043 128.546C44.1484 130.432 48.4769 130.718 50.9606 127.759L47.8088 125.113ZM47.7103 121.694C48.5413 123.24 48.3372 124.484 47.8088 125.113L50.9606 127.759C52.9247 125.42 52.6685 122.225 51.3354 119.745L47.7103 121.694ZM48.3102 119.04C48.2543 119.091 48.198 119.143 48.1414 119.194L50.9042 122.244C50.9714 122.184 51.0383 122.122 51.105 122.061L48.3102 119.04ZM55.3698 116.743C55.2256 117.33 54.7497 117.932 53.8123 118.338C52.8735 118.744 51.5838 118.886 50.1896 118.55L49.2256 122.551C51.4047 123.076 53.6141 122.908 55.4465 122.115C57.2805 121.322 58.8482 119.835 59.3666 117.725L55.3698 116.743ZM54.8127 114.716C55.3836 115.471 55.508 116.18 55.3698 116.743L59.3666 117.725C59.8608 115.713 59.2461 113.757 58.0966 112.235L54.8127 114.716ZM58.4167 109.6C58.2363 110.335 57.494 111.139 56.0123 111.466L56.897 115.485C59.3986 114.934 61.7486 113.289 62.4135 110.582L58.4167 109.6ZM57.5718 107.232C58.3863 108.102 58.5741 108.96 58.4167 109.6L62.4135 110.582C62.985 108.256 62.0795 106.025 60.5761 104.419L57.5718 107.232ZM59.6057 101.526C59.6824 102.276 59.2564 103.279 57.978 104.084L60.1699 107.567C62.3318 106.207 63.9825 103.872 63.7 101.107L59.6057 101.526ZM56.2439 99.0415C58.4678 99.3369 59.5094 100.583 59.6057 101.526L63.7 101.107C63.3373 97.5574 60.0828 95.3997 56.7859 94.9618L56.2439 99.0415ZM54.3596 96.9422C54.4182 97.1382 54.474 97.3354 54.5271 97.5337L58.5027 96.4696C58.4394 96.2332 58.3729 95.9982 58.3031 95.7646L54.3596 96.9422ZM55.2402 90.4253C55.9696 91.1554 56.2594 93.0415 54.6914 95.1104L57.9714 97.5963C60.202 94.6532 60.9213 90.289 58.152 87.5167L55.2402 90.4253ZM53.2769 89.8449C54.1888 89.7657 54.8389 90.0235 55.2402 90.4253L58.152 87.5167C56.7197 86.0829 54.7804 85.5832 52.9207 85.7448L53.2769 89.8449ZM51.1406 83.2827C51.7456 83.8883 52.058 85.2057 51.2432 86.9053L54.9544 88.6844C56.2305 86.0224 56.3101 82.6343 54.0524 80.3741L51.1406 83.2827ZM46.2923 83.9535C48.405 82.2501 50.392 82.5332 51.1406 83.2827L54.0524 80.3741C51.2025 77.5212 46.6799 78.3544 43.7091 80.7495L46.2923 83.9535ZM43.5981 83.9349C43.7366 84.007 43.8742 84.0806 44.0109 84.1556L45.9905 80.5474C45.8277 80.4581 45.6638 80.3705 45.4989 80.2846L43.5981 83.9349ZM40.6634 78.5472C41.5398 78.8067 42.5246 79.9669 42.4909 82.0769L46.606 82.1426C46.6569 78.9555 45.1225 75.5753 41.8318 74.6009L40.6634 78.5472ZM37.1669 80.5804C38.2876 78.7391 39.7761 78.2844 40.6634 78.5472L41.8318 74.6009C38.4964 73.6133 35.333 75.6776 33.6513 78.4406L37.1669 80.5804Z" fill="#C43B00" mask="url(#path-14-inside-1_86_3077)"/>
<rect x="12.8281" y="111.361" width="10.9476" height="5.66294" rx="2.83147" transform="rotate(-28.4404 12.8281 111.361)" fill="white" fill-opacity="0.4"/>
<rect x="12.8281" y="99.6221" width="7.64491" height="5.66294" rx="2.83147" transform="rotate(2.74415 12.8281 99.6221)" fill="white" fill-opacity="0.4"/>
<mask id="path-18-inside-2_86_3077" fill="white">
<path fill-rule="evenodd" clip-rule="evenodd" d="M143.602 36.9792C143.819 36.9236 144.04 36.8757 144.266 36.8359C147.904 36.1944 151.246 37.9001 151.73 40.6457C151.992 42.134 151.361 43.6224 150.149 44.7757C150.237 44.9116 150.324 45.0485 150.409 45.1864C153.631 44.9977 156.411 46.6309 156.849 49.1164C157.208 51.1542 155.892 53.1922 153.703 54.3698C153.712 54.4379 153.721 54.5061 153.729 54.5743C153.983 54.7517 154.231 54.9455 154.472 55.1554C157.258 57.581 158.033 61.2518 156.202 63.3546C155.365 64.3166 154.127 64.7837 152.764 64.7751C152.689 65.0038 152.611 65.231 152.53 65.4566C154.759 67.8505 155.263 71.0843 153.589 73.0069C152.193 74.6102 149.686 74.8389 147.339 73.7819C147.227 73.8976 147.114 74.0122 147 74.1255C148.032 77.2258 147.15 80.374 144.832 81.4292C142.863 82.3252 140.437 81.4491 138.734 79.4415L138.698 79.4549C138.424 82.3198 136.718 84.5914 134.417 84.8522C132.215 85.1017 130.132 83.4339 129.161 80.8959C129.098 80.8923 129.035 80.8886 128.972 80.8846C127.934 83.4868 125.741 85.1594 123.498 84.8199C121.338 84.4928 119.773 82.3959 119.464 79.7461C118.464 80.544 117.283 80.9344 116.088 80.7534C113.826 80.411 112.217 78.1279 112.018 75.3015C110.541 75.0057 109.325 74.2004 108.719 72.9536C108.495 72.4932 108.369 72.0047 108.334 71.5039C106.102 71.6344 104.119 70.7547 103.285 69.0414C102.358 67.1363 103.12 64.7487 104.996 63.0029C103.978 62.5959 103.16 61.9014 102.697 60.9496C101.491 58.4701 103.144 55.1734 106.395 53.5379C105.735 53.1286 105.205 52.5692 104.865 51.8715C103.645 49.3645 105.349 46.0221 108.671 44.406C109.665 43.9226 110.69 43.6484 111.673 43.5686C111.728 43.4944 111.784 43.4205 111.84 43.3469C110.971 40.8952 112.666 37.8142 115.814 36.283C117.497 35.464 119.273 35.2455 120.774 35.5555C121.407 34.0533 122.742 32.6478 124.564 31.7615C127.885 30.1454 131.567 30.8676 132.787 33.3746C132.806 33.415 132.825 33.4556 132.843 33.4965C133.529 32.7203 134.418 32.0357 135.47 31.5242C138.792 29.9081 142.473 30.6303 143.693 33.1373C144.269 34.3215 144.193 35.6921 143.602 36.9792Z"/>
</mask>
<path fill-rule="evenodd" clip-rule="evenodd" d="M143.602 36.9792C143.819 36.9236 144.04 36.8757 144.266 36.8359C147.904 36.1944 151.246 37.9001 151.73 40.6457C151.992 42.134 151.361 43.6224 150.149 44.7757C150.237 44.9116 150.324 45.0485 150.409 45.1864C153.631 44.9977 156.411 46.6309 156.849 49.1164C157.208 51.1542 155.892 53.1922 153.703 54.3698C153.712 54.4379 153.721 54.5061 153.729 54.5743C153.983 54.7517 154.231 54.9455 154.472 55.1554C157.258 57.581 158.033 61.2518 156.202 63.3546C155.365 64.3166 154.127 64.7837 152.764 64.7751C152.689 65.0038 152.611 65.231 152.53 65.4566C154.759 67.8505 155.263 71.0843 153.589 73.0069C152.193 74.6102 149.686 74.8389 147.339 73.7819C147.227 73.8976 147.114 74.0122 147 74.1255C148.032 77.2258 147.15 80.374 144.832 81.4292C142.863 82.3252 140.437 81.4491 138.734 79.4415L138.698 79.4549C138.424 82.3198 136.718 84.5914 134.417 84.8522C132.215 85.1017 130.132 83.4339 129.161 80.8959C129.098 80.8923 129.035 80.8886 128.972 80.8846C127.934 83.4868 125.741 85.1594 123.498 84.8199C121.338 84.4928 119.773 82.3959 119.464 79.7461C118.464 80.544 117.283 80.9344 116.088 80.7534C113.826 80.411 112.217 78.1279 112.018 75.3015C110.541 75.0057 109.325 74.2004 108.719 72.9536C108.495 72.4932 108.369 72.0047 108.334 71.5039C106.102 71.6344 104.119 70.7547 103.285 69.0414C102.358 67.1363 103.12 64.7487 104.996 63.0029C103.978 62.5959 103.16 61.9014 102.697 60.9496C101.491 58.4701 103.144 55.1734 106.395 53.5379C105.735 53.1286 105.205 52.5692 104.865 51.8715C103.645 49.3645 105.349 46.0221 108.671 44.406C109.665 43.9226 110.69 43.6484 111.673 43.5686C111.728 43.4944 111.784 43.4205 111.84 43.3469C110.971 40.8952 112.666 37.8142 115.814 36.283C117.497 35.464 119.273 35.2455 120.774 35.5555C121.407 34.0533 122.742 32.6478 124.564 31.7615C127.885 30.1454 131.567 30.8676 132.787 33.3746C132.806 33.415 132.825 33.4556 132.843 33.4965C133.529 32.7203 134.418 32.0357 135.47 31.5242C138.792 29.9081 142.473 30.6303 143.693 33.1373C144.269 34.3215 144.193 35.6921 143.602 36.9792Z" fill="#FF6422"/>
<path d="M144.266 36.8359L144.624 38.8624H144.624L144.266 36.8359ZM143.602 36.9792L141.732 36.1205L139.931 40.0426L144.112 38.9727L143.602 36.9792ZM151.73 40.6457L149.703 41.003V41.003L151.73 40.6457ZM150.149 44.7757L148.73 43.2846L147.492 44.4626L148.423 45.8963L150.149 44.7757ZM150.409 45.1864L148.66 46.2709L149.306 47.3123L150.53 47.2406L150.409 45.1864ZM156.849 49.1164L154.822 49.4737V49.4737L156.849 49.1164ZM153.703 54.3698L152.728 52.5574L151.474 53.2319L151.663 54.6433L153.703 54.3698ZM153.729 54.5743L151.687 54.8299L151.801 55.7368L152.55 56.2606L153.729 54.5743ZM154.472 55.1554L155.823 53.6034L155.823 53.6034L154.472 55.1554ZM156.202 63.3546L154.65 62.0034V62.0034L156.202 63.3546ZM152.764 64.7751L152.777 62.7174L151.273 62.7079L150.807 64.1376L152.764 64.7751ZM152.53 65.4566L150.594 64.7587L150.169 65.9397L151.024 66.8587L152.53 65.4566ZM153.589 73.0069L152.037 71.6557V71.6557L153.589 73.0069ZM147.339 73.7819L148.183 71.9056L146.864 71.3114L145.858 72.3523L147.339 73.7819ZM147 74.1255L145.549 72.6659L144.644 73.5652L145.047 74.7757L147 74.1255ZM144.832 81.4292L143.979 79.5563H143.979L144.832 81.4292ZM138.734 79.4415L140.303 78.1102L139.367 77.0063L138.011 77.5148L138.734 79.4415ZM138.698 79.4549L137.975 77.5283L136.772 77.9797L136.65 79.2588L138.698 79.4549ZM134.417 84.8522L134.185 82.8075L134.417 84.8522ZM129.161 80.8959L131.082 80.1605L130.606 78.9158L129.276 78.8413L129.161 80.8959ZM128.972 80.8846L129.104 78.831L127.614 78.7355L127.061 80.1223L128.972 80.8846ZM123.498 84.8199L123.19 86.8545L123.19 86.8545L123.498 84.8199ZM119.464 79.7461L121.508 79.5073L121.077 75.8255L118.18 78.1377L119.464 79.7461ZM116.088 80.7534L115.78 82.7881H115.78L116.088 80.7534ZM112.018 75.3015L114.071 75.1571L113.961 73.5919L112.422 73.2838L112.018 75.3015ZM108.719 72.9536L106.868 73.8538H106.868L108.719 72.9536ZM108.334 71.5039L110.387 71.3609L110.246 69.3309L108.214 69.4496L108.334 71.5039ZM103.285 69.0414L101.435 69.9417H101.435L103.285 69.0414ZM104.996 63.0029L106.398 64.5096L108.776 62.2975L105.76 61.0921L104.996 63.0029ZM102.697 60.9496L104.548 60.0494L104.548 60.0494L102.697 60.9496ZM106.395 53.5379L107.32 55.3761L110.6 53.725L107.479 51.7891L106.395 53.5379ZM104.865 51.8715L103.015 52.7718H103.015L104.865 51.8715ZM108.671 44.406L107.771 42.5556H107.771L108.671 44.406ZM111.673 43.5686L111.839 45.6197L112.769 45.5442L113.325 44.795L111.673 43.5686ZM111.84 43.3469L113.477 44.5927L114.15 43.708L113.779 42.6601L111.84 43.3469ZM115.814 36.283L116.714 38.1334L115.814 36.283ZM120.774 35.5555L120.357 37.5708L122.013 37.9128L122.67 36.3548L120.774 35.5555ZM124.564 31.7615L123.663 29.9111V29.9111L124.564 31.7615ZM132.787 33.3746L130.936 34.2749L130.936 34.2749L132.787 33.3746ZM132.843 33.4965L130.963 34.3322L132.264 37.26L134.385 34.859L132.843 33.4965ZM135.47 31.5242L134.57 29.6738V29.6738L135.47 31.5242ZM143.693 33.1373L141.842 34.0375V34.0376L143.693 33.1373ZM143.909 34.8094C143.632 34.8582 143.359 34.9172 143.092 34.9856L144.112 38.9727C144.278 38.9301 144.449 38.8932 144.624 38.8624L143.909 34.8094ZM153.756 40.2883C153.377 38.1401 151.902 36.5496 150.116 35.6378C148.331 34.7266 146.127 34.4183 143.909 34.8094L144.624 38.8624C146.043 38.612 147.329 38.8358 148.245 39.3034C149.16 39.7705 149.598 40.4056 149.703 41.003L153.756 40.2883ZM151.567 46.2667C153.143 44.7673 154.168 42.6216 153.756 40.2883L149.703 41.003C149.817 41.6464 149.579 42.4775 148.73 43.2846L151.567 46.2667ZM152.158 44.1018C152.065 43.9518 151.97 43.8029 151.874 43.655L148.423 45.8963C148.503 46.0203 148.582 46.1452 148.66 46.2709L152.158 44.1018ZM158.875 48.759C158.181 44.8229 154.06 42.9112 150.289 43.1321L150.53 47.2406C153.202 47.0841 154.64 48.4389 154.822 49.4737L158.875 48.759ZM154.677 56.1821C157.338 54.7511 159.442 51.9747 158.875 48.759L154.822 49.4737C154.974 50.3338 154.446 51.6334 152.728 52.5574L154.677 56.1821ZM155.771 54.3188C155.762 54.2445 155.752 54.1703 155.742 54.0963L151.663 54.6433C151.671 54.7055 151.679 54.7677 151.687 54.8299L155.771 54.3188ZM155.823 53.6034C155.528 53.3458 155.222 53.1072 154.909 52.8881L152.55 56.2606C152.744 56.3963 152.935 56.5452 153.121 56.7075L155.823 53.6034ZM157.754 64.7058C159.187 63.0606 159.496 60.9135 159.082 58.9512C158.668 56.9902 157.522 55.0823 155.823 53.6034L153.121 56.7075C154.208 57.6542 154.843 58.7944 155.055 59.8009C155.267 60.8061 155.049 61.5459 154.65 62.0034L157.754 64.7058ZM152.751 66.8329C154.587 66.8444 156.446 66.208 157.754 64.7058L154.65 62.0034C154.283 62.4251 153.668 62.7229 152.777 62.7174L152.751 66.8329ZM154.466 66.1545C154.554 65.9089 154.639 65.6616 154.72 65.4127L150.807 64.1376C150.739 64.346 150.668 64.5531 150.594 64.7587L154.466 66.1545ZM155.141 74.3581C157.792 71.3127 156.64 66.8519 154.036 64.0545L151.024 66.8587C152.877 68.8491 152.733 70.8558 152.037 71.6557L155.141 74.3581ZM146.494 75.6583C149.331 76.9357 152.937 76.8892 155.141 74.3581L152.037 71.6557C151.449 72.3311 150.041 72.742 148.183 71.9056L146.494 75.6583ZM148.45 75.5852C148.574 75.4619 148.697 75.3373 148.819 75.2115L145.858 72.3523C145.756 72.4579 145.653 72.5624 145.549 72.6659L148.45 75.5852ZM145.684 83.3022C149.357 81.6308 150.159 77.0985 148.952 73.4754L145.047 74.7757C145.906 77.353 144.944 79.1173 143.979 79.5563L145.684 83.3022ZM137.165 80.7728C139.216 83.1909 142.575 84.7171 145.684 83.3022L143.979 79.5563C143.151 79.9333 141.658 79.7074 140.303 78.1102L137.165 80.7728ZM139.421 81.3816L139.457 81.3681L138.011 77.5148L137.975 77.5283L139.421 81.3816ZM134.649 86.8969C138.286 86.4846 140.42 83.0565 140.746 79.651L136.65 79.2588C136.427 81.5831 135.149 82.6982 134.185 82.8075L134.649 86.8969ZM127.239 81.6313C128.403 84.6736 131.17 87.2912 134.649 86.8969L134.185 82.8075C133.26 82.9123 131.861 82.1942 131.082 80.1605L127.239 81.6313ZM128.841 82.9381C128.909 82.9425 128.977 82.9466 129.045 82.9504L129.276 78.8413C129.218 78.8381 129.161 78.8346 129.104 78.831L128.841 82.9381ZM123.19 86.8545C126.735 87.3911 129.645 84.7521 130.884 81.6468L127.061 80.1223C126.224 82.2215 124.747 82.9276 123.806 82.7852L123.19 86.8545ZM117.42 79.9849C117.792 83.17 119.778 86.3379 123.19 86.8545L123.806 82.7852C122.898 82.6477 121.755 81.6217 121.508 79.5073L117.42 79.9849ZM115.78 82.7881C117.643 83.0702 119.387 82.44 120.747 81.3545L118.18 78.1377C117.541 78.6479 116.922 78.7985 116.396 78.7188L115.78 82.7881ZM109.965 75.4459C110.202 78.8132 112.204 82.2467 115.78 82.7881L116.396 78.7188C115.448 78.5753 114.232 77.4426 114.071 75.1571L109.965 75.4459ZM112.422 73.2838C111.423 73.0838 110.833 72.5961 110.569 72.0533L106.868 73.8538C107.817 75.8047 109.658 76.9276 111.614 77.3193L112.422 73.2838ZM110.569 72.0533C110.465 71.8401 110.405 71.6101 110.387 71.3609L106.282 71.6469C106.334 72.3994 106.524 73.1463 106.868 73.8538L110.569 72.0533ZM101.435 69.9417C102.748 72.6409 105.694 73.7196 108.454 73.5582L108.214 69.4496C106.51 69.5493 105.489 68.8685 105.135 68.1412L101.435 69.9417ZM103.595 61.4962C101.325 63.6077 99.9714 66.9342 101.435 69.9417L105.135 68.1412C104.745 67.3384 104.914 65.8898 106.398 64.5096L103.595 61.4962ZM100.847 61.8499C101.567 63.3299 102.814 64.3468 104.233 64.9138L105.76 61.0921C105.142 60.845 104.754 60.4729 104.548 60.0494L100.847 61.8499ZM105.47 51.6997C103.487 52.6975 101.919 54.2352 101.034 56.0074C100.147 57.7818 99.9031 59.9104 100.847 61.8499L104.548 60.0494C104.285 59.5094 104.264 58.7499 104.715 57.8471C105.168 56.9422 106.052 56.0138 107.32 55.3761L105.47 51.6997ZM103.015 52.7718C103.539 53.85 104.35 54.6915 105.31 55.2866L107.479 51.7891C107.119 51.5656 106.87 51.2883 106.716 50.9712L103.015 52.7718ZM107.771 42.5556C105.746 43.541 104.142 45.0845 103.232 46.8701C102.321 48.6568 102.06 50.8103 103.015 52.7718L106.716 50.9712C106.45 50.4258 106.432 49.6546 106.898 48.7393C107.366 47.8229 108.275 46.8872 109.571 46.2564L107.771 42.5556ZM111.506 41.5176C110.262 41.6186 108.988 41.9632 107.771 42.5556L109.571 46.2564C110.341 45.882 111.118 45.6782 111.839 45.6197L111.506 41.5176ZM110.202 42.1011C110.141 42.1811 110.08 42.2615 110.021 42.3422L113.325 44.795C113.376 44.7273 113.426 44.6599 113.477 44.5927L110.202 42.1011ZM114.913 34.4326C111.25 36.2149 108.544 40.2055 109.9 44.0338L113.779 42.6601C113.399 41.5849 114.083 39.4135 116.714 38.1334L114.913 34.4326ZM121.19 33.5403C119.202 33.1298 116.965 33.4342 114.913 34.4326L116.714 38.1334C118.028 37.4938 119.343 37.3613 120.357 37.5708L121.19 33.5403ZM123.663 29.9111C121.447 30.9896 119.726 32.7427 118.877 34.7563L122.67 36.3548C123.087 35.364 124.037 34.3061 125.464 33.6119L123.663 29.9111ZM134.637 32.4743C133.683 30.5128 131.827 29.3886 129.859 29.0026C127.893 28.6168 125.689 28.9258 123.663 29.9111L125.464 33.6119C126.76 32.9811 128.058 32.8432 129.067 33.0412C130.075 33.2389 130.671 33.7294 130.936 34.2749L134.637 32.4743ZM134.724 32.6608C134.696 32.5984 134.667 32.5362 134.637 32.4743L130.936 34.2749C130.945 34.2938 130.954 34.3129 130.963 34.3322L134.724 32.6608ZM134.57 29.6738C133.281 30.3005 132.172 31.1484 131.301 32.134L134.385 34.859C134.886 34.2921 135.555 33.771 136.37 33.3746L134.57 29.6738ZM145.543 32.237C144.589 30.2755 142.734 29.1513 140.766 28.7653C138.799 28.3795 136.595 28.6885 134.57 29.6738L136.37 33.3746C137.667 32.7438 138.964 32.6059 139.973 32.8039C140.982 33.0016 141.577 33.4921 141.842 34.0375L145.543 32.237ZM145.472 37.8378C146.263 36.1158 146.444 34.0876 145.543 32.237L141.842 34.0376C142.094 34.5553 142.123 35.2685 141.732 36.1205L145.472 37.8378Z" fill="#C43B00" mask="url(#path-18-inside-2_86_3077)"/>
<rect x="141.912" y="36.5342" width="10.9476" height="5.66294" rx="2.83147" transform="rotate(121.56 141.912 36.5342)" fill="white" fill-opacity="0.4"/>
<rect x="147.783" y="46.7021" width="7.64491" height="5.66294" rx="2.83147" transform="rotate(152.744 147.783 46.7021)" fill="white" fill-opacity="0.4"/>
</svg>
