<svg width="160" height="160" viewBox="0 0 160 160" fill="none" xmlns="http://www.w3.org/2000/svg">
<rect width="160" height="160" fill="white"/>
<ellipse cx="84.035" cy="129.755" rx="39.156" ry="3.30518" fill="black" fill-opacity="0.09"/>
<path d="M56.3008 108.647C56.4349 108.437 56.9447 107.638 57.9107 106.123" stroke="#ABB3C0" stroke-width="2" stroke-linecap="round"/>
<path d="M35.8455 88.4029C35.5083 88.7329 35.3395 89.3824 35.5428 89.98C33.5581 90.1565 33.785 93.0524 35.5031 92.8193C36.8776 92.6328 44.3808 90.8225 47.9605 89.9407L48.4192 88.4617C48.6413 87.7453 48.0257 87.0504 47.2895 87.1937C45.9349 87.4572 44.2816 87.8005 43.2906 88.0721L37.7101 89.601C37.5409 89.489 37.1157 89.1224 36.7693 88.552C36.3364 87.8391 36.2671 87.9903 35.8455 88.4029Z" fill="black"/>
<path d="M75.6559 124.981V112.431H79.9317C80.6398 117.341 82.0008 127.494 81.7791 128.824C81.502 130.487 69.8632 129.748 70.8792 127.993C71.6921 126.589 74.4024 125.4 75.6559 124.981Z" fill="black"/>
<path d="M91.4527 124.981V112.431H95.7285C96.4367 117.341 97.7977 127.494 97.576 128.824C97.2989 130.487 85.66 129.748 86.6761 127.993C87.489 126.589 90.1992 125.4 91.4527 124.981Z" fill="black"/>
<path d="M44.1072 73.4934L44.1256 73.3766L44.13 73.2584C44.5686 61.6103 48.1089 51.8172 54.9526 44.941C61.7588 38.1025 72.0782 33.9019 86.6002 33.8747C99.7706 35.7762 109.82 40.0416 116.58 46.8819C123.31 53.6914 127.012 63.2891 127.031 76.3555C125.819 88.366 121.66 97.9155 114.685 104.345C107.707 110.776 97.6672 114.31 84.2481 113.805C72.6035 113.367 61.5241 109.522 53.9106 102.706C46.3706 95.9552 42.1118 86.1999 44.1072 73.4934Z" fill="#EEF2F4" stroke="url(#paint0_linear_60_4017)" stroke-width="4"/>
<path d="M76.1797 71.126C76.1812 71.0683 76.1867 70.849 76.1973 70.4334" stroke="black" stroke-width="2" stroke-linecap="round"/>
<path d="M85.4668 72.5117C85.4668 72.4726 85.4668 71.9601 85.4668 71.6786" stroke="black" stroke-width="2" stroke-linecap="round"/>
<path d="M128.334 91.1089C128.023 90.9475 126.844 90.3344 124.608 89.1728" stroke="#ABB3C0" stroke-width="2" stroke-linecap="round"/>
<path d="M123.189 50.6064C122.863 50.7316 121.621 51.2072 119.268 52.1084" stroke="#ABB3C0" stroke-width="2" stroke-linecap="round"/>
<path d="M97.5996 32.6523C97.3391 32.886 96.3492 33.7737 94.4735 35.4557" stroke="#ABB3C0" stroke-width="2" stroke-linecap="round"/>
<path d="M88.2793 30.8115C88.4476 31.1183 89.0874 32.284 90.2995 34.4926" stroke="#ABB3C0" stroke-width="2" stroke-linecap="round"/>
<path d="M123.207 94.0278C123.101 93.8433 122.699 93.1421 121.937 91.8134" stroke="#ABB3C0" stroke-width="2" stroke-linecap="round"/>
<path d="M48.1348 49.354C48.3201 49.4584 49.0245 49.8549 50.3591 50.6063" stroke="#ABB3C0" stroke-width="2" stroke-linecap="round"/>
<path d="M127.359 85.6113C127.154 85.6658 126.372 85.8727 124.892 86.2648" stroke="#ABB3C0" stroke-linecap="round"/>
<path d="M100.684 109.582C100.684 109.794 100.684 110.603 100.684 112.134" stroke="#ABB3C0" stroke-linecap="round"/>
<path d="M103.504 109.753C103.61 109.937 104.014 110.637 104.78 111.964" stroke="#ABB3C0" stroke-width="2" stroke-linecap="round"/>
<path d="M105.973 108.009C106.157 108.116 106.857 108.52 108.183 109.286" stroke="#ABB3C0" stroke-linecap="round"/>
<path d="M122.098 55.9287C121.953 55.8451 121.403 55.5275 120.36 54.9256" stroke="#ABB3C0" stroke-linecap="round"/>
<path d="M118.707 46.7876C118.601 46.9718 118.196 47.6719 117.431 48.9983" stroke="#ABB3C0" stroke-linecap="round"/>
<path d="M76.293 80C77.0784 80.6489 77.9536 81.6779 80.1431 81.8647C82.8799 82.0982 83.5877 81.8647 84.6172 81.0526" stroke="black" stroke-width="2" stroke-linecap="round"/>
<defs>
<linearGradient id="paint0_linear_60_4017" x1="53.0468" y1="52.3978" x2="118.032" y2="107.774" gradientUnits="userSpaceOnUse">
<stop stop-color="#EEF2F4"/>
<stop offset="1" stop-color="#DAE3EA"/>
</linearGradient>
</defs>
</svg>
