<svg width="161" height="160" viewBox="0 0 161 160" fill="none" xmlns="http://www.w3.org/2000/svg">
<rect width="160" height="160" transform="translate(0.914062 0.00195312)" fill="#1D997C"/>
<ellipse cx="80.788" cy="147.522" rx="50.8915" ry="4.29577" fill="black" fill-opacity="0.09"/>
<path d="M18.158 93.7757C17.7197 94.2046 17.5003 95.0487 17.7646 95.8255C15.185 96.0548 15.48 99.8187 17.713 99.5157C19.4995 99.2733 29.2514 96.9205 33.904 95.7744L34.5001 93.852C34.7888 92.921 33.9888 92.0178 33.0319 92.204C31.2713 92.5466 29.1225 92.9927 27.8344 93.3457L20.5815 95.3329C20.3615 95.1873 19.8089 94.7108 19.3587 93.9695C18.796 93.0428 18.7059 93.2395 18.158 93.7757Z" fill="black"/>
<path d="M69.8993 141.316V125.005H75.4566C76.377 131.387 78.1458 144.582 77.8577 146.311C77.4975 148.472 62.3704 147.512 63.691 145.231C64.7475 143.406 68.2701 141.861 69.8993 141.316Z" fill="black"/>
<path d="M90.4305 141.316V125.005H95.9878C96.9082 131.387 98.6771 144.582 98.3889 146.311C98.0288 148.472 82.9017 147.512 84.2223 145.231C85.2788 143.406 88.8013 141.861 90.4305 141.316Z" fill="black"/>
<path d="M28.2306 74.2929L28.2483 74.1803L28.2525 74.0664C28.8269 58.8095 33.4683 45.9018 42.5141 36.813C51.5236 27.7607 65.1398 22.2581 84.1711 22.2318C101.396 24.7119 114.633 30.2974 123.567 39.3372C132.472 48.3475 137.326 61.0179 137.344 78.1505C135.762 93.8902 130.307 106.486 121.081 114.99C111.852 123.495 98.6157 128.124 81.0411 127.463C65.7876 126.888 51.2254 121.853 41.1879 112.866C31.2212 103.943 25.6011 91.0369 28.2306 74.2929Z" fill="#EEF2F4" stroke="#DCDFE0" stroke-width="3.85394"/>
<path d="M70.5801 71.3203C70.582 71.2453 70.5892 70.9603 70.603 70.4202" stroke="black" stroke-width="2.59942" stroke-linecap="round"/>
<path d="M82.6504 73.1216C82.6504 73.0708 82.6504 72.4046 82.6504 72.0388" stroke="black" stroke-width="2.59942" stroke-linecap="round"/>
<path d="M44.7441 120.088C44.9185 119.814 45.5811 118.775 46.8365 116.807" stroke="#3A4454" stroke-width="2.59942" stroke-linecap="round"/>
<path d="M138.365 97.2925C137.962 97.0828 136.428 96.2859 133.523 94.7761" stroke="#3A4454" stroke-width="2.59942" stroke-linecap="round"/>
<path d="M131.682 44.6514C131.257 44.814 129.643 45.4322 126.585 46.6035" stroke="#3A4454" stroke-width="2.59942" stroke-linecap="round"/>
<path d="M98.4199 21.3157C98.0813 21.6193 96.7947 22.7731 94.3569 24.9593" stroke="#3A4454" stroke-width="2.59942" stroke-linecap="round"/>
<path d="M86.3066 18.9236C86.5254 19.3223 87.3569 20.8373 88.9323 23.7079" stroke="#3A4454" stroke-width="2.59942" stroke-linecap="round"/>
<path d="M131.703 101.087C131.566 100.847 131.043 99.9354 130.053 98.2086" stroke="#3A4454" stroke-width="2.17647" stroke-linecap="round"/>
<path d="M34.1289 43.0237C34.3698 43.1593 35.2853 43.6747 37.0199 44.6513" stroke="#3A4454" stroke-width="2.59942" stroke-linecap="round"/>
<path d="M137.102 90.1479C136.834 90.2187 135.819 90.4877 133.894 90.9973" stroke="#3A4454" stroke-width="2.17647" stroke-linecap="round"/>
<path d="M102.428 121.302C102.428 121.578 102.428 122.629 102.428 124.619" stroke="#3A4454" stroke-width="2.17647" stroke-linecap="round"/>
<path d="M106.096 121.524C106.234 121.764 106.759 122.674 107.755 124.398" stroke="#3A4454" stroke-width="2.59942" stroke-linecap="round"/>
<path d="M109.303 119.258C109.542 119.397 110.452 119.922 112.176 120.917" stroke="#3A4454" stroke-width="2.17647" stroke-linecap="round"/>
<path d="M130.262 51.5691C130.074 51.4604 129.358 51.0476 128.004 50.2653" stroke="#3A4454" stroke-width="1.29971" stroke-linecap="round"/>
<path d="M125.854 39.6877C125.715 39.9272 125.19 40.837 124.195 42.561" stroke="#3A4454" stroke-width="2.17647" stroke-linecap="round"/>
<path d="M62.1152 80.9988C64.7191 81.9343 67.6548 83.3764 74.7314 83.8654C83.5772 84.4768 85.8321 84.251 89.0589 83.3055" stroke="black" stroke-width="2.59942" stroke-linecap="round"/>
</svg>
